<mxfile host="app.diagrams.net" modified="2024-03-17T12:49:03.363Z" agent="Mozilla/5.0 (Windows NT 10.0; Win64; x64) AppleWebKit/537.36 (KHTML, like Gecko) Chrome/122.0.0.0 Safari/537.36" etag="zBrg4_NtRPDXJva0vT2n" version="24.0.7" type="github">
  <diagram name="第 1 页" id="UeRHKd-QHrI2Fqx0JmGc">
    <mxGraphModel dx="2474" dy="838" grid="1" gridSize="10" guides="1" tooltips="1" connect="1" arrows="1" fold="1" page="1" pageScale="1" pageWidth="827" pageHeight="1169" math="0" shadow="0">
      <root>
        <mxCell id="0" />
        <mxCell id="1" parent="0" />
        <mxCell id="ixYg1scpjvnWDyzN9siH-3" value="" style="shape=image;verticalLabelPosition=bottom;labelBackgroundColor=default;verticalAlign=top;aspect=fixed;imageAspect=0;image=data:image/jpeg,iVBORw0KGgoAAAANSUhEUgAAAzYAAAEYCAYAAACOdmMuAAAAAXNSR0IArs4c6QAAAARnQU1BAACxjwv8YQUAAAAJcEhZcwAADsMAAA7DAcdvqGQAAHUESURBVHhe7b3ZdxTHFu5J3+5e/Xx7db90r/vS5+Gu+9I+tjECAQIkEGIS82DEYDBCgCwhQCCBmMFMRsyYebCRMTMIBALEIAYJEJPhHJ/+c6LrCxzlyKyozJ2lRKjE9/BbUmVEZkbGkLm/iB0Rvdra2tSBAwfU/9u7DyGEEEIIIYRkJRQ2hBBCCCGEkKyHwoYQQgghhBCS9fRavXq12r9/vzOQEEIIIYQQQrKBXjk5OWrOnDnOQEIIIYQQQgjJBnqtWbNGffXVV85AQgghhBBCCMkGev33//7f1T/+8Q9nICGEEEIIIYRkA1w8gBBCCCGEEJL1UNgQQgghhBBCsp5e69evV1OnTnUGEkIIIYQQQkg20Ku4uFhVVlY6AwkhhBBCCCEkG6ArGiGEEEIIISTrobCJyP7DB9Rv5xucYXEzt2y++tf/91b1GTDQGR6VwYXD9fXGTZ7sDPdzr/Wuqtuw1hnWVUjS/M8+fdXen/epZ6+e6rgoI3+cqM8uoTvkj4SP8ezZxNCRo9SL1206H1zhXUlQWaA+IQzU79+dEp4tuNrF5JIS9ajtgeqdO8BznBBCCImTFGHTu1+u2rh1s/44vX7/Un+Mjp8+rvKLijwnxkn7y6dqSU21M6y7kc3Cpt+gwerg0Z8TZTnCGe7nYxvuknKXpHnO/HnqzfsONXbyJNU3b7D6Ord/Spyozy4hk/xBOzpy8qhq+cuIdYmwiqVV6nLjRW2Mg/OXzyUMw+kp8aR8jGfPJk6eOaG27/7JGVaxbIkux7f/eqma7txQ02fPdsaLC0lZnLv8e48TNgDvTXxb/McJIYSQuEgRNuj5fvKsVc0vL1cjx41XJd/NVvX7dqlxU6Z4TowTChs3cQubqHQHYSNh5do6df/RXWfYxyST/Bkxtljt3FOvFi6u1OLGJWxQv9b/uFHNmDtHTZ05Q535/Vf15l2HPtcflwQzbNQo9e7P16qoODXvZn4/V7evdZs3qNETxqsDibJAZ07hqNEpcbuSnipsvl+wQLd5dJ75wwghhJA4SBE2cOepqVvpiWTTf0i+7t0sXbTAc7y0fKH649+v1ICCguSx2tWr9EcOvekQS+ipNmHoWYdR4WJx9dJkPLBocYVqvndTXwfG4Kp1q7X7EcImTJuq3v/5Rv187JBO+9qEkXKq4ZTu6c7EKM8rGKp7VNueP9ZGzo3bjeq70tJkuBE2MIbaXzxW7R1P1ObtWzzXAEFpNoTdyy9s4FLz8Mk9bfR88U1OMl4YEKh2/rrcYL7qm6t2HditOl63J/PRZaCEPRfy5/dLZ7Xx/vTFo5T8kZa7JM24lx3HYIsFyXVA2HNJ8ycKGCFwCRs/OXmD1Pv/vFG1CQHnCk+H9NmD2qk0jmkX9rHrtxrVlp+2eo5J2oUkPVI2bNmkbt9rdoYhvReunE/+RjqePH+kttXv8MSTEJZmaVmAMGHT2TZoCHv/gDjbxdf9+uvrzFtYlhJGCCGExEGKsMHH61TDSac7j+H46WPqzLkznmP4feLXk8nfcOlATykE0KBhhap40iT90bPPMQT13MPY7Xj7TC2srFAFI0aqmXPnaMNheV2tDoewgaEwt6xM1a1bo/+He8kPS6rUqz+epxhNQcD/u+XhbW1wfjtrliocNUoLNhgtJg6Mhpdvn6v6vbvUqPHjtQjEPeFDbuKEpRlI7mULm+FjitXj9odqy85tyfCoBPn3wwB8/qpNGzYjx47T5QnBaBsokudC/uC8qhXVOu+/nT0rJX8MkhEbyfwQpBHGlCvMEHQdyXNJ8icqUmGTP7xIp728KrPVC4OeXdJOJXEkwkaSz1HeGxIuXrugDhw56AxD58cmn2sUOkUuJc6xj4URJc2S+hwkbOJqg5L3z8doF1dvXNFCyBVGCCGEdJYUYTNt1kz98YLx3pD4SNWsqUt8rId5TsKHHB8vcxw9f/iND5+Jg48qrvFN/3A3qiADF3N86tZ7P5JwPbp1t0n/b4TNlzn91JgJE/X//fMLkgaEPYIUBuY2wEAJ8n+H0YA02YLp4dP7uifT/A5LM5DcywibidOm6V5VjBK54kkJMqow+mT7vw8pLNKjBLaBInku5E9L6x1PHPy288fQXYSN5Lkk+RMVqbDBaCRGHdDj7QoPI+jZJe1UEkcibCT5HOW9IQGdAa55HXhfIE+qV9aoBRXlWuRgjtbeg3u1we+PH0SUNEvqc5CwiasNSt4/H6NdHP/lhGrw1RNCCCEkLlKEDYB7AXrx0BsH9wT02k2xevvgBoU5DebjhQ8mjHvb2IfYefC4RbtCHD5xWK2oq9XHTLhNOgMXogRGgAuMxiCOcUXD//CjRxhGOOAyh/+jLHqAUZgwowZGAwwP+5g24HZ8MOAkaQaSexlhAzcPGCGYJO+KJyWdUWXcw+ADbx+HC4spY+lzIX/OXjyb/A3s/LHpDsJG8lyS/MkEibBBG4R7FOaKuMIlBOWhpJ1K4oQJG2n9kdwrCnCPWu0oI7zjcG+MuM4unadu3mlSI4rH6tGdqMImSpo7I2zibINh75+P1S4OHT+sLlz92/2PEEIIiROnsLGBiIHB4jfm125an/wwwgfbNZoA4wGLD8DdAy5u+OANzE/94KczcBEXH04Y+P4wQ7iwka8EhUUS7j5w++Mbwgw4SZqB5F5G2MC1Dj7yMNJgGLniSkhnVGEOB477/esxcmcMFOlzheWPTXcQNpLnkuRPJoQJG/SE4x6uie9RCMtDSTsNi7Pv0P6Ucm+6cz1yuwDS94aEO/eb1fY0c2YwSvOjT3D/cvZ0ZFc0IE2zpD6nEzbSPJS0wbD3j+RembQLuKph1MYVRgghhHSWUGED9hzYqxpvXvUcgxsaBAV6JzGaABcEO9xPzsA8Hc81cfRxe6uqXlWTcvxD2EP9EXaFgTiFzd/uGemfRWI0hKUZSO4Fo8I8D0bDrjZd0UbXF33kCwfYBBlVcCmx/ev1hPVEvtoGiuS5ogiboHI3fGxhAyTPJcmfqAQJG0xghytQHCt0SfLQENRODa44W3duV5evX0r+Rn2FcR+1XfiRpCeIw8cPqbMXfnOGoZ7604zOg3RCSEpQmiVlcbrhtF6hzRUWVxuUvH8+RrtwubfZYBQI72zud0MIISQTUoQNegux+hImmmIJ1OraFXrFHNdk2NO//aJXQnMZDphIi3OxGhBED66JDykmwfvjYp8OfIjh/oClQG3DvWr5Mn0e3EkgXDCPBmLKrPITp7AxE2pvNDfqCbdYhQy9kbbxLTEawtIMJPeyhQ1+Iw7cAtErbOJEIciogssTepohWGHg7dizU8e1DRTJc0URNkHlbugKYSN5Lkn+SMAz4voA5Y+FOvA/7mvi/LSnXpczFsQwcQGewb6WlKBnl7RTUZzyhXrFK7hzYZQXc/PQLqO2iyjvDQlYth556Vpi2Cz3vGbjOr0QCEad8AxRxWSUNEvrM0Y9sAgBXNrshVziaoOS90/c7QILFCAM+eQPM+B6iCMZ2SOEEEL8pAgbGCQYGYCbxut3L/SkZXyk8NGyTwSY84GPECbf+sPglnHp2odNBnEdfEDnlHldFgyYtNt465oWULgeVuOxw7HnB9xaYHSgRxVLtJre0DiFDYAhgSVQ0ROJ9KBX3Z7bIjXcg9JsCLuXX9gAXBfGBvY3McfCQHpxHT9wITRx4Eqze/8evcIRDBU8D+YN+A2UsOeKImyCyl2SZgPSmE7YSK8T9lzS/Akj3XLXtlsQ5mq44mBiu32tMCTPLmmnkjgQbEgf8gdLksONLpN2EeW9IQGLBEAklP2wyBleuWyJni+IJewxzwb3d8ULQpLmKPUZixBguWgsSIA4fnfNuNpg2PsHxNku0CGDVer8x20obAghhHQGkStaOvDBxceOG64RQrorWLUMYiPK3k8kXnIG5GkBNWn6dGc4IYQQEgcZCRt8pOC6gZXQ4FvvikMIId0BjDZjBMEsT0+6njETJqSMxBNCCCFxk5GwweRWzK3BX9tNihBCCCGEEEI+BZ1yRSOEEEIIIYSQ7gCFDSGEEEIIISTrobAhhBBCCCGEZD0UNoQQQgghhJCsp9sLG9eeDIQQQgghhBBi4xE2WI4Tm6OdvXg2GQEb7z15/mHDwKDdsj8WcQmb/KIivekdNpHDs+C6/jg47uLXs7+kxO0sFUur1OXGD5v6AezCP7kkdY+HimVL9OaT2EAQG+hNn+3dQFB6HUNp+SL9TGd+/9UZ3hXE9ewSJPeKmodBhKU5d9AQtffQPvW4vVVveoiNE7+dNcsThxBCCCGERCdF2Lx516F36jZ7PsycO0c9fHJfG8PZLGxGjC1WO/fU6520IW5cwmbMhIkeppSU6F3+Fy2uSInbWfBM63/cqGYk8nfqzBlaaCDvkU4TZ+b3c3W+r9u8QY2eMF4dSKQZO4QXjhod6TqGghEjtdF9627TJxU2cT27BMm9ouRhEJI0n2o4pXe6x30KR41SP+7YqgVO1OcihBBCCCFeUoTNqz+eawGwat1qfQyjHJu2/egRNujNxqhOe8cT3TPd3NKkFlamGv9LaqpV+8un6tvZs1TTnes67uP2h2rclCnJOHkFQ9XBoz+rtuePtRF443aj+q60NBluhA2MRexcjXtu3r4lGZ4J6El3CRs/K+pq1bNXT1XvfrnO8DjJyRuk3v/njapdW5c8hue+cOV88jc2GsTo2bb6HcljflzXATj3atMVNW9hmTp3+fdPKmz8dPbZcwbmqcGFw0XllC5/bILiBN0rLM1f5vTT+z8tq1mRjANaWu+oLT9t9RwjhBBCCCHRcAobCBj06ucMyNPCpHjiJI+wmV9erlYmjD78HjpylKquXaENQb/7DoQNer7h5gMx803/gWrS9Olq+JgPPeG9cweoloe3tdCAOw56sEvLF6ra1auS14AAefn2uarfu0uNGj9e1dSt1GmZXFKSjBMVibD54pscnbYdu9KLiDjJH16kn6u8qjJ5DG5Rm7Zu9sRDj/+laxc8x2xc1wFbdm5Th44f1v93N2HT2WffsGWTPn9u2fyUMD/p8scmKE7QvcLSDDGEEUD/Duxoa+cu/e45RgghhBBCouEUNvj/zv1mPXJz9NQxLThgzAW5ot1obkzpdYaw0edZIzQ2mNsAQy+/aIQzHECAPGp7oHu/zbGHT+8nR5QyQSJs4IIHsVY4eowzPG5+PnZI3b7XrL7u11//Ru8+8q56ZY1aUFGujeaxkyepvQf3asHlP9/gvw4omfOdzjOMROB3dxM2nX32KMLGlT9+guKku5c0zZeuXdTzagYNK9Tz135Ysli3AYgb+3qEEEIIISQaaYXN2k3rtaE26/u5KcIGE6AxAgADDa5lT1880m5mu/fvSV4YQNjguC1KbDAKE2SkAwgQGOL2Mdx3y47MXXckwgaGv/++HwsYy3BZGpbIZ3Psq765Os8xQjW7dJ66eadJjSgeqw4cOZg2z1zX6Z9foI/ZE9Q7I2xq1tSp93++SQLR5IonJa5nl+C6lx9JHBfSNKMtXb5+ScdF/mE0B50HqJP29QghhBBCSDTSChvMfcEcE4gSv7DBXILGW9cUJkBjvgHiXmu6onunzYWBmWNjH7Op37dL3X3Q7AwzQIDgfvYxLWw6MSchTNjAvQ696KWLFjjD42Tj1s16sYai4tSJ6uj1x+Ry+9gvZ0873bHSXQercqHsMEHdgGcD+B+rxdnxw4CoxT0McC90xZMQ17NLCLqXQRIniChp7jNgoG43+L/h3JluNYJGCCGEEJKNpBU2NrawgdCBUfz9gr+NfvRWY1J/VGHztytaeuP6UwgbzKtBrz3ci1zhAAY9RF1nDHtMKoebXboVsfDc6N03v5H3WMxgu28CfdB1MI/JiBDDlRuX9SR3/B/0jB+TuJ4d9M0brN0Z8az+MBB2LyCJA4LuFSXNhiGFRboN2PPKCCGEEEJIdHr937WrVPHy5fqHRNjgN+bfwO0MhhsMY8zFgXEWVdiYxQMwPwcrp2GkBCuiVa+qScaJS9hgPoNZxhn3PNVwUv8P496OhzSh5x0rwdnH/Zj5Q/jrCg/jp0Sedbx9puaWlSXTBSCWTByzfPCajev0wgn7Du1PWRpYch0/n3qOTVzPboD7GOK65thI7hUlD4PuJUnz+KlTdZ2ZOG2avgZWFHzwuEUv1GFfixBCCCGERKPX/1yxOLKwgdGHnmmMasAow/LL2NQwqrABZrlnLOWM5Z4xmjJn/rxkeFzCBj3teAY/fle4quXLPowiDQ920apbv1afD2PWFR4G5iX50wL8eVi5bIne9wRzlTBvo+Q774aP0uvYfGphE9ezG4LEhuReUfIw6F4gLM3Fkybp46jrGM3B/BqM2thxCCGEEEJIdHr9lx8qk8KGyGlIiK2rN644wwghhBBCCCFdS6//vXo5hU1E4H6HkS0snuAKJ4QQQgghhHQtvf7rMgobQgghhBBCSHZDVzRCCCGEEEJI1tPrf62sorAhhBBCCCGEZDW9/q+alWriir+XVyaEEEIIIYSQbKPX/7a4Ss1ft84ZSAghhBBCCCHZQK//Y3mNqt+bfs+TMLAfStAu/qTzYKNI7J1i9hEinwcs92CYPyQdrBuEEPJ50uvMrVvqwIEPwuSfffrqjwHABoPYfHPXgd16E03/iYaaupWqYmmVM4zEQ79Bg/UmpvlFI5zhXQXKuunOdb1Lf8ebZ+rStYtpN80MAvXlcuNF9eJ1mwabu04ume6MG0R+UZE6cvKoamm9q+usS2B/3a+/2l6/Q7W23debYra03lG1a+tS4nVHuku5xw027cXmva4wgyRONubPhGlTdV3t3S/XGT5oWKH6+dgh1fb8w4bFt+81601fEYYNlHHu2Ytnk/G/6JOjN0rGcRjx0nc4NkK242FT2U1bN+vz7XhdTU+tG2HlTgghJB56tbW1pQibH3dsVaMnjFel5Yu0Ifvw6X3Vf/CQlJPJ58XS2uXqhyVVakpJSUKIlGgD7I9/v9J1xRU/Hb+db1Drf9yoZsydo/cCwqjfm3cdasTYYmf8dCD+zj31auHiSi1uXMJm687tWjzhXujF/WHJYvXuz9cU45+QuIzXbCTIwMU7Fu/am3ea1Jz589SYCRN1fd28fYsOh7BBO3nyrDUhgIbpYzMT9frhk/v6mrawCXuHQ9j8cva0KiouVqPGj1cLKn/Qe3Ot27whGedT0FPrBoUNIYR0DU5hg555E6H/kHz9MUVvnjkG3rzv0HGBy6BEDzx6Fts7nugeweaWJrWwssITB+f9fumsNk6fvnik45qPuAFpqt+7S3W8blfPXj3VH957CSO2bsPaZJwvvslRqxO/0SsPQ/vO/Wb9obavEwaM3vf/eaOmzvBuulm9qkb3nto9mYsWV6jmezd1HsCgXrVutScc4MOLD/C3s2dpwwJ58Lj9oRo3ZUoyTu3qVfpZcB0YKxh9sK8xctz4ZB4Dl1uF5Nkl+ZwJ2KgUImF5Xa0zXEpO3iCd950ZSYGh5qqHGBk6/ssJz7G7D5rVngOZu1+mA/eHaLOPXb/VqLb8tNVzLI5yj6vtSAlLMwhqF33zBnueyQYGuzQO6Or8kTy7lCADd1v9DvX63Yu0nUjIA4gPPBPyFseQlk3bfkzmA54J/4e9w9FeDp84nPwNkF/++iuBdSO8blDYEEJI1xAqbMC5y7+rqzeueI4Z0s2xmV9erlYmDFV8WIaOHKWqa1do49V2OcJ57/98o6pWVOt7QwTg/hgNMHHWblqve9znlJWqEcVj1emG09qYtj8wFcuW6A8LejcLR43W5+A6E6ZOTcaRcOHqebX3oNfgvXLjsv7Amd/4iMIVCyKtYMRI3WOKD5rfuIewgTEBwxpi5pv+A9Wk6dPV8DEfRiWmz56tn6N00QLtflI8aZJam6a3NMhfXPLsknyOSp8BA7VxgjLFR9sVR0r+8CKdnvKqSme4hHTCZmPCmHvc3prIm1H6N0abUC4zv5+bErez4P5hwiauco+r7UiQpFnaLkBcvfJdkT9RyksCRmFgCH/VN9XAheD2i3AbI2zwvLfuNqmcAXk6n4onTkrmg/QdbgsbdI7guZ6/akvpwAqDdUNWN4LKnRBCSHyIhM3h44fUo7YHnmOGKIsH3Gj2Gnk4D3Me7Dj4bXojAXrUNmzZlPydN3RYygcGIyIHfGlovHlVHTlxxHMsjKrqZfqjiZEI/IZ/NvLDFgnIh7r1XsMQAg6Ghn0MH179YbVGaGzwUX359rkWPK5wm6CPtOTZJfksZeTYcdooQHrQkxmHQIBLG+YSYD6MK1xCOmGDOo0ebdQZAFGD3mN/vDjA/cOETVzlHlfbkSBJs7RdgK4yXuPInyjl1VnQQbFj1w5nGDDCBv9jZBYjDkdPHdOi3eSD9B2O9qLbQ+Kepj0jz3C+fV4YrBtdUzcIIYTI6HXjxo1QYQPDE25U9jFDOmGTO2iI2rJzmzbscC4+FHDH2r1/TzIOzrMnwgJtCO74YAjCRQnpmVs23xMH17I/MPi4wGXMjrP3532q8dY1z7Ew4O6ANM76y1iHixd62Uz4gIICnR4XxuAw4MOLa6UzFDCZFxN78SzoOV1RV5t2kYagj7Tk2cPyOQoQH3D3wMjHgSMHddkWjh7jjCsBxgMmPw/7a0QlU9IJG4wCoXcYcw0wl2BZzQpdVrPmfZ8St7Pg/mHCJq5yj6vtSAhLc5R2AbrKeI0jf6KUV2eByMBCF64wYAsbMzKLd5VE2Pjf4WgvZo4N5uLAfRXtJOo7gXWja+oGIYQQGXJXtKZormgw8GBcY3I4PjJ44V9LXMN29QozBNN9YDDnJUXYrPQZ94cSxv3Nq55jEk41nFKHjn9w0UCPIlyZTNjA/KHO9LjAhxcfYFeYAW4JWFUM7h/wO4evN+7hjxcqbEKePSyfOwMmOvtHjKQgb2FMwbhyhUchnbCBew384+1jx08fS+ta2Rn2Hdqfks8YUfPncxzlHlfbkRKU5ijtAnSV8RpX/kjLq7O0PLwtckXD/3ifwpDGO1sibPzvcLQXGON2HLgLY1Ti69xoI6esGx+/bhBCCJEhXjzANvBtXMIG18EH8vsFC5LH8AHASz+KsAHoDbPvjQ+63yUgrTtWBpN84S8Nf3B8EJEXZk6MAb2e9fv+nnOTDomwsckZmKefa97CspSwoI+05Nkl+ZwpWBTi2OnUfMboF1z5eucOSAkDmCgNFxXMC3KFG8KuY3AJG7gUYkEF9G7bx5E3EGT2MQCXEuR1pq4lWIHt8vVLyd9oB6jzQfmcabnH1XYywZVmabsAmPPkH2X0I4nzKfInqLw6y/bdP2nhgtFuV7gtbGzChI3rHe4SNlhWGuf6Fy+QtkHAuvFx6gYhhBAZTmGDpULhtlNavlAbzkHLPacbsYEPONzOcE0YmPAHx0s/qrAxkzi/Ky3VLk8nfj2pXTbsDww++K4J9BOnTUvGkYJVa7ASDkZrXK5sVcuX6eeAmxpGGjApFD2n/lV1woQNBBR6SOHWNaSwSK8Ihuv6hRQI+khLnl2Sz2FgvwzkPSYA49rfzpql94nAvWwBa4CLGcJcPbU/JeoCxOPcsjKdfwY8pz9u0HWQJnMuertPNZzU/9sjQL+e/UX3tOr6k8gfLPMMF0HbaDGgzHCvsN7gdKC9oCww2RgTsmvW1On5C3Y+x1XucbUdCZI0S9sFwL5FSDvclNDeUI6ZxOmK/IlSXp0FzwqjHe9cpAl56F/uWSpswt7htisang1tEXvZuEbmg9og60bX1A1CCCEynMIGoKf74ZN7Wpygt8p/oiGdsMHHC73XmD8BP2R8xPBBiipsIIrQ24cNIeFWhEmouB6W2TRxYETC3QgjAPiwwMjtzApbmDuCPLDvYYN9U2As4EOHCfQXrpxP6aULEzZwX8AGl/h4YolXLKyAFXjsOMgbUx42WDbVxJE8uySfw8B9Dh49qN0t0PsL8QcjCHNXXPGDjCH0hvqfCfhXpANB10m3BCxWlzJx0PuNOoz8+bBB5129chHqun0tgLqF8zNdEAEGFp4B9RRtB+LJn89xlXtcbUeCJM1A0i7A2MmTdKcBygPPBYM9SpyuzB/ps8cFVgjESApG+pCPWFTD7LkURdiAoHc4hI0nXkL4wIUVk+TteCCoDbJudF3dIIQQEo5H2GQCxMr23T85wz4G+HDDsHZ9ZAnpDA0JY+djzL3pLrDtBMP8Ielg3SCEkOwgI2GDnnL0AGIzS/SaYc8aV7w4wL4HcMfATttwpcBKa3DX4BKbJE7QQ4vecCx24QrPRth2gmH+kHSwbhBCSHaSkbCBvzGG9zEEX79/t+7NcsWLA7hZwO0Aq3/hftgxGj7NrriEkL9h2wmG+UPSwbpBCCHZSadd0QghhBBCCCHkU0NhQwghhBBCCMl6KGwIIYQQQgghWU+vp0+fUtgQQgghhBBCsppeTU1NPUbYBG3K9qm513o38saIcYF7m/0csNiDKw4hHxvX/iGEEEIIIXGR4oqGnZyxsSCMYSzljI0Nj58+rvKLijwnAmxAmeku7VGR3KvfoMF6N/z8ohHO8E/JpxQ2hnOXf++RwqYr6+HnTGfzOYqwkdzrU5Q7NmHFJq/YFNcVDtLFqVi2RL8H3v7rpd4gc/rs2Z5wKT3xOl/366+21+9QrW339XenpfWO3sn/U8XxIyl3Qgghn54UYbP3533qybNWvTcNlrfE7srYgXnclCmeE0FXGhbZbrxS2Hw8sr1uZAudzeeeIGwWLa5QHa/bVU7eIGc4cMWZ+f1cPWIKw3j0hPHqQCIvYFQXjhrtOTeMnnqdrTu362WVZ8ydo0fesYfMuz9fq4qlVZ8kjh9JuRNCCPn0pAibZ6+eqpq6lZ5INticEx8yF4urlybjTS6Zrs5ePKvaO57onrzmlia1sLLCcy0AwwQGyrezZ6mmO9d13MftD7WQkt4LAswOc7miwajCXgQ799Srpy8e6XRt3r7FEwf78dTv3aU/YMgHfKwzESRf9c1Vuw7sTl5nbZrr4GPZfO+mevO+Q/cGrlq3OrknED647//zRm+Cap9TvapGtT1/7Nk7KOg6NkHC5otvctTqRPrQi/nHv1+pO/eb1YLKHzxxDp84rMv00PHDusyePH+k6tatSYZPmDZVvf/zjfr52KHkc59qOKWNiCjPDsLKS1o3pNSuXqXLCOmBsD9y8mhKHEk+B9XnuMs06F52vCDC2mmc+WyEDdpV+4vHGZWpND1hddUmZ2CeLhuMVrvCDch/tAuMaLvCQbo4eO4LV8574iFN2+p3eOKFkc3XCcrny40X1fFfTniO3X3QrPYc2PtJ4tikK1NCCCHdjxRhAyPqVMNJ9XVuf09EFzAY0vWYYsRn5do6LTKGjhylqmtXaKMOhpQdD+e/edehPzYwyLCz86Tp09XwMcWeeEH3MuCjCQMnnbCB0V21olp/qGAMIu7kkpJknLWb1msjfE5ZqRpRPFadbjite/KiCpsNWzap56/a1HelpWrk2HHqzLkz+t72dWCEdbx9po1I7HI9c+4cbVAvr6tNxrlw9bzae9D7sb1y47IWX+a35DqGIGEDdxIY0ei9RG8r8gL5M2Hq1GQcGIs4hjyEEBo7eZLewG5u2XwdDmGD8LllZdqIxP+47g9LqvSu/sh3xJOkWVJeBkndCAKuMyjn0kUL1KBhhap40iQtyuw40nwOq89xlqm07QQhbaegs/mMMkV9wbOOGj9ed6B0pkyD4oTVVRu01w/1NjXMpuyHRbpccgcNcYaDdHHwXtnkM4wh+i9du+A5FkY2XyconyEasLM/NsbE7ymJOoG6jRGhTxHHRlLuhBBCugcpwmbarJnaiIIR0JAwyGvW1CWMvWGekwxRDZ0bzY1qy09bPcdwPj52MMzs434k9woTNvClto/hN3rCzW+MDODja37nDR2WkbBBb7TduzeksEgbi/Z1MHepbr33ujAwb91tSv6uql6mn/vLnH76N+YO4flssSG5jiFI2KDHH24k9rHGm1fVkRNHkr9hLD543OKJc/DoQd0zjv+NsEF6x0yYqP/vn1+QLJcBBQU6niTNkvIyRK2HfmD8or5DGLjCgTSfw+pznGUqbTtRcbVT0Nl8Rpni2YzABQ+f3s+4TIPihNVVG4mwgTjCaNaPO1LzxZAuDsoa169eWaMWVJRrMQChBYHb8vC2J24Q2X6doHxGndi07Uf9vgUQGhi1/FRxDJJyJ4QQ0n1IETYArlTfzpqlP0Q3bjfq3ir0atlxQJBhgd6tLTu3qeu3GrV7DEQDXF1279/jiYfzcRwfG/u4H4mhEyZs/EYN0rblrw8WfKddH12kO4qwMa4y3y9Y4DkOtxtzHRj4iOMCIxvmHFwLeTPrr55EuIrBXcqES69jCBI2MOzhEmUfw3yrxlvXkr+1e8+F3zxx1mxcpx4+uaf/N65o+L+ouFino8+Agar/kHz9PxagkKY5rLxsOmtw5xUM1UYwyhrPuKKuVh8z4VHyOaw+x1mm0rYThLSdgs7mM8oUddA+1pkyDYoTVlejMm9hmc5/1GVXOEgXB+9TlB9GqGaXzlM37zTpEeEDRw5GEhI99TqgvKpSd6iVli/So3nLalbovJw17/tPEscgKXdCCCHdB6ewsUGPFfyo/QYJCDIscA6M4qkzZ2jBAUPxWtOVFDccnI/r2MdcSAydMGGDNNnHtFH1V890OmGDuQ9RhI25DtzQ7OP4kJrrDMwf6ryXC7h1YJ4A/kePvT0SFOU6IFTYrPQJm0MJYXPzavI3jMXzl8954mC+xMMn9/X/4cJmhDjNYeVlI6kbYcBIw0IZcKuBOyaEKNKKsCj5LKnPcZWptO0EIW2noLP5HHeZBsUJq6tRwYhm2PyToDgYzfD3+v9y9nRGrl898Tpw3UX52MeOnz6mrt648kniGCTlTgghpPsQKmwAJlXaBq4Bfsr+Xn6AHmQM8dujFjAcYSxmKmzS3cumM8IGoLfaNjJh5OE5oggbAFc0TEY3vyF2/HNs0DuO1ebM73Rg3gdGzPBMeDb//AnpdQDmDPndzQxpXdGsSfQwFv2T3E+eOaEn+eN/ibBBmCTNUYxgSd2IAiY5o9zRW2uOSfNZUp/jKlNp20lHlHYKOpvPcZdpUJywumqDUTTUzd65A1LCwJz587S7khG6LsLi4LkvX7+U/I10YYENLDtsxwNB6emJ14FLGxYswbw++zjePRgF6uo4Bkm5E0II6V6kCBv06mNNf0zoxfKdmEyM5Tv9k6kBekTxYYP7DFa6wVr/JgyryMCdBR86fEywuhWMqEyFTdC9DJ0VNvjYoQcSoy2Fo8eoE7+e1BPqowobuPCh1x9zk/D8O/bs1Omyr1O1fJnOD7giQQRgTgpcoPwrteFZsboaevZttzCD9DoA98fIESbHQ7TZC0Rgwrpr8YCJ06Yl48BYhHCB0Q1jHAsDwEgwhrFU2EjSHMUIltSNICA0UM+xuh7mQ6H+I3224JDms6Q+x1WmnRU2QNpOQWfzOe4yDYoTVldtwubYQOD/lMgXV5ghLI5ZFhnucHB/2ndov25vrmWRg9LTU6/z69lftBDV797EuVh6GS6RdkdTV8YBknInhBDSvUgRNlgs4GrTFW3gv373Qt2+16wNYhg+9okAE0VhmEH44IMF49iEwRhDTx6W/sT8BRhlMEQyFTZB94Jxg2N+sFyuiSMxqmDYwRDqePNMuytgAjfSbo++SECvN4xFXAMCB/fAdfwCaeHiSj1SAkMAvZxYNtUeJTDAZx3Pky4d0utgcjx6JuF2hush700YXA7hnoHJ3TBs4SMPX3T7fBiLWOENm6CibmCEC8a3CZcKGxCW5ihGcFDdkAAXtEvXLibrPCbPY2U8fzxJPkvrcxxlGoewkbZT0Nl8jrtMg+KE1VWbMMMdZZBuARUgiQMqE+Lq/qMPG1lidAD1zhUvKD2gJ14Hc73wzsT7B+WJ9yY60+zvTlfGkZYpIYSQ7oXIFe1zBR86uCKk+6B/bsBYhDubK4yQ7kRcdRVLcWNPKleYQRKHZBcsU0IIyU4obCywZwhcsdBL13/wh9Wi4McftAzw5wSFDckW4qir6NnHKAP2NnKFA0kckl2wTAkhJHuhsLHAhm1wbYGrFtySMNEY8y5ccT9HKGxItsC6SgghhHx+UNgQQgghhBBCsh4KG0IIIYQQQkjWQ2FDCCGEEEIIyXoobAghhBBCCCFZz0cXNkGbZnYlrj00yKels3WDZUoIIYQQQgxOYYONKR8+va83XMMGnfPLyz3hUeg3aLDeJM/enNEPNhm0N4vMlKDr0AjufnS2bsRZplja9edjh/SO5Ni0D/UeGw/accLaBUQazsWGpOYYdi6/+6BZ/3/s9FEdJx1YYhbxsDGgOdbxul1vmOvaMT8sPSvX1ulr2McyRZI/hBBCCCGfkhRhs6xmhd55HjuiY2fvHXt2qvf/eaOmzpzhOTFOKGxIOrqiTLFnEQQCdk2fM3+e3o0f+xlhF34TR9IuICLe//lGrdu8IXnMFjb5RUX62qB6VY2Oj81fzbG8gqE6HoQNzisqLlbjpkxR23f/pO81bdbM5HUl6YlL2EjyhxBCCCHkU5MibO7cb1ZHTx3zRGq+d1OdPHMi+dtlUF6/1ai2/LQ1+Rv7v8CoMvjdjfrmDfaE2yyuXuqJG4T0OibNMDrbXzxW7R1PnIbZosUV+nlhXLa03lWr1q1W/+zTNyVeGDA47yXOx3WePGtVR04eTYkjuReMehj3386epZruXNe984/bH2qDF65c2pid4RWdMJrRs25fq7P3suOlo7Xtvqpa4RYh9ft3qzPnzuj/46ob0jINY1v9DvX63QttwLvCgbNdtDR52gXSd6rhpC7vL3P66WO2sLGZXTpPx4d48YehjGxxBJ6/atPXMr8l6YlL2EjyhxBCCCHkU+MRNjkD8rQhtKKu1hMJBuSjtgee32HCxiCZR9FVIzbYeLN+7y41avx4VVO3UqdrcklJMg6M5o63z9TCygpVMGKkmjl3jjZSl/vyI4zps2fr3vTSRQu0C0/xpElqrc9Qld4Lz/PmXYe63HhRC4xv+g9Uk6ZPV8PHfDCIL1w9r/Ye3Os558qNy/o5ze+47hUGDO2DRw86w1A/Vm9Y6znW2bohKVMJEB7Hf/lbEPhJ1y72HdrvaReIU1W9TF9v4eJKfayzwubrfv21ixkErGlf0vTEJWzC8ocQQgghpDvgETZDR47ShhAMYDsSDCr03pvf2SpsYPTZoxRwr8HIhfmNcMxbML8BjMNbd5s8x8LAqAUMbggDVziQ3gvPo/MvzagJDGk8txkhwHwVxJ8wdWoyTlz3CqO6doWee4H/R4wt1kKnd+4A1btfrvrj369SBEccwiasTCVASOzYtcMZBqTtAnEgIuEmhvaAY5kKGwhjuLUhDrj/6K7OL4RL0xOXsAnLH0IIIYSQ7oBH2Awbld5gQk+++Z2twubc5d89x3Sad3xI84CCAp1OF6/+eO45LwzMlXjwuEU9ffFIHT5xWPesm/kTIMq98DwwVv1uYwa4bSF81vdz9W+MisAFzoTHea8wxkyYoEcWcvIGqTUb12n3JaQLoz64LgSOHT8OYRNUplJguG+vT2+4B7ULW0ggDoQNxBxcxyDkMhU2GIWCyx7mtGAEbuTYcclwaXqkwqZmTZ0WUYaSOd95wsPyhxBCCCGkO+B0RfO7KMHFBT3h9m+/sMGcjO4ubILE2MD8oTqdmMxtx8mUr/rmqpLvZqtNWzfrOS2Y/4F7ICzKvfA8eC5XmOFUwyl16Phh/T9GYTYm7mnC4r5XEBBEWMULhvHFaxe0+x0M9NqEgX35+qWU+HEIG6nADqLl4e3YXNEgbPD/lp3b9HyXOObYYEW0h0/ua8GE33G7ouUOGqLTYfCPNIblDyGEEEJId8C5eMCRE0c8kWAs2xOVt+7c7jFUYdDCcM9U2Dxub9UT3l1hUQi6jsQIxkT5+n1/z02Ji5yBedq1aN7CsuQx6b0kYgNzeTCHBnmMvPbPiYnzXmE0JPIY9QP1CCM3WLDg+Onj2tD3x+1s3YhL2GDVMYxewcB3hQPp4gFG2AwpLNIC5XTD6U4Lmy++ydH5uP7HjcljXbl4gCR/DBhBhDukEWGEEEIIIV1FirDB/AC4o1SvrNGuRVgRCe5FE6dNS8YpLV+oja8RxWO10WVcWTIVNucvn9MGKtym4K70RZ8cZ7wwgq4jMYKrli/TAgTuXDA4sawtesWjrrQFoYH5JnAlgoGLEQtc1xYc0ntJxAaeFSMlEKCNt66lhMd5rzDWblqvOt48Swqpc5d+16Lru9LSlLidrRtxCRtcGwIKo45Ip2s5Y7O8MhYoCFru2QgbcPz0Md0uOitsAK6LfDR75EjSY4QNnscPFiUw8cKQ5I8Be/HgnnGNfBJCCCGESEkRNgATzbF0LwwlGCkVS6s84TAusRIX5hE8fHJPuz75DUoYnDjXD3qe7WsBGGYwyLHxH+LYxmEUgq4jNYKxmhUMOBiXz149VReunPeMtEiAC9qlaxfVi9dtep7JjeZGNacs1bCX3EsqNg4cOaifGctMu8LjvFcQU0pKdDpm/jXnR4veRD2ye/vjqhtxCRuQP7xIz4fCyCPyCIsg+Ot9XUIYol1gIQSMmJT9sMgT7k/fhGlT9bE4hA2ECJbwhoAxx8LSY4SNC9d9g5DkD6CwIYQQQsinwilsDH0GDNRL/zbdueGZ/E4IIYQQQggh3YlAYQMgbtB7DN95VzghhBBCCCGEfGpChQ0hhBBCCCGEdHcobAghhBBCCCFZD4UNIYQQQgghJOuhsCGEEEIIIYRkPRQ2hBBCCCGEkKwna4SNZDNHQgghhBBCyOdJ1gibfoMGq4NHf1b5RSOc4YQQQgghhJDPF7qiEUIIIYQQQrIep7BZUlOt2l8+Vd/OnqWa7lxXb//1Uj1uf6jGTZmSjLNocYVqvndTvXnfoVpa76pV61arf/bp67lOXsFQPcrS9vyxev3+pbpxu1F9V1rqiRN2nZHjxmsXNIPfFQ0uau//80ZNnTHDc7x6VY2+r30tSZoJIYQQQggh2UdaYfPmXYe63HhRi5lv+g9Uk6ZPV8PHFOvwxdVLVcfbZ2phZYUqGDFSzZw7Rz151qqW19Umr9E7d4BqeXg7IYxuqG9nzVKFo0ap0vKFqnb1qmQcyXUMQXNsLlw9r/Ye3Os5duXGZVW/d1fyd5R7EUIIIYQQQrKLtMJGiwhrhMbmUdsDVbd+refYyrV16tbdpuTviqVV6t2frwPnxEiuYwgSNlXVy/QI05c5/fRv3BNxJ0ydmowT5V6EEEIIIYSQ7CKtsIH7mctNa0BBgRYNLl798TwZD6MlGLGxz7WRXscQJGz65g3W6Z31/Vz9e/WGtepe691keNR7EUIIIYQQQrKLwDk29jHDwPyhWhDMLZvvDDfU79ul7j5odoYB6XUMYcs9n2o4pQ4dP6z/xyjMxq2bk2FR70UIIYQQQgjJLnq17YkmbAAWEoBwcYUZ/nZFK3KGA8l1DGHCpnTRAj2HBuGIZ+YDGaLcixBCCCGEEJJd9Hr2vzxTB1ZGEzZVy5dp0QKXr6LiYjVmwkS1oq5Wbd6+JRnHLB5wo7lRr642dOQovSIaViuLch1DmLDp3S9Xdbxu16M1jbeupYRHuRchhBBCCCEku+j17L8khM2kaMIGLFxcqZeCxtLJz149VReunFfzFpZ54pjlnttffFjuGSukzZk/zxMn7Dq/nW/QgsYPlm22rwMOHDmow+yV12wkaSaEEEIIIYRkH72e/U8JYVPtFTaEEEIIIYQQkk30atuZOseGEEIIIYQQQrKJXs/+z2fqwFoKG0IIIYQQQkj20qv9H+3qYL+DzkBCCCGEEEIIyQZ6tf8/CWHzFYUNIYQQQgghJHvp9azXM3VgHl3RCCGEEEIIIdlLr7aNXDyAEEIIIYQQkt30amtLL2w2bNmkHre36o0tp86Y4YxDCCGEEEIIIZ+atMIGm2tis8ultcvVP/v0TQknhBBCCCGEkO5CWmFTPGmSFjbDxxSnhBFCCCGEEEJIdyKtsBk3ebIWNoWjRqWEEUIIIYQQQkh3Iq2wmVxSooXNkMKilDBCCCGEEEII6U44hU3OwDy179B+1fb8MefXEEIIIYQQQro9KcKmemWNHql5/f6lml06zxOZEEIIIYQQQrojaUds9h8+oJ6+eMQRG0IIIYQQQki3h3NsCCGEEEIIIVlPWmHDVdEIIYQQQggh2UJaYTNmwkQtbLiPDSGEEEIIIaS7k1bY9B88RL3787VeTOCrvrkp4YQQQgghhBDSXUgrbMCajevU4/ZWLXCmzpzhjEMIIYQQQgghn5pAYUMIIYQQQggh2QCFDSGEEEIIISTrobAhhBBCCCGEZD0UNoQQQgghhJCsh8KGEEIIIYQQkvVQ2JBuzeDC4Xo/JWwY6wrvarpbegghhBBCyAeyQtjU79+tTvx6Uv/ffO+mWlJTnRKHBNOVeRjnvfoNGqwOHv1Z5ReNcIZ3NV2VHtZ5QgghhJBoUNh8JmSrsPlcYR4SQgghhESjRwib/YcPqN/ON3iOXb/VqLb8tNVzrHb1KnWv9a56875DPXnWqo6cPOoJB4sWV+h7IE5LIu6qdavVP/v09cTB/dtfPlXfzp6lmu5cV2//9VI9bn+oxk2ZosORnt8vnVU799Srpy8eqfaOJ2rz9i2ea0wuma7OXjyrw3B+c0uTWlhZkQyfMG2qev/nG/XzsUPq2aunau3mDepUwyn14nWbqtuw1nMtSZqlhnLOwDztbtW7X64zXELQvb7M6aeu3riijpw4kjz2db/+6sbtRnX4+KHksZHjxmuXL4PL9SssD8EX3+So1Yn8am27r/749yt1536zWlD5QzJcms+S9EjKHeVSv3eX6njdru+3LnE/1El/mVLYEEIIIYREIyuEzfofN6r6fbv0/w3nzqgFFeWecImwmT57tnr352tVumiBGjSsUBVPmqSNWPucxdVLVcfbZ9o4LhgxUs2cO0cLoOV1tZ54MDLfvOtQlxsvajHzTf+BatL06Wr4mGIdjvTAWK5aUa0NWQggGMOTS0qS15hfXq5Wrq3TBvLQkaNUde0K9f4/b7SxjnAY3DhnblmZqlu3Rv9fsWyJ+mFJlXr1x/OkcJGmOSwPDRu2bPrrvvOd4RLC7pU/vEgb9Xge/EZcCA7kox0PBM1pCctDgHtA8P2wZLEqHDVard20Xl9vwtSpOlyaz4ag9EjKHfeHaJpTVqpGFI9VpxtO63rpFzbS8iKEEEIIIR/oEYsHSIQNjM2Xb587jWfDo7YHqm6918CE4XzrbpPnGISNNm7/GqHxg/S0tN7xHMNvjKTYx/zcaP47zcbgxgjHmAkT9f/98wuShvWAggIdT5pmKXEIGwmzS+dp4YA8ef3uhRo1frwzXtTJ+nYeAoyoHUiUhx2n8ebV5IiRNJ8NYcImrNwxkoM8Nr/zhg5zChtCCCGEEBKNz0bY5BUMVQ8et2jD8vCJw2pFXa0+ZsJhwMJgdQED3MQDEDZwffL35huQHrhI2cd0enb8nZ7cQUPUlp3b9HG4sSFduObu/Xt0uHGRwv9FxcU6HX0GDFT9h+Tr//OLiiKluTsCly2kNcjNKkhIhOUhgJitXlXjOW/vz/tU461r+n9JPtvnhgmboHLPyRukz/WLRqSbwoYQQgghpHP0CGGz79D+FGGDnnpb2ICv+uaqku9mq01bN+u5KJgDMTD/g7jBX5fR6QKGOObYuMKARGghHMb11JkztLEMkXWt6Yrae3CvDg83uEdESnN3Q8+1STwv3MTs+TZ+goREWB4CLWxW+oTNoYSwuXlV/y/JZ/vcMGETVO7phE3b88cUNoQQQgghnaRHCJutO7ery9cvJX9jJAWixS9sbDBJHi5A8xaWJY+h19/Mawiis8IG6cO9v1+wIBkO0YU0RxE2CJOmWUrfvMH62r1zBzjD4+KnPfWq5eFtNXrCeNXx5pmqql7mjJdOSEjyEKR1Rftr4YiuFDYAozMbE8La/IYY64wrGlwrkaYgF0tCCCGEkM+BHiFsSssX6p5/TMbGKlg1a+q0sWoblFg0AJPLsbrVkMIiVbu2ThuUZsI/qFq+TB/DKlowcjHnAi5r/pWt4hixwWR5uEzBQMfoBdyycO+owkaaZildMccGYgTlVTxxkv6NRQBev3+ZSPuElLhBQiIsDwEWV3AtHjBx2jQd3tXCxiwe8F1pqSocPUavfIb0ZSpsUBeRniB3PkIIIYSQz4EeIWy+6JOjjdnnr9rUwyf3dI+436CEC9qlaxe1UYnJ6phkjpWp7OuAhYsrdS8/jE2s3HXhynnPqA6IQ9hAgGCU6cnzR3ruD4TI+cvnIgsbIEmzlI8tbLB6GZY6xtLb9nG4h2EEJ2dAnv6N/EM6/GDpY3NOWB4CCF0sqYxFFiB6cI/yqspkuDSfJemRlDsEGEbYMEqF+oqFH5B2f35IwflIx8zv5zrDCSGEEEI+F3qEsCEkW8FoE5YOz1RINiSEFPYFcoURQgghhHxOUNgQ0oVgryG4xQ0aNkz1H/xhVbfH7a0ZzZHB6A9Wv8PiCa5wQgghhJDPCQobQrqQwlGj9EpuWK0NbpG/Xzqr53254hJCCCGEEDkUNoQQQgghhJCsh8KGEEIIIYQQkvVQ2BBCCCGEEEKyHgobQgghhBBCSNZDYdMDudd6N/KGj649WD4WXXmvbAZLQe/9eZ/emwh71SDfXPHCiOs6neXg0Z/Vmd9/dYZ1lkzqfDbQU58rHVHr6ueWP58z3eU91lP4lG1H8i3g94JkSlYIm/r9u/UO7fgfGyJyl/VgMmm0XSk2pPfqynKX3Kti2RKdt2//9VI13bmhps+e7QmvqVupN0rtePtMb8CJDWGxMawdJwpz5s/Tm66OnTxJ9c0brL7O7e8JHz91qjp3+Xe9whq4dO2Cyhn4YYNTm6DrwEBw8evZX5JxpM8Vlp6u/FDlDhqiN33FUtp4dmyU+u2sWZ5zQFiaXXkD7PyRkF9UpI6cPKpaEunE+VKjrLMf4NLyRfp+meR7xdIqdbnxw6bGAJvfTi6ZnhovpF1EIazO++ls/qTDLmubqOUuzcM4kNxL2pbjKFNX/gF/HsbxHrMJqvNxPJf03RJGXNfJFFfbCSsL6XssLJ/jEjabtv3oqVvg6YtHzrg2H+u9AcLyUFLu0ueKUp/TtQtpPcwmO5zCpgeSSaOlsAm+F3b2x0th3eYNavSE8epA4hlev3+pCkeNTsZZWrtc/bCkSk0pKUkYFCXq52OH1B//fqXj29eSsnJtnbr/6K4zDEtEY2PPY6ePqlmJtE2aPl2nOWdAqkEQdJ0xEyZ6QNrf/flaLVpckYwjeS5JerpS2JxqOKWfGXv8YIntH3ds1S9tu7wkaZbkj4QRY4vVzj31auHiSm0UdIWwwZ5JOP/W3aaM8h1tdP2PG9WMuXN0PuIayC88i4kjaRdRCKqrLjqTP0HEVe6SPIwLyb0kbTmuMpXkYVzvMUNQnY/ruSTvFglxXSdT/G1HUhaS95gkn+MUNrfv3/LUs5Fjxznj2nys94YkDyXlLnmuKPU5qF1I6yGFTcyEZejhE4fV2Ytn1aHjh1X7y6fqyfNHqm7dGk8c9FwhTnvHE61um1ua1MLK1I9U7epVugKgYJ88a9W9E1HitLbdV1Ur3AWO5zhz7oz+/4tvctTqRMNCfHxY7txvVgsqf0g5B8+KZ/p29izd04a0P25/qMZNmaLDv+qbq3Yd2K06XrfrIfq1iUqeSaM1YgONpP3FY51Pm7dv8cSJKw8l9wLShoTekMGFw1XvfrnOcAlh90J6L1w5n/wNtwjUs231OzzxbLCBJj7ky+tqPcfxYcc9kD/4OKxat1pfz4Qjf/DC8mN/RPDiRK+Q+e1Cch0/KxJpRT0KykvXc0nSgw8V8hG9Q9hYtO35Y10H/PHC8iesziN9aFPLalYkzwEtrXfUlp+2Jn9L0uwnXf6EpdkGPWuuMpC25byCoTovkX/4kN243ai+Ky31xMG9rzZdUfMWlulndBkIUdIMcvIGqff/eaNqEwamOSZtF2FpltTVOPNHEscmXblHvY4rD4GkLOIoLz+utiwt06jpceVhnO8x3DuozkueK+wbJ323xHUdEEfdkLSdqO/DdO8xST6jzYR9CyRxIAAwwmAf8yN9b4TlocT+CctDablLnkvaTnE8XbuIUg8pbGIGvVD1+3bp/xsSwmBBRbknHMIGLzoICggGDFVjCHBu2fxknPnl5brHZ9zkyWroyFGqunaFfumjspo4GMbDS7500QI1aFihKp40STcCEy6Jc/TUsUSDPOg5x4CKCjGD/zGEiAaEXeihjNduWq+fYcLUqZ5zUHnQAwAXA4gZ7FCPXoDhYz70wm3Yskk9f9WmP6ZQ9BBO7/98k9Jow8ALCnlWv3eXGjV+vHZZQHrQq2fixJWHknuBsHI3IA9wvl3eUQm7F1w7Nm3d7DmGng4MM9vHDH0GDNQvRuTPhGl/l+ni6qXaDQQvRPSizJw7R4s/v/gBKEO8gP3HAQQh8vV0w2n9P0Rv1fJlzrhB17FB22l5eFvt2OV9Mdqkey5JevChQt1EuaP+lldV6g8E6pWJI8mfsDoPwwl1ENcy5wD0Vp279PdHJ0oegnT5E6VMQTqDQNKWe+cO0GnANeAugB620vKFujPBvtaWndt0Rw/+dxl5UdMM8ocX6XaGcjPHJO1CmmYQVFfjyp8o6QHpyj3qdYArDyVlEVd52aRry5IyjZqedHkYpQ2GvcfC6rzkucK+cdJ3S1zXiatuSNpO1Pch6r3rPSbJZ8m3QBIHAuD1uxdasED4oMzxfCYcSJ5dkodhZQrC8lBa7pLnktokQe1Cmh4gtce6Az1i8QAImwePWzzHIC6gru1jfm40N3pUKYQRDG6IBzueTVgcVPbb95r1/xi2hdDBBxAVCMrYGO+o8Bg6tM9tvHlVHTlxxHMMwgYfJzNC4weNZ6NVuYcUFunGZjdaCXhBPWp74OmhePj0vv7w2fH8ZJKHmd4rHXhxdVbYBIFeDVy/emWNbsx4oUA87z24V3+s7bh4+eClifh4KWG42A7Hc9et95YNXpZ4kdjHQLoPuUkPeqAglDFMjd5QvKDKfliUEj/MIDDgZY66Uzh6TEpY0HNJ04MPFV7SdrljNM9+EUvyR1LnMXcAHQkQ11/0ydEdCEiPuU7UPATp8idKmYJ0BoHkuTCPAmnMLxqRPOanZM53uj2hxx6/XUZe1DQDuC3h3fZ1vw9zG6TtQpJmQ1BdjSt/oqQHpCv3qNcB/jwEkrKIo7wMkrYcVqZR0+PKwzjfY2F1XvpcLvzfuLB3SzoyuU5cdSOs7WTyPnS9x6T5LPkWSOJg3hXuA/toTlmparx1Td9z0LBhyTiS90Ym7QvYZSrNQ0m5hz2XNJ8l34JM63N3pscIm7MXfvMcW7NxnXr45F7yNyZIQbmiAOHKhYlYUP+79+9JxoFbAQQSwnBNVEocM+GSOGMmTNCNBhUJaYDqNr6WuB8EDuLB+K9eVZM8D2DFF1Rg+xiEDc6zG7cBEyhRub9fsMBzHEOldqOVgBcUKr19DHm1ZcffL+K48lByr+4EhrKRzxhZml06T92806RGFI9VB44cTPkowoiAny38yRGOfDIf8wEFBfo6LjDUbl8HpPuQ4x44B0PR9nH0orjEfJBBYIMXnr9cDEHPJU0PPlQXrv49dA6QNgyf439J/kjrPHrPL1+/pOPCiMPHEJ0M+BgjPGoeAlf+RC1T4DIIpM+F3ssgQ6x/foHOT4wgmGP+j1kmaUbnAa47LJGv5pi0XYSl2SZdXY0rf0CU9IB07SLqdVx5KCmLuMrLENSWJWWaSXpceRjXe0xS56V1VfKNC3u3xHWduOqGpO1k8j50vcek+Rz2LZDG8dN/SL72cIEHDH5Lnl1an8PKVJqHkvrjx/9cknyWtAuQSXq6Oz1G2GAFGPsYfDEfPrmf/I3KBtGACVKYjwFj+1rTFa1w7fNQYbBKDIb44GeJBjAw32uYB8WBAIFih1K+mKggGJbEBxB+zqg85hpa2CTUtvkN4EuKURv7GIQN5tjYxwwQT6iMGGK1j2MI1TRaKXhB+RukFhtWD1NceSi5V3cDPSKYVGcf++Xsaf0SsI/5wQvHjMwhD1Be0pEllGE6QYJh85/21HuOYZjYjBbaBF3HgKF19NLAhdAV7sd+LiBJj/5QWT7BAD1b5kMlyZ+odR7uNkZY4wNjv9Sj5GG6/IlapsBlEEifC+m7+yA1fQa4guI6cHM1IN0A/2NVo6hpRm8n0lFUnDrhXdIuwtJsk66uxpU/IEp6gtpFlOuky0NJWcRZXi78bTmsTKOmJygP43iPSeo84knqqvQbB4LeLXFcJ666IW07UcoCuN5jQJLPYd8CaRwXmK9spgNInl1anyVlGiUPg+qPC/u5QFg+S9uFIWp6ujM9Rtj4hyxPnjmhfr/0QSXjOArTVu0wvmFwu140BkxKx3mYdOUKB644DYkGsHXndl0R0bAw0er46eNa7Zs4aV3RfBPtg4QNwDCr7dON+0F12y8sCWFiI848jFvYoFcG7iBw+XOFxwHSawtT5AfcOLb7Jur5wQRDTCg0v9HTgxedHScd6T7kAC98+Arbx7CMapSeThv4vuODgSFuV7gf/3NJ0oMPlcu1wO6Vk+RPJnUe7geoh/Z5UfIwKH+ilClIZxBInutv9yfvR8mANgCD1ubKjcv6WfG/Sb80zZiICjcN10o7QNIuwtJsE1RX48gfECU9QeUuvU5YHkrKIq7ycuFvy5IyjVLng/IwjveYtM6HPRd+ozyjfuP875a4rgPiqhuSthOlLEC695ik/ki+BZI4fjCqgpENezEiybOH5aG0TKPmIXCVux/Xc4Xls7Rd+JGkJwhMQ4DwC5qO8LHpMcIGFRUVE5PMMDEf81nsSgiRgSFDFD4KFEsWovDsSokeJcyRwTA9ChejLIhjJupL42C4EHsEmIaCSVhQ8navASZrQTXDn9FePGDitGnJOCBM2MDlAKMi8L3Es+3Ys1Nfx260EiRiI648jFvYfOw5NsAsrQj3Qix4sO/Qfl1+xoCAbypWDMHkQ5Qhhn/xYsY5dj3ERELkB3qe8HIxfriuVeHSfcjB/PJy7fKIc5G3VdXLdBtwrawXdB2AFyB6fzBh0R8mfS5JenCebqd7vZNBMeHaxJHkj6TOYy8BtB2kGfUCxhtcJO1lN6V5GJQ/QJJm5COOA7gKnGo4qf9HfBNH8lxIC86HbzdWSkRvON4rfrdWG5f7gSTN6HnEe2tuWVky7QAfLRMnrF2AKGkOqqtx5Y80PWHlLrmOJA8lZRFHeUnbsqRMJekBYXkY53vMxlXnJc8l+cZJ3i1xXSeuuiFpO5KykLzHJPks+RZI4sBlCulDHmIuytUbV3QbwAIAJo7k2SV5KClTSR5Kyl3yXJJ89uNqF5L0RAHXQrrw1xXeFfQYYQOVjIaAOS3wfUQFteOgokLdoucIhYYKC/c1u1LCfQoTqfAixnXwwUKlsq8jiQPfZRQsKh5+16yp05UdqtvEwSoxcJdD7xoaB14SaLgm3IDKESRs0GuAxoZVP9B4IQ7wfHajlSARG3HlYTYKG1CZEMxY7x0vV7hv4FlNGMoTw8QoA/SswB0RSyxiUyz7GgB7AGDEDi8h9LCgB8U1Khj2IccSjQjHdeASA0Hpihd2HfNSxypK/rAozxWWHrRPlDtewPBdRm8cXsp2HBCWP5I6j9X4UEZYghfXwIcCQtuEGyR5GJQ/hrA0G19vP7Yrk7Qtw10AeYmeSDwfek4x2dSOY+P6mIGwNOM96kqz3d5BULswSNMcVFfjzB9JHEm5h11HmoeSd0JnyytKW5aUqSTNkjyM6z1mk67Ohz2X5BsnebfEdR0QR92Qtp2wspC8x0BYPqPNhH0LJHGOnz6m3cpwH9R/rArm3yNK+uxheSgpUxCWh5JylzwXkLRTG1e7kNZDKViEAXXC2L+fgh4jbLC8niuMEEIIIYQQ8nHBVAyMMLnCugoKG0IIIYQQQkjGwEUPo2tYYMEV3lVQ2BBCCCGEEEKynh4hbEh6MKE0CP+mVIQQQgghhGQjFDaEEEIIIYSQrIfChhBCCCGEEJL1UNh8pmD5zTCGjRqVMcNHj8kY1/WkFIwYkTFDEs9s48o3QgghhBDSPaGwyRBseoa1usdNnpwShjXMzfru9ft3p4R/SlwCJh0u4SDFJVikuK4nxSVYpPiFTRQKE+nOFGzslymuMiaEEEII+RzJCmEDcYAdk/F/872bn3RHU0O/QYP1BlL5RSOc4QCbIQUJm658LnMvl4BJh0s4SHEJFimu60lxCRYpLsEixSVYpLgEi5TC0aM12PTUlLU5Fkbe0GFOwjb56g50x3cCIYQQQj4tFDYfke4mbFziJQiXcJDiEixSXNeT4hIsUlyCRYpLsEhxCRYpLsEixSVqbFz1qLtAYUMIIYQQPz1G2CxaXKHD3rzvUC2td9WqdavVP/v01WETpk1V7/98o34+dkg9e/VUrd28QZ1qOKVevG5TdRv+Xu54csl0dfbiWdXe8US9/ddL1dzSpBZWViTDwchx45NuZulc0QxxCZucgXna9a13v1xnuAQKm3BcgkWKS7BIcQkWKS7BIsUlZroCV1qkuK4npXdu/xRcbYUQQggh2UlWCJv1P25U9ft26f8bzp1RCyrKPeGLq5eqjrfPtAgpGDFSzZw7Rz151qqW19XqcAgbiJC5ZWWqbt0a/X/FsiXqhyVVepdUI4Dml5erlWvrtFiB0Vhdu0K9/88bLXjs+4GgOTaGMGET9lyGDVs2/ZX++c5wCbiXS7wE4RIOUlyCRYrrelJcgkWKS7BIcQkWKX6xEgWX8S/FZfx3Ba60SHFdT4pL2BhcbYYQQggh2UWPWDzgUduDlI0mIVBu3W3S/xth82VOPzVmwkT9f//8gqQ4GVBQ4DnX5kZzo9ry09aU43EIGylxCBvgEi9BuISDFJdgkeK6nhSXYJHiEixSXIJFikuwSHEZ/1Jcxn9X4EqLFNf1pLgEjcHVXgghhBCSXWS9sIEogdHvAqMxiGNc0fB/UXGxDuszYKDqPyRf/59f9GFp39xBQ9SWndvU9VuN6nH7Q/X0xSPtkrZ7/57k/QxdKWzipG/eIDEDE+IvUwYMyZzREyZkjEsoSXEJFikjxo7NGCxAkSmjxo/PGJfxLwX1P1OGj0nkd4a46qmUr/v1D8TVXgghhBCSPWS9sBmYP1QLjKDRjHBh82Fls9/ON6jGW9fU1JkztAGWVzBUXWu6ovYe3Ou5HkA4hU16XIJFikuwSHEJFikuwSLFJVik+MVKFFyCRYpLsEixhUpUXIJFiqueSnGJGRtXeyGEEEJI9tAjXNEwumLmqriQCBvMs3n352v1/YIFyfO+6purFxLIVNicbjitDljL8GZK37zBOo29cwc4wzPBZfj5cQkWKS7BIsUlWKS4BIsUl2CR4hIsUmyhEhWXYJHiEixS/GIlCi7BIsVVT6W4xIyNq50QQgghJHvoEcKmavkyLUpWb1irhQvm0ayoq1Wbt2/R4dIRmzv3m7XbGUQO5uPs3FOvr5upsMGKa1jEoHjSJD3683WGvvxxzbEJ4os+OTrfQMvD2+pUw0n9P/LLxPn17C+q7flj9V1pqSocNVpVLK3Srnobt272XAsCDCvObdr2o+e4TVicmd/P1c+8ZuM6bYTvO7Rfr3iH+0aJI0nz0VPH1ILKH9TEadOcokWCS7BI8YuVKNhCJSouwSLFL1ai4BIsUlyCRYpLzNiY+kAIIYSQ7KTXrFmzsl7YgIWLK1XTnevasMWSzheunFfzFpbpMKmwgSF/+fol9eT5I/XgcYsWRucvn/MIG7ir4Rw/WK7ZxDF803+gOnLyqHr59rmOk+leG10hbDAqZD+P4e6D5mQczEGC8MNiDa/fv9TLamPpbLOqnMEITSxAYB+3kcSpXLZE3X90VwuRm3eanBtHhsWRpPn46WNagOIamFeFpcBHjP1b0IGw/Pnimxx18OhBff037zpUx+t2dbXpiiotX+S5Dq7vuo6pYxC/D5/e1yv22efZUNhkhkvMGFz5TAghhJDsoldNTU2PEDaE9BQwCggBhNX4MMqE0cNBwwpVzoA8TzyJsLHjh+ESMOlwCRYpLsEixSVYpLgEjcGVH4QQQgjJLnqEKxohPY1Bw4apn/bUq5bWO+r1uxd6RGnG3DnOuHHjEjJ+XIJFikuwSHEJFikUNIQQQkjPptetW7cobAghhBBCCCFZTa/evXurHTt2OAMJIYQQQgghJBvo9T/+x/9QlZWVzkBCCCGEEEIIyQa0sNm4caMzkBBCCCGEEEKygV779+/nHBtCCCGEEEJIVvPZrYqGVZmwb0jQxpqEEEIIIYSQ7CIrhE39/t3qxK8n9f/YCDPdRpftL5+GboLZb9BgdfDoz8lNOT81kjR3FdJ8joOwe1UsrVKXGy+qF6/bNNgodXLJdE8cHW/ZEnWv9cMGnU13bqjps70bdEqvY8CGmhC+Z37/1RkeRlh6aupW6o1kO94+Ux1vnqlL1y46Nx4NI7+oSG/+ig1Bkd79h1PbsNn808+vZ39JiRtEXGUhQXKvqGWaDkkeSu/VlW2HEEIIIW4+O2HT3aCwcd/rt/MNav2PG/XeLVNnztBCAzv6jxhbnIwz8/u52iBdt3mDGj1hvDqQMExfv3+pN7WMch1DwYiR2jC/dbcpI2EjSc/S2uXqhyVVakpJScJALlE/Hzuk/vj3Kx3fvlYYSP/OPfVq4eJKbZi7jPIxEyZ6wD3f/flaLVpckRI3iLjKQoLkXlHKNAhJHkrvRWFDCCGEfHqyXtj0zRusDSoXi6uXJuONHDfeE+Z3RZswbap6/+cbbWg+e/VUrU0YaKcaTule2roNaz1xYRgiHW/ed2iDaNW61eqfffp64tSuXqWNZMTB5oroGTZh0jSjZ/jsxbOqveOJ7gVvbmlSCyv/NkqlaT584rC+zqHjh7WQevL8kapbtyYZbpAaZzkD87RLX+9+uc5wCVENwZy8Qer9f96o2rV1yWMwOi9cOZ/8jTLAs22rT798ues6AOdebbqi5i0sU+cu/56RsMkkPV/m9NNiY3ldrTNcAkZHXEa5nxWJe6CedKbcQGfLIkr9SVdeNkFxpPeS5mG6e1HYEEIIIZ+erBA26DGt37dL/99w7oxaUFGeEgdIRj/SzbGBSMDxuWVl2ujH/3CtQe/6qz+eJ4ULhAfciCAw0MM/c+4cLVxswxQuODBWSxctUIOGFariSZO06DDhNkFpnl9erlYmDCikdejIUaq6doU2qowrjDTNEDYIq1pRrb74JkeNnTxJvXz7PHHefM/9pPm8Ycumv+7rPT8K0nsZ8ocX6XuWV/29NDkE3Katmz3xIOwuXbvgOWbjug7YsnObFn74P1NhEzU9fQYM1KIYZYqydMWRIDHKUe4tD2+rHbs6v2dVZ8siSv1JV142QXGk95IKm3T3ilqfCSGEEBI/PWrxgDiEDXrQ4baD//vnFyTjDygo0PEetT1Qdeu9IzgQH3BfMr8hICAcvuk/0BPPRVRXtBvNjWrLT1v1/9I0Q9g8eNziuc7Bowf1KI59TEocwiYqGJW6fa9Zfd2vv/6NZ0YaqlfWaCMShjUE296De7UB7z/f4L8OKJnznXr49L7ujcfvTIRNlPSMHDtOj7QhPkZQ4MZlh0dFYpRDgENAFY4e4wyPQmfLIkr9cZWXn6A4cQsbSXoIIYQQ8mmgsPkLiAQYm/i/qLhYx0GPev8h+fp/TDSGUMD/LjBCYq6VVzBUC4mnLx5pUQEXIBwz4TZBac4dNESPJFy/1agetz/U14NL2u79e3S4JM0I065oF35LXhes2bhOPXxyz3OsuwLjFG5Nw0aNSh77qm+ufkZMxp9dOk/dvNOkRhSPVQeOHEwrbFzXgRDEsW9nzUoeSydsatbU6fw2QBCZsCjpgVEM10jMeUE4ytYvOILu5UdilON58FyusCjEVRYSXPfyI4kjQZKHcd2LEEIIIR8HCpu/CBcJI9TA/KH6f0lPM4w9rHYF9xzMw8E8GZzvjxeUZsxbaLx1TWHSMtINcXSt6YruCUe4JM0Ig7DBak7mugCTvB8+ue851h3ZmMg/uPrh+fxhGBn4cceH0SvDL2dPO92f0l0HboPIK8yFMsCNEOB/Iw4BhCbON/hH5KKkxwZCAJPt7WNh97IJM8rhxmhcI13hUuIqCwlB9zJI4kgJy8M470UIIYSQj0OPEjaP21tV9aoaZ5ihM8IGYehdN770UjCBGYYlJqb7w9KlGfNjcM73C/42RiGWIJAyETZtzx8n59yAk2dOqN8vZeaKhsUPcO3euQOc4XGBiedw/Uu3shaE3+Xrl5K/8Xxw7drum7AedB08A/LO5sqNy3oiPP6Hm5X/nHRI0+MHi0IcO/334hJRCTPKMa8GIw1RnsVPXGUBwupP2L2AJA6Q1tWgPJTeSwIEKt5BEjdVQgghhESjRwkbjErAwILLGFZB+qJPTkqczgqbquXLtOBYvWGtjoe5LXA127x9S/Ja6BnHRH+4Gw0pLNIrKOGc4WNSe3uD0nznfrN2O4ORCKMUS9PiOpkIG8SDIEMasMAAlhi2RVMU4JKD63/MOTY/JZ4VizRgYQSzXDFA+Zk4ZolhuNWNGj9e7Tu0X4+y2Aao5Dp+Ml08ICw9KFusnIWFJyZOm6bd37CnEs6JWha4lnkWuHudajip/0c9sOPBoMdoyqZtP3qORyGusjAE1R/JvaKUadC9JHmYSf0JAqOzSE/YyDIhhBBCotOjhA0mLMN1C/tnwHiwl06GeMAxP1iaFeFSkQCw7wU2WYThhl5p9O7bozFwQcPGizAoX797oSf8zykrTYbbBKUZBhR6wdHbjjk7EE8QQpkImzPnzmgjGunBXB0IM3OfqHSFsEEacQ8/5tkNlQmRdv/Rh00h4dLl3+xSeh2bTIUNCEoPVibDog1wTcReKB2v2/US09gU1L6GhHRLht990OyJZ4Q4VvOyj0chrrIwBNUfyb2ilGnQvSR5mEn9CQILj+D8zi4YQQghhJBUepSwIW4gbE43nHaGEUK6jobzDerqjSvOMEIIIYR0DgqbzwAKG0I+PXAnxeqJWAzEFU4IIYSQzkFh8xlAYUMIIYQQQno6FDaEEEIIIYSQrIfChhBCCCGEEJL1UNgQQgghhBBCsh4KG0IIIYQQQkjWQ2GTIdigD/tR+Df6JPHCfCaEEEIIIRKyQtjU79+td2zH/9hQ82Pv2t3+8mnoPfoNGqw3vLQ37vwYdOWzd3U+S4grnyVlGgfdMQ8JIYQQQj4HKGwcdJURLOFzFzZxQWFDCCGEENKz6RHCZnLJdHX24lnV3vFEvf3XS9Xc0qQWVlZ44oC8gqG697/t+WP1+v1LdeN2o/qutFSH9c0brF2eXCyuXpq8xshx4z1hLhepL77JUas3rFWtbffVH/9+pe7cb1YLKn/wxNl/+ID6/dJZtXNPvXr64pFO++btWzxxgNRQzhmYp922evfLdYZLkNwLxyASvp09SzXdua7z+3H7QzVuypRknEWLK/T5b953qJbWu2rVutXqn336JsPxf/3eXarjdbt69uqpWrd5g7qXiFeXyDMTR5LPoHb1Kn0u7vXkWas6cvJoMkxapiAszUDy7BQ2hBBCCCGfhqwQNut/3Kjq9+3S/zecO6MWVJR7wueXl6uVa+u08Tt05ChVXbtCvf/PGy14TJzeuQNUy8PbCYP0hvp21ixVOGqUKi1fqA1j+1pA0rsfNPejYtkSbSD/sGRx4j6j1dpN63XcCVOnJuNA2Lz/842qWlGtDWgYy4gzuaTEc62wZzds2LJJnz+3bL4zXILkXsiXN+861OXGi9qg/6b/QDVp+nQ1fEyxDodg6Hj7TAvLghEj1cy5c7TgWF5Xm7wG8uPF6zY1p6xUjSgeqzcPfffna4+wMQTl8/TZs/V5pYsWqEHDClXxpElqbUIk+eOBoDKVpBmEPTuQlhchhBBCCImXHrt4wI3mRrXlp63J3xVLq7QRLJmr0Vlhg978AwnhYh9rvHlVHTlxJPkbwqal9Y4nDn5jpMA+JiUOYSMB+aKf2xqlsHnU9kDVrfcKFIjOW3ebkr8xQoX0mt95Q4dlJGwgCl++fa4Fhj/MT1CZStIMwp6dEEIIIYR8OnqEsMkdNERt2blNXb/VqF2DYDjDTWj3/j3JOHB9woiNfV46OitsYGxXr6rxHNv78z7VeOta8jeEDdzn7DhI/5Ydf4ux7gjyBXnrd9MCAwoKdJ64ePXHcx0nJ2+Q/u0XYCizqMIGroUPHrfocw+fOKxW1NXqY/54IF2ZStJsCHp2QgghhBDyaekRwua38w1aNEydOUMbwjBurzVdUXsP7k3GgXvQ3QfNnvPSEYuwWekTNocSwubm1eRvCBuk246jhY01ytQdQb4gf1xhA/OH6jwJGjVKJ2ww7ymqsAFf9c1VJd/NVpu2btZzYzBXCenwx0tXppI0G4KenRBCCCGEfFqyXtig9xxuTN8vWJA8BmMXBq4tbP52RStKHkvH4/bWlBEXP0EGd1pXNGtie9zCBhPl4WaHuUSu8LgIM+4xYmbmmKQDIywbE0LE/IYQzcQVzQ8WUMB15i0sSwkLKlNJmkGcwgbuc3g2iRsdIYQQQggJp0eM2GDVMbidQeR8mdNPrzQGA9cWNmbxAMy9wUR9LDKAFdFcxu75y+e06ICbElYZ+6JPTkqcIIMbk9FdiwdMnDYtGSduYdOVc2yCjPuq5ct03mNVuKLiYjVmwkTtImav+GYWD0D+F44eo1cRQ35FFTZYNAALRWAFtSGFRap2bZ2+tz2Z3xBUppI0gziFDa6F58JfVzghhBBCCIlGry+//FLNmDHDGZgtwBC9fP2SevL8kZ5zAYMUhqwtbIBZ7rn9xYflnrFC2pz58zxxwNjJk7RrG+LA+LSXBoZxjGN+sLSviYPlnrGEMSalw2CGoCqvqkyGg54qbMDCxZV61ApiBcs5X7hy3jOKAvGJEZKON8/U81dteuI+ys1eoU6Sz3BBu3TtohZJr9+90KIVK62ZcJugMgVhaQZxChs8M9Ix8/u5znBCCCGEEBKNXtu3b1f/+Mc/nIGEdAUYacMyyh9blHUnGhLC7eqNK84wQgghhBASnV43btxQ/+2//TdnICEfA+wVAze9QcOGqf6DP6xohzkwn8t8E4xYYcU1LHbhCieEEEIIIdHpdfv2bQob0qVgc1S4hWH1OLiR/X7prJ4n44pLCCGEEEKIBAobQgghhBBCSNZDYUMIIYQQQgjJeihsCCGEEEIIIVkPhQ0hhBBCCCEk6+kRG3R2N+613k3uu1K/f7czDiGEEEIIISQ+skLYQBxgd3r8jw0as2W39nOXfw8VNtjwMeh5uvLZszWfuwrmDyGEEEJI94XC5iNCYdOzYP4QQgghhHRfeoywwTGIhG9nz1JNd66rt/96qR63P1TjpkxJxlm0uEKf/+Z9h2ppvatWrVutd723r1O7epV2JUOcJ89a1ZGTRz3h+w8fUL+db/Acu36rUW35aavnGEgnbPrmDU66qvlZXL3UE1dqTOcMzFODC4er3v1yneESJPeKK3/yCoaqg0d/Vm3PH6vX71+qG7cb1XelpZHjxFGm0jgUNoQQQggh3ZesEDbrf9yo6vft0v83nDujFlSUp8SBkfnmXYe63HhRixnsYj9p+nQ1fEyxDodg6Hj7TC2srNA738+cO0cbsMvrapPXmD57tnr352tVumiBGjSsUBVPmqTWbt6QDAdxCBubsBEbybODDVs2aWE0t2y+M1xC2L3iyp/euQNUy8PbCQF6Q307a5besLO0fKEWF1HixFWmkjhAWhaEEEIIIaTr6TGLB0AcwLC3R2hsHrU9UHXr13qOrVxbp27dbUr+rlpRrXfDhyiy49l0tbCREoewCSOu/KlYWqWFRH7RCE88G0mcuMpUEocQQgghhHRvepSwgfuZ3w0JDCgoSLp6+Xn1x/NkPLg+PXjcop6+eKQOnzisVtTV6mP2tbqrsOkK4sqf+r279GiMHcdPWJw4y1QShxBCCCGEdG96lLCBSHCFDcwfqg1eyWjGV31zVcl3s9WmrZv1nI32jif6fBO+79D+FMMdc3o+B2ED4sgfuHPdfdDsieMnLE6cZSqNQwghhBBCui+fhbABWEjAzI+Qggn5cIeat7AseWzrzu3q8vVLyd8YIYIR7BI2pxtOqwOHg/P2cXurql5V4wyLAhYkgNsW5qa4wj8GmebP325mRcljfiRx4ipTP5I4hBBCCCGke/HZCJuq5cu0sbp6w1pVVFysxkyYqF2ONm/fkoyDyePVtSvUyHHj1ZDCIlW7tk6fYxYg0HHKF+qVs0YUj1VffJOjatbUqfd/vnEKm7rEvTCZHZPR4dr0dW7/lDjnL5/TIxxwrcKKZl/0yUmJI6Er5tjElT9mYYAbzY16FbuhI0fp1c5sgSeJE1uZCuIQQgghhJDuzWcjbMDCxZXaLQqG97NXT9WFK+c9vfJwRbp07aJ68bpNvX73QhvVc8q8ywtDeOw9uFc9f9WmHj65pzZu3Zx2jg0mo2PZYExMh+hwuZyNnTxJNd66ppczRhz/cs9SukLYxJk/EHpYyrn9xYelnLH62Zz58yLHiaNMJXEIIYQQQkj3pscIG0IIIYQQQsjnC4UNIYQQQgghJOuhsCGEEEIIIYRkPRQ2hBBCCCGEkKyHwoYQQgghhBCS9VDYEEIIIYQQQrIeChtCCCGEEEJI1pMibJbVrFB//PuVamm9qxZUlHsiE0IIIYQQQkh3xDli83W//qp+3y69a759nBBCCCGEEEK6I2ld0bCDPXay/2efvilhhBBCCCGEENKdSCtsZpfOo7AhhBBCCCGEZAVphU3JnO+0sOkzYGBKGCGEEEIIIYR0J9IKm8GFw9W7P1+rFXW16uvc/inhhBBCCCGEENJdSCtsQE3dSvX+P2/0yM3UmTOccQghhBBCCCHkU5NW2AwaVsgRG0IIIYQQQkhWEDrHJmdAXkoYIYQQQgghhHQneu3atVOVly9MCeCqaIQQQgghhJBsodfNm01q27ZtKQHYxwauaBQ2hBBCCCGEkO6OU9j0zh2g6vftUg+f3PMcJ4QQQgghhJDuSIqwqV5Zo0dqWlrvqnkLyzyRCSGEEEIIIaQ7ktYVjRBCCCGEEEKyBQobQgghhBBCSNZDYUMIIYQQQgjJeihsCCGEEEIIIVkPhQ0hhBBCCCEk60krbE43nFbv//NGvf/zjVpQ+UNKOCE9iY1bN+u6jk1pN2370RmHEBcHj/6szvz+qzMsE7B32N6f96lnr57q+rj/8AFnvK5icOFwnY5xkyc7wzPhXutdVbdhrTOMEEIIyZRAYXP4xOGU4yC/qEgdOXlULwmd7sOL4y5+PftLSlzDF31y9DXXbd6gfy+uXqrPOXvxrCfOk+eP9PE4P7Qu/OkBFUur1OXGi+rF6zbN+cvn1OSS6Z7zdLxlS/TH++2/XqqmOzfU9NmzveHC6xhKyxfpZ87EgIorzRIk94r67OmQ1MOo97p+q7FTwqZ+/2514teT+v/mezfVkppqT/jeg3t1WgGE1MOn97URO6CgwBOvbv1aHYayuH2vWc0vL/eE9+6Xq8UYyuv1+5fqUdsDdfz0cZ0nCD92+mjyPi42bNnkuV4UXO2iu9L+8mlKGXQG17PHLWzmzJ+n3rzvUGMnT1J98warr3P7O+N1Ff0GDdbPmF80whmeCV0lbDKpqxCWaCM1dSs9x/F+Qbrxv6R9Sdug9J1g43ouyftQgvQ6Ye86CXF+m+L4fply8BNktxBCuhcZCZsRY4vVzj31auHiSv3yc734xkyY6GFKSYneH2fR4oqUuAaEdbxuVzl5g/RvCJs37zrUk2etatCwYfrYzLlz1MMn9/XL5mMLG396wG/nG9T6HzeqGYl0TJ05Qxs0SCPyxMSZ+f1cnT58dEZPGK8OJPIHxmfhqNGRrmMoGDFSv7Bv3W3KyICKK80SJPeK8uxBIH5YPYx6r64QNjBcioqL1cix43TaYXzjg27iLKtZodtK7epV2rjdsWenHj1F+pPXSRg+aBcQPCPHjVcl383Wm+qOmzJFh8M4MW2velWNLtu5ZfOTx/IKhiavFRVXu+iuxC1sXM8et7BZubZO3X/0wYDuqXSVsMmkrkqEjaR9Sdug5J3gx/VckvehBOl14hA2cX2b4vp+mbIxSOwWQkj3IiNhY4OeEckLdEVdrXatQE+zKxwfkzv3m3UvtDkGYfPqj+f6Jbtq3Wp9DD1JMDzxEjPCBj08GNVp73iie2uaW5rUwsrUFxFevPhgfDt7ViLd13Xcx+0Pk8agjSs9LvBhgdFZmzBGzDG8rC9cOZ/8jWthlGlb/Y7kMT+u6wCce7Xpit4s9dzl32MxoDqb5pyBedo9JV1Z2qR7LpugONJ7SethWHq6QtgY48hQt26Nrs/oGcdv1Lujp4554qBOnzxzIvkbbclveKVjduk8fX0YTq7wKKRrF9I2CLGG58eIBIQZ2nMmcWBoIH8RB8YX3g9IG8IwyoHndYF3in0dyb0M6Z4dwgbtZ++hffp91fb8sacn3RCUZoD660qzXa+/+CZHrU4Igta2++qPf7/S6XG5CkvedWHpgWC20+HqSELafr90Vr+jn754pMt/8/Ytnjhf9c1Vuw7s1oY46u3aRN4gz/3CJig9X+b0U1dvXFFHThxJxv+6X39143ajOnz8UPKYTbryCgPn4XmDhI2NpH0FxZG8E2wkzyV9H4YRdJ04hI2fTL9NmXxzJYTZLYSQ7keXCBt8jFse3lY7dqV/yZT9sEh1vH2mcgcNSR4zwgYfVIxW5AzI0x/r4omTPB/a+eXlupcTv4eOHKWqa1fol6N/SBsvXvQGYegbH/hv+g9Uk6ZPV8PHpH5sXOlxkT+8SKelvKoyeQxD6pt8H51TDafUpWsXPMdsXNcBW3ZuU4eOfyiHuIRNZ9MMFwqcj95Hf5ifdM9lExRHei/phzwsPZ0VNuh9xMgJ/m84d0YtqPC6kLmMGNRXpClv6DBdx/E/Pqh2nH2H9mt3M/Mbht+phpMiN6U4hU26diFpg3ANQe9n6aIFatCwQlU8aZI2cu3rSOLgvYA0QDhhNBOjuBAly315BoJGbCT3skn37BA2cCGq37tLv0tQtyAkkCcmTpQ0w+B3GdAA7jYw/H9Yslj3Rq/dtF6X7YSpUz3xwt51UdITNMcGbQ7PXrWiWhuTEFKIO7mkJBkHbfj5qzb1XWmpHpE4k2gXOMcWNpL0oO3CyEQe4DfaGQx8PJuJYyN9h/vpDsLGfifYx4HkubpC2IS96zIh029TJt/cMCR2CyGk+9ElwgYfKRg5haPHOMPxAkEP7487tnqOG2GD//EBQ68gerILR43SLz/Xh9Zwo7lRbfnJez187PV5jhEam3TpcfHzsUN6DgR6D/EbPYu4R/XKGv2ixwsX7kT4eOEl6T/f4L8OKJnznXZRQC8WfsclbDqb5ijCxvVcfoLixC1swtLTWWEThm3EwICCuwNECtKEYxAFeF7/aAfqMoxl83varJna8Hv59rk2KmrW1CXdNf3EJWyitAvgb4MwfpHedIYokMSBwMMcJPsYRBU6P+xjIEjYSO5lCHp2CBuM0qA8zTGM/NhGVZQ0BwkbjL7AzcY+1njzqmckA4S966KkJ0zYtLTe8RzDbzPCDtpfPPaMLgwpLNLfA1vYSNODuoxvAq7/+t0LNWr8eE+4IWpdtTHCxsXHFjaud4KN9Lm6Qth8DDL5NmX6zQ0jzG4hhHRPukTYwBiHUe4KA3Czwseq/5B8z3Fb2JieyVnfz00RNui5wsgGjFK4W8AlAkbg7v17PNfDxx7HbQPERbr0+IHRjeHuYYn0mGNwu0Da0NuHj9nNO01qRPFYdeDIwbQvWdd1+ucX6GPfzpqVPBaHsIkrzRJc9/IjiSNBUg8l9+oKYYO8Ro81Rgvw/5Ubl3V+Ixxpw7EwYQNQbqgfeC645KAXFz7hdhwgMbwkBLULSRvEnIIHj1t0GN4tGJXyz/UJi4MJ1XgWF+ZdYRMkbCTpMQQ9O4TNhat/u8EAGO2oa/g/apqDhA2EGOZr2Mcw36rx1jXPsaB3XdT0hAkbe3EXgDqw5S/D27gFfr9ggScOXNaMsImaHnRwISxduQLpO9yFETZwY7LnW2CE9GMJG4SleyfYSJ8rG4VNpt+mj/X9CrNbCCHdk48ubNADbdw9XOEAvZAuX1hb2MDggOGBj45f2MC/Fh92TD7ERxhxrzVd0R8M+3r4EMLQsY+5SJceG/RAosfc9aFCj5G/R+2Xs6edw+LprgM3GTwj3E4MyEeA/zEx1Y4vIa40Swi6l0ESR0pYPZTeqyuETWvbfT1/AWmB65kdLnVF84OeXLQD14c4LmET1C6kbRBGCBY6gNsIeqVh4A7M94qJoDj4i2eRjBaCIGEDJOkBQc+uhY3l3w8wD8YIm6hpDhU2K33C5lBC2Ny86jkW9K6Lmp4wYYOyt49pYfPXSB1Gm3Eu3NDsOGiLRthESY+ea5OoV3gH+kepbCTv8HQYYdOVrmhB7wQb6XNlm7Dp7Lcp7u+XxG4hhHRPPrqwgX8qPvD4ILnC9dKm7zqcxoQtbGxsYYOPEF5Ado8gjBUYKJkIm6D0GPBhgZGZbsUVfOgvX7+U/I00wjd8u++DFHSd3rkD9EveBr14MKDwf7r8TEdcaQbohcXSr0ijPwyE3QtI4oCwexmC6qH0XqArhE06o9UAt8uwxQNc7DmwN8XABXEIm6B2EaUN2mBhCJyHXmhXOHDFwYiQ8e0P43F7a8oIRzrSpSfsnZDOFc0exYmS5iBhA8PW6YrmW/Qg7F0XJT2dETYArmhYpMH81hPEfXNspOn5aU+97oXHylcdb56pquplKXEk7/AgUI543q4UNmHvBBDlucK+y3G8V+Mijm9TlO+XhDC7hRDSfclI2GANfTM8j48Mhujxv/+ljZcmelKCDEV8lPGxcoVJhA1+wxCEywteZngRwVUBBkomwiYoPQBhcPmZW1aWzAOAj7+JY5aeXLNxnfYBR287ehjtF7fkOn4ydUWLK80GuAwgrquHVXKvKM8edC9JPYyaz91B2JjlnmFYpVvuGXUBKwdhkjaMPEw2xvKmrsnvcQibsHYhaYPo/UQ60TONeRZIP+LYi3dI4lQtX6aPYVQEz4TyxAiXfzUugCVzYfTA3QkrG6HOmDDJvUDYs6dbPKC0fGEyTpQ0BwkbvBPRLv2LB0ycNs0TL+xdFyU9aCu4R6bCBm0Yo2GYA4b6gfqM69nCRpIeCGc8OxaPwe/55eW6zo+ZMCEZB4SVVxhII9LX3YRN2HNJv8ugs+/VuJC8nyXfpijfrzAkdgshpPuSkbBJt5zq3QfeyY7mY4WVTuzjBryM8PJJN+lZKmzwIkRvDXpY4DOPjyEMmqjCJiw9AP74/ucG/ntVLlui96KAgQOfX7i72OHS69hkKmziSrMh6KMouVeUZw+6l6QeRs3n7iBsAIw+uKeYJX2xEpIdjsUC4JKDDzAmUWPCLc6BUWbHA50VNpJ2IWmDqE+Xrn3YjA9pxuICc8q8LkqSOAB7bGD0AulCzyxGMl0jPxCGcJGDAYw8wDvFhEnuJXl2CBsY9zCm8L7C6A0MLH88aZqDhA1cDrGUNHq48W6F4ela4U/SiROWHjyT3WYMWNrXxJEIG4zeQfRiZTQIHIShjtjCBgSlB65BWC7aHvkBcMNDHhj3LUl5hdEdhY3kuaTfZdDZ92pcxPltkn6/wgizWwgh3ZtOu6J1BrhWYX8DV9inoLulh3Q9H1vYZCOfc7vgOyG76KnlxXpICCEy0gob+POjtxi9RHGsT+8Hqyih1wj7R7jCu5rulh7StWBPBtR19NRhIqsrzufI59wu+E7ILnpqebEeEkKInLTChhBCCCGEEEKyBQobQgghhBBCSNZDYRMB1yRHP67zCCGEEEIIIR+TPur/B3KYQSd8f4YEAAAAAElFTkSuQmCC;" vertex="1" parent="1">
          <mxGeometry x="-330" y="1080" width="722.19" height="246" as="geometry" />
        </mxCell>
        <mxCell id="ixYg1scpjvnWDyzN9siH-4" value="" style="shape=image;verticalLabelPosition=bottom;labelBackgroundColor=default;verticalAlign=top;aspect=fixed;imageAspect=0;image=data:image/jpeg,iVBORw0KGgoAAAANSUhEUgAABIAAAAEcCAYAAAC/NM/FAAAAAXNSR0IArs4c6QAAAARnQU1BAACxjwv8YQUAAAAJcEhZcwAADsMAAA7DAcdvqGQAAGjySURBVHhe7d3fbx3HmeB9/Qm88AUv9iICcmEBe2HhzUUEBEhMQwFM2FiIgY0xE48hMMIbhxawliKMFUL2QCaEtUBoXmhoZS1zJYwdKjOO6I2VoWLLprVrIeQGsqnASmh79b7UOrZDxz+W3pUzXFnOPG9Vd1X3U93V5zQPD0Xq6PsBHkg8P/t0V1dXP11VveHP/7IkVQEAAAAAAIAbHwkgAAAAAACADkcCCAAAAAAAoMORAAIAAAAAAOhwJIAAAAAAAAA6HAkgAAAAAACADkcCCAAAAAAAoMORAAIAAAAAAOhwJIAAAAAAAAA6HAkgAAAAAACADkcCCAAAAAAAoMORAAIAAAAAAOhwJIAAAAAAAAA6HAkgAAAAAACADkcCCAAAAAAAoMORAAIAAAAAAOhwJIAAAAAAAAA6HAkgAAAAAACADkcCCAAAAAAAoMORAAIAAAAAAOhwJIAAAAAAAAA6HAkgAAAAAACADkcCCAAAAAAAoMORAAIAAAAAAOhwJIAAAAAAAAA63LpIAF399EP5ZKFN8enn7lOLPpeX/vYH8tDj43Ly1/Ny5ap7WLk6/7IcfvxR2dG3Xbbeca8ceM09UdvbcvLxo3Ki4vNX4sovH5Wt9zwiB55+WS4ufOEeDV18crts+fb35Dvff1RGTr/nHm3u6sKbcnLkEfnOnY/Iyffdgw2c3bdNtnwrjcdecQ+uY1c/m5ezTx+Sh+65V/b+sqp8NPDlonzwkft/I+Z1F0+Py8iPdsld397W2ncBAAAAALAK1kECaF6O/3WeUFhx/PW4XHafHPjyNXnsjvx10cTFlZdlr3rNlh++IB+4p2r5/XG5z7/3W/fKYy/FEzUiX8gVn7B6+w156fTLJn4uhx8/JAd+fFReKiUbPpQT38+XK5pYuGJ+353+NTvl+CX3eFOfy6mH88++64k33OOpT84elwN2uR4/LmfdcsUSQLHXeZef3pm9fuWxnN9mfPSCPKTff89xueiequdz83u/J1u+/QMZObvoHqvw5Zty+B71Xd//ea3y03T9ZGXabOPY8yoeeHo+eSUAAAAAANrNkwD69ZOy1b/mjsfllO41pOLUj+9Vn7ddRn4df90nV9znKhf/bnv+3jselVPvnpbH+rbLd5LQn9s49p52H+i9/3PZ4Z+/56hc/NI9rgRJhDvulbuy7y3HSLFn02uH8nXzrV1yQvUCyj83T7zEEkCx13lrmgAypg+E675+z5wvZPrx76n33is7nn5bGnXusj218tdvl6d+755ogAQQAAAAAGC13RBzAOkT5FaHHE0/oZIA+8blqRUmnUon2l/OyIGsB46JH70sV+RNOdynHqsZ3/m7N92HpnRiadcvIsmLz07LLt1zqUmU1+Hb8pTtuXLHvfKAWTdnb7gEkB16Z3sfVcQPVWLOhh1KF3udi5M6afPZjIz8lXqvie/8+LR88P6brudWMY7LLlUOvvPjn5df89q8KRu51hJAeZLvLvV9JIAAAAAAADFrnABqc+8fH6VeQG/ISHaSbOf2Wfn3Fk+0w54f+fxBZ/82fF8pst46P5CHfpwmIA6/8mH6ZksPS0t6/3wuZ//uURmZeFM+SLqifC4vqV5L37wr7O2Txvfkm/77TBw4m3yyyCtPZI/FwiZ3lp+8aZIA+u5Reb3Ym+q/HVVD5x6Xk8XnF07L3uz5WAKoec+Y5UQpQXb1bTn+/Xwd37XvNbnSZN01jEL51OsnK1eXxuWB0uv173xC/GaMvh8AAAAAAOXmSADpIU53HpLpLz+Xd14r9MpYZkxf0j1xwjl69DwzVy7NJK8/O/teJJnR/IRdn9wnQ5f0cLC+Q/LSLx5Xw7e2yUM/U8kj58ovVHJKDyFbiwRQKTln6GSHSmzkdOJjDRJA1pcfyqkffU/u2vmCvGPXHwkgAAAAAMANZP0kgGI9Q1y8fvgH2Qnu3on4az5ZeEMOf9d9VuEEO5gDZl8+AU5rdx9blKvFOXhmdQ+W8DvKwmRFwxP2z16Wvb7nkvtN+rfc9+Mn5IHi0K87dsrxt9O3J94eV6/ZLodn3eNWnQTQzx6N9ChqFI/KiXfd5zvXNwF0rzzwN+VhXY3jEflO9v5CAujLeTl7ViXV/LZ/7cnIbzdxlyprJrbGXvPwCySAAAAAAADX1fpJANmT3EhCwp7Q6hPcql4pj71S+Cz3DaU7e2XJmVZ7HxUTEOFdtJJoUwIomFT6Tps8UEO5/t0u2aHmprnruz+Qu7LnHpVT74tc/f247Ph2/prod139XD6Zn5cP3KQ0H8y+LC/9ej6e6GpRbHu1Hs0SQLHnmwm3SZ4AcncAM4/d97cvywd11kdQhustCwkgAAAAAMBqW18JoN+/UOqd8dTZxeAE156c57ccz+Pk7+MJoA9+uit7bxJtTgBdOftEnnjx0a4eQA166CSTQb9/Wvb+O/P39vFkWNI7OtHy7Xtlq0p8JfPWuI/NZJ9/r4z8On0on+B5pxz4W/V5y4pwHd2oCaDL/1AoO3/1ZOkW9yUkgAAAAAAA69AaJ4BysaSODZsAeuc/5kPAdk183vC1IXd3K/feJFRyZsVDwL58Uw4XP7/wHWXLSAD53ku2948eWqR7OL39hrz+mfu/LMqpH4VDkGx880en471XVJIhvbuYSord8YQcbzlx0xkJID/vT/7dJr69S546H7kTm7eMBFDS2+r0y3Lix3lPr+yuYf/weD4sre9xOZHMPXU0n//pW7vkcPJYxftny3NBAQAAAABuXusmAVSVJNj6V2poUxL3ynf6ykkOG8VkSnhnLhdZcmZRzj5ZTiI1j+NZL5DXRwrJgeA7qm5NHs43s3X745HXmHhOT+TzoZz8oX/P97LeOpmrH8rFiSfloXvi68XGN+2tz59+Td757Av3JitPfNz3H+26U3dL2z4u09H5f9R3ZHcwK0Y4D1CwbVf9LmBtTAAlPpfXn9wV3EXNl7OrnxWX08TE49nrtnzrB3L4vxVfkycQ9e302x4Nk5AAAAAAgJvNukkABexdul45Lrv61AltYUjTlr5dMvLL+Ybz1ERPsLMT45UPAfvkZ49EnjeRfEeYVFh2qBP4K6fVnb4ePu2Gci3KxZ8dlV3fD2/xnkXfTnlArz8dd26X+x5/TT4x6+ApP3H2j182n5kv89Yn3ki+peSs6uFSM8kQJIB07yWvrZNAV0y83DDCdRgmgFIf/OLRJBGpk4ytJXDy5ScBBAAAAAC4XtZVAujq+2/KyZFH5Dtq4mIb33n4uLx0+g15Z+ENOb6z0Ovmzp2y6/Bpufh+eVjO5WORXkVtTABliYs7HpXDI+q72pkA0ncCs3f4UsmPaK8psz4O+MTYl4vy+k+fkAf8+1Xs+KkdIqQmsLaJGZWIeehni+YnlO90dZf+rGRi6kg0uMvVqiSArpyWXdnzK49YAsi6Mv9eMI/SShNAF59Le3vt3Z73qsp6hP3NzjzpZ7bp3qRnmO49tl0ecr3Fou8PepABAAAAAG52a5oAuvrZe3Lx7M/l8I8fkfsiSYpvfveQvPTmG3L84XSOk7uSuWy+kA9+PR72DvLx7e/JfT98XEaePm3et+h6q9wrj+1TQ8Ha2jPiTTncd6/sPf15mORIvuNDed3N0RKGnsdFzdlSDDuHy5fzcnx7/lrbq2fHd7e7+YAekZOXXpPH3HpLTvyfTBNhV9OFyyU9qsblwA+3pz1d7nhUTrlMxvQTPnnwhJz99ZMu6eAmhW4wCXXDKCR5oomqliOSAAoSSCuPcgJoUU7+aKc89vTLcnEhH0I3PVJIfNloehv4xrfJf+DYe+mD+jdl61MlwtQ6Dt7PJNAAAAAAgIi17QH06yfLd9Cyc/z88Ek5aRM4jr4d+l2Pz7gExxdy+ZVxeUz1fshjuxyeNS95d1x22CFTOpGRJYDekxMPF0/O60R4Aj99Or27VjkBVCXsGdTwhP1L81o97C2ItKfMB7NvyDtJMkfN32Nia98P5KEfH5LDP31Zpt/+UD7xXVeufi7vXMonCM6Xe6c89aRPlD0iJ+08RzdKAihLXNnIJ0euH2FSrpQAKvQw2nvaPR7Twl3Azv5t/tnZd8cSQKY8l5NCJIAAAAAAAM2t8RCwz+XUj9IT12/eZedh+Z488DdPpENYdOzb5Ya+fE927Cs8Z+KxnWnPlm9+2yWDfvSyG6rzoXzwvvknmgBqz23gvVVJAOkhWj78sKvvj8tF96rE7NFgculYJMO6irJ1c6889EP3G+58UqaD59xyZkmJdB1kvzn5vfHeKVbey6gdUV7/wVxMfUfD9VJLOGH3yd+7hz0975FPjlVpIQH00o/965skgKK9gkgAAQAAAACaW/s5gBbec3emChMjrURy8nxlMe/t4t2wCSCRT359Wk6efVMuL0SGdmm2Z8+vX5YThw/Jru9vl7sK8yhlvaKKLr0mJybSXkIn/8a99ocvyCf2uTYlgHSCI7pudGKjhTmAgrl4skmy20f3QNvy3ePyjns8atkJIDUR97d+IE/5qXtiyZ5oOSYBBAAAAABobh1NAu16Yex7Qh5TvTEqY98jcp9OctyxXQ6fdx9VVCMBVJ73RWucgLBWKwFUYhNc82/K2dM/l5NnbY+eL+RqRcbD3qY8Swr98Ki87h4vufq5fLLwhozc45br29+Tu+40v/PpdiSAdILD326+YCUJoMIwuejnr0hYTirvjuYtNwH00QvyUPb6fG6mWAJIT2r+nb97M32dQQIIAAAAANDMOkoAGZ/NyMhfmRPZO7fLjh8dlRNn35QPismNj94O7xR2x73ywOMvy+VG3WNu0ATQB7Mvy0s/PSoHHn9UdvSVe/UESRk7NOz7j8qBkXE5mdwxrUmPIWP6734Q3tUrCPM7j7UhARQkOCqGoTVLAAVz8ITr/8ov1ATffvLqdnr/543nBypaZgIoWH49fK2UAAqHA+76RX7XOxJAAAAAAIBm1lEC6EM58X/nJ7g6vnnXLtk18mR+F6skbOLntFxsNB+LVyMB9M27/CTPsbDzE/nX1k8ARe8SFXyWidit1EdmkvcHnxkJe7IfzH8TiXQy6Cfl+MSMXJz/UK6orFD0NvlZPCFn1XprNQEUJmiqhqEVEkD/8oac+qmfoPm0PBXc+l+t/y/fkJF/5x834ecuaqNw/aY9dJptl1qRrDNT5r+vHzst77wW+c12fV55WfZmPZ12ylNvLsonCx+aeFOeUneKIwEEAAAAAIhZXz2AjKvvvykvPX1IHvqrRhMH3ysPHZ5xcwfVUCMBVD/qJ4CCuWmWE34ZTz8ef/6Oe+Wuvl1y4OxikmQqz/dTHXroUD65cfp5ux4/KieS3kOLcvVL83zdBNA9j8iBxx/JJ6HOEkCFdXzHE3LWfm5RqQdQo22TT8J89bVDwV3k7nvST6DTLoVJuN3cSG1LAM0elfvUY7ZXT3TC7IdPy0X9nX1H5fWgp1Ee0R5WAAAAAICb3rpLAAWufCgXT4/LgR/+QLZW3A79m32Pykl7p69GbtQEkE0Q3GWHwx2SkadPy9nZ9+STiqSXne/n8uyMnHz6SXnMrK+qoV3BEKYri/JBo6FixQTQuy/IrqSXUnor/Ms/ezTpsVT6ru0uAfTRjIx8VyU0snVfUEoAFSZe1vHDF+SD9F2Jd/x6v+NROfWZe7BdCrd/98mVdiWALk+Y9efLtV3+K8UeUza+JwfOvinHt+frMUl0FZYtjV1yotm+AAAAAAC4Ka3vBJD25efJnDjHH39E7vMJh2/vkqfO53OhVKqRAFqNOYBsUiYdprPMqNuzqZkri0lSKL8zmJpkuI5iAqhCMEzqju2y6zn92i/k8sTj8h3z+FPF26t7H83IU9kE3y+k8+C89mQ4LO67j8iBp2fkg1IPos/l7L7t8sCx1Rj69IVcefsNOWl7pN3zyOokV95/WQ589165y08ufellGfHr4vDPZXrelwW3Hr/9iEt4vi3HzTbN1s/3H5XjyaTgAAAAAACU3TgJoIKr78/LO3Xm/7GSu1yVkytXP82TLnpunLIv5Ip/vx8ehUC6Lhv0JrrapqRWzI2+Pb78onaZunqlRsITAAAAAICCGzYBBAAAAAAAgHpIAAEAAAAAAHQ4EkAAAAAAAAAdjgQQAAAAAABAhyMBBAAAAAAA0OFIAAEAAAAAAHQ4EkAAAAAAAAAdjgQQAAAAAABAhyMBBAAAAAAA0OFIAAEAAAAAAHQ4EkAAAAAAAAAdjgQQAAAAAABAhyMBBAAAAAAA0OFIAAEAAAAAAHQ4EkAAAAAAAAAdjgQQAAAAAADX1RW5/Mpv5HfuL+B6IAEEAAAAALiB/V4mnnxG/p/a8Sv5rXvn2rgiv/3lP66D5cDNhgQQ0Gaffrq4rPjLv/5rywEAAADgBkoA/eVT+c3J8bVfjgb+fPlN+d2nX5r/fSl/nH5dLqUPr0Nvy8u/uiR/dn+huTVPAH00c1JOznyU/vGnGTn50lz6/7kX5dlnXxT3V8g8l73Hs6/3722k7uuAZYold+pELLFTNwAAAADcIAmgL96XsyfWwXI08OfL/0WO/eR5OftHO0Tt+XW5jLl0u//9P70uf/yLewgNrXkCaO6lkzLzJ/9HMbEzJy8+q5539Huy/9dM7AQJpzb7y1/+Uhmff/7nluOTT/9ny/HBwoctR+zz6saHH37Ucrz/wULL8T8XP2s5/veVKy1HLLFTN2KJnboBAAAA4AZIAP15Xn7109iymDj6c3lmclp+9yfb62bt+OTPy+9+6oao2eVb/wmgZDmPT8nbdAVqao0TQHPy4sSM+HSMTc682CyHY3sJZe9R76+ZAJp76dm2JYBiiZ6qiCV26kYswVI3YomduhH7vLoRS+zUjVhip27EEjt1I5bYqRuxxE7diCV26gYAAACAdZ4A+t+/l1+MxZajHEcnfy+frkFvljz5s6CGqNn4Rxmf+o389q135dP/sxYJqmVs26MvyPQf1zaJtt6tbQLIJnOefVaerRMu0WOTRFmixyZ9Yq81EU/yfCQzE+b5FQ4BiyV4mkUssVM3YgmWuhFL7NSN2OfVjVhip27EEjt1I5bYqRuxxE7diCV26kYssVM3AAAAAKzjBNAfX5fxo7FlaBA/nb6uQ5qy5M/ldwtD1MpxdPJN+egL98brYpnb9ic/l39++4p773Xy6bz85vwFuZTMm+RdkT/89oL85q33wzmKoq+9ftbRJNBhb6A4OyTMJ3BsMiccPtY0sZMknE7KyYmKuYUc20uo0WfFEjzNIpbYqRuxBEvdiCV26kbs8+pGLLFTN2KJnboRS+zUjVhip27EEjt1I5bYqRsAAAAA1msC6COZ/lns+5vH3//ybfk/7lNWU5b8+e9vyz8fjy9LKcbOyG+v23Cr5W5bG+MyPrPg3r/a5uWffYLv6H/JJsz+X+dfyJZn/Pxn7tH4a6+ndZMASnr2FHrx+PDDwpL5e156MZ0oWk8YbdVIAPn5f/y/VRolgGLJnToRS+zUjViCpW7EEjt1I/Z5dSOW2KkbscRO3YgldupGLLFTN2KJnboRS+zUDQAAAADruAdQcNev5cQ/yst/cJ+xai7JL34yLuNvfCRvTy5zGX/6G/mj+5TV1WICaPp9uT59bEgAtcD25nlRZmZMBBM+h5NAz83MyEfFxI/XNAGkP8v+v3EvoCqx5E6diCV26kYswVI3YomduhH7vLoRS+zUjVhip27EEjt1I5bYqRuxxE7diCV26gYAAAAAmyRYz5MVX5G3f/XzLCGg4+//0z/KT/5TPPny979a/RTBl+9PyzP/8R/lF28uyO8qlrEq/um3/+I+ZTUtMwHEELCG1kUCKO+REw4Di07Y7BNADeb/SaIwnKz4WUmPoyY9hmJiyZ06EUvs1I1YgqVuxBI7dSP2eXUjltipG7HETt2IJXbqRiyxUzdiiZ26EUvs1A0AAAAA6z0BZPnbquuEhVrmv1yVT//7b2TiH9Tz/zB9fXrZfHpB/umoHTb1rlz+r8VltJNAn5OXf3lG/umnhUTVzy9ch2Fqy0gAMQl0U2ufAErm5VG9cZK/0yROdJhWCz2AkmRPaX6hdELo2Hc0mwOoFbGkUN344osvWo5YQqluLC0ttRx//vO/tBxXzHe3Gp999lnL8ed/Md/fYly9+kXLAQAAAGAlboQEkPWl/HHmBfn7LGkRW2adKLqOv+nPl5I5gI69Mi9/eOOfq5fxf8/L2X9yiaCfnJHfuYfXhkoOcRv4WtY4ARQO8Ur/tskfO1Fz+m84JMxYZgIoSeZUDveK3xWMBFAascRO3YgldupGLLFTN2KJnboRS+zUjVhip24AAAAAWIkbJQFkfSmfZgmWqmX+Uv4wZYdjXeff9MX7cvbEuPzkl7+XP755Rn7yk6plvCK/PWWTQGu9ztME0N//0+vX9a5pN7I1TQDZRMuLcy4JkyR+ioka9ZxPyCwjAZQkcpreWaz+61YiltipG7HETt2IJXbqRiyxUzdiiZ26EUvs1I1YYqduxBI7dSOW2KkbAAAAAFbiRkoApf789pQc/UmDZf7Lu/Kr42vwm/7yqfzut/PJvDXpHcIqlmGtli/wtrz8q0vhHDtoaJ1MAg3kYomduhFL7NSNWGInFpp/bLnJHBJAAAAAQLvceAkg68v33284x8+n079Z+9/07rtSdTOy//PGhRtund/sSABh3YkldupGLLFTN3SSp1EAAAAAWE/ell+s+Xw0q+CPC9fpVust+vijVR1Fg/YjAYR1J5bYqRuxxE7diCV7YgEAAAAAwI2GBBDWnVhip27EEjt1I5bsiQUAAAAAADcaEkBYl2LJnToRS+zUjViypxgAAAAAANyISABhXYold+pELLFTN2IJn2IAAAAAAHAjIgGEdS2W5GkUscRO3YglfHwAAAAAAHAjIwEEAAAAAADQ4UgAAQAAAAAAdDgSQAAAAAAAAB2OBBAAAAAAAECHIwEEAAAAAADQ4UgAAQAAAAAAdDgSQAAAAAAAAB2OBBAAAAAAAECHIwEEAAAAAADQwH8aFply/596yvz9vvsj5jci/f/Z/d+w7/2//r0K8/e8e+56IgEEAAAAAADQQJYAel+kv1kCp5AAKhq6uRNAH8nMxIsy5/6ae+mkzPzJ/REz96KcnPnI/eGYx559yX9CA3VfB6BtPvzwT3l89EnL8a//+q9ZAAAAAMCqssmep9L/+gSQ7f0T9ObxYV/3m/LjsUQQCSCfAPrTjJycmDGPVNMJouz/NRM7H82cLCePVt1r8t/f+X9bjsv/4w8tx+9/907L8a55f6vxwR8/WkEstBzvf/DHluPSpf+v5Xjvgz+1HH/4w/stx//4wwctx7vm/a1GkNBZbkQSO3VDJ4BIBAEAAABYVcUEkEvwDJl/vehwsEIPoFLS6KZMANlkT5K0yRNAcy89K88+Gwmf3AkSRHPyov9/zQSQ/fzrmQD6y1/+kkQssVM3YomduhFL7NSNWGKnbsQTO3UjntypE7HETt2IJXbqRiyxUzdiiZ26EUvs1I1YYqduRBM7dSOS2KkbJIAAAAAAXDeFBNCQTfb85zC5Yx+vkwDSSaObswdQMQFkkzjPPisvqjxOcTiY7cGTJXrc62MRT/LY7zHP10gUtQsJoFYintypE7HETt2IJXbqRiyxUzdiiZ26EUvs1I1YYqduRBM7dSOS2KkbsQSQDQAAAABou8gQMMsmgjydzIkOD7MJokICaK2sqwTQizbZM6Pn97GP6wTQnLxoEzzZe9RzdXoA2e979qScVPMNxSS9kNqQJPLJHxJAy414cqdOxBI7dSOW2KkbscRO3YgldupGLLFTN2KJnboRTezUjUhip27Ekj82AAAAAKDtKhJA2bCvQk8fbejfh68PEkDm/8mcQdfZuhsCliR5suSLGuJlJPP3vPRi+p7svU6NBJCf/6fZPEAkgNKIJXbqRjyxUzfiyZ06EUvs1I1YYqduxBI7dSOW2KkbscRO3YgldupGNLFTNyKJnboRS/7YAAAAAIC2cwkgm8yxvXl8Qkc/Xhz+5RNF/j3RHkANEkeraR0mgGwCJp/YWSdq5mZm5KNi4sdrmgCyvYd8jyH7/8a9gNqBBFCrEU/u1IlYYqduxBI7dSOW2KkbscRO3YgldupGLLFTN6KJnboRSezUjVjyxwYAAAAAtNv8f84TP7oHkJUkeCK9ePyQMN0DKOnx4xNCLkrzBl0H6yAB9GI6rEsnZLLH9fAvxyeAGsz/k0ThTmLFyZ+DuYRWCQmgViOe3KkTscRO3YgldupGLLFTN2KJnboRS+zUjVhip25EEzt1I5LYqRskfwAAAACsBZ8A8kkhPwQsSOYUEj06YbQerGkCKEnCJImfsAdQ2kPn2XiCpoUeQMn3lG4tb78zPll0u4aAWSSAWol4cqdOxBI7dSOW2KkbscRO3YgldupGLLFTN2KJnboRTezUjUhip26QAAIAAACwFmwCyE7+HOv1Y5+zj2dzA5noV4mgaEQ+Z7WtbQ+gTJ4ASpNC+RCw7P/eMhNASTKncrhXmgQqvo8EUBqxxE7diCd26kY8uVMnYomduhFL7NSNWGKnbsQSO3UjltipG7HETt2IJnbqRiSxUzdI/AAAAABAa9ZVAujFaOKlkKRZRgIoSeSUev6U1X0dsN5cu3at5QAAAAAA3DzWSQIIAAAAAAAAq4UEEAAAAAAAQIcjAQQAAAAAANDhSAABAAAAAAB0OBJAAAAAAAAAHY4EEAAAAAAAQIcjAQQAAAAAANDhSAABAAAAAAB0OBJAAAAAAAAAHY4EEAAAAAAAQIcjAQQAAAAAANDhSAABAAAAAAB0OBJAAAAAAAAAHY4EEAAAAAAAQIcjAQQAAAAAANDhSAABAAAAAAB0OBJAAAAAAAAAHW6dJ4A+kpmJkzLzJ/dnCz6aOSknZz7K/v/ss89G48W55CU3tleekC37XnN/rIbX5LFvbZMtVfHX43LZvbJl9jfEPttHO77jupiX438dWf4gnpCz7tVyaVweyH6bfW/63OWnd4bvUb//7D71eCQeeHrevRIAAAAAcLNb2wTQ3IthIualYhZm5QkgSyeBYuZeWr0EUHCSXkjO6Ocee8U9aDR6TypNLoQn+HUSDup7bMLBP66SCkHCoZRssQkglbQImOdiyZnke3bK8Uv6b/f5KrLleuWJBomLiu9wWlnXmSDxFP7G5tvDs+vH/9Y8iROnn69KrD0hx832yNZHkCSyy6XWa5Fej8k6b7QsAAAAAIBOt+YJoCwxY5NBL70oL+qEkI6JGalO4VT404ycdEmlWO8f/92rlwB6zZzA58kMm0jwJ+VJosUnE4IT9Or3ZFyyIni8lDixCYaqBIFOVITfcfaVPMFR/m77vqpEQjE54xJSf/2EebxBoqKQ1Gg9AdTKus5dNr/bf27w+gafW2Tflz9XJyGnliNYD3lyKPjMwrqqnQAywmUDAAAAANxs1lkCqM09gAoJoCDJo757NXsAaflJeDk5YxMLsZ4p5RP3NDkQ9AyJJmbK35GxCSTdk6WYhPGKr0u+J5bIcBFNzjRYDqP0u1tOAIVaWdeZqvVhVCdS0u2Sb4Pi30WF55PElF6feQKoah0vJwHU6DcBAAAAADrf+hsCppNCa5QAsn+Xk1ErlyceygmbqsRCMVnhX6dfb///2Cs2oaASBdFIEwbl74olkGKJkvjrUlXJmXICJhd5j006RZfdRc0kRq11XZEUKa+fXGXyqPRZdbaHWq7g/XlyKFiWwnfYZYl/bhrhb2i0HQAAAAAAnW5d9gCae8knfdqbAAqSTSauawLIJjayk/cGSQkteI+hEgDl1+dJg1T1CX/5vXp57P/TBEI50VFe7px5Ti9rZjnLYbSjB1DddV1KusQSJ0pxe2j2uaC3lFF4fWXyyLLL4tZ7GukyB+uolABqkNCJrMeG3w8AAAAA6GjrcwhYlrjpjCFgSU+N0lCqiqSE0+w95eRJuxJAufgy+ARFJKLJkarlKC6vE0lc5Mz3VyVgnFbWdZF9vvhbyp9bUEwA2b9j66gY/j2lZFS6zMmy6NeTAAIAAAAAtIA5gOx/VzEBFD/pLidF9Oti7yklAnzsmzCfFXm8KmwCoZisKPQsyRWSJ5Wvs6qSMxUJIPtZsYTKChJArazruPA9zV9v6HVqf5u+85lT+TnJ6yPbyqz7x/R7CuufBBAAAAAAoK71NwdQ4AYfAlaV5DCShE6QMHCJlgbv0Zr1YqlMvCRsYidMcKSf9ZqcVQmCYBmNxt+5vARQ5We1mgBqdV0nnzdvfrf6TpvM8d9Tc3vkn5VLvjea2MkjSMi4355vj8K6K3zH8hJAjcoDAAAAAKDT3bw9gJR8zqFU2xJANpFQPOnPTuDtCbl/XJ2YN3xPrnEyxmpywq+/J0tw6GUqfK9OnMREEiCp+HJU9kaJ/X4d0e8wWlnXapnt8uTvVb+z5vZIk2oN1o/RsAeO/Z5gO5jlfFo/ZpQSQIXlKkRQPiq3DwAAAADgZrC2CaAKQW+diRlxKaLlUwmgkqD30YvShnTPOtMkAbRMNuEUS17oJETjhFRNr7Q+BGyt5Uk5mwwKkzGN4rHxWHLGbj+fUMo/T6+b5fQAap4wBAAAAAB0snWZAAJuTDZR076kW9s0670FAAAAAOh4JIAAAAAAAAA6HAkgAAAAAACADkcCCAAAAAAAoMORAAIAAAAAAOhwJIAAAAAAAAA6HAkgAAAAAACADkcCCAAAAAAAoMORAAIAAAAAAOhwJIAAAAAAAAA6HAkgAAAAAACADkcCCAAAAAAAoMORAAIAAAAAAOhwJIAAAAAAAAA6HAkgAAAAAACADkcCCAAAAAAAoMORAAIAAAAAAOhwJIAAAAAAAAA6HAkgAAAAAACADkcCCAAAAAAAoMORAAIAAAAAAOhwJIAAAAAAAAA63JomgBb/158JgiAIgiAIgiAIgiCIJrFS9AACAAAAAADocCSAAAAAAAAAOhwJIAAAAAAAgA5HAggAAAAAAKDDkQACAAAAAADocCSAAAAAAAAAOhwJIAAAAAAAgA5HAggAAAAAAKDDkQACAAAAAADocCSAAAAAAAAAOhwJIAAAAAAAgA5HAggAAAAAAKDDkQACAAAAAADocCSAAAAAAAAAOhwJIAAAAAAAgA5HAggAAAAAAKDDkQACAAAAAADocCSAAAAAAAAAOhwJIAAAAAAAgA5HAggAAAAAAKDDkQACAAAAAADocCSAAAAAAAAAOhwJIAAAAAAAgA5HAggAAAAAAKDDkQACAAAAAADocCSAAAAAAAAAOhwJIAAAAAAAgA5HAggAAAAAAKDDkQACAAAAAADocCSAAAAAAAAAOtwNlQCaPzcu4ydMnJ6TRfvAtSXz2JTMfpw8HVpaktgvmD06KIP7R5PPmb7sHtTMZy68t5DEYuwDrk3LxJFJ81715LVZGdtjPneniYdHZfqKe7yNlj6elaljYzIZW+Yb2eKczF5YjG6rxBWzLS5MyfiRcZlKNnpNV8xnXnP/b4PZU7a8VCylKRNjB822OTcnCx9X/pICU85MeZ684P6ssHBqOC1XO4dl8j33YFPzMm33ExOTF5ez0irMjLplGJTRVyt+n3rN0Ik59+DamX/V1RVV+/laWpU6ZFFmz0zL3HsN9qVkX1to635xw9RL5rdPuvIw/vy0LLiHo5bmZO6S+z9wIzHtl2b79+LFyaxuXN7xYVbGzXFu/MysLCzUPc41sihzp90+6dt0yuKZcRm1y2iPq+1sU3VgXWCau00tLaTt2nzbLcmia+vWb7es3Py5wrGvRC2XiWg7PGL+4myD1y7I5H53fN0/2XibN5S3rcZPTJu/1pr5XUfS85nxU+b3u0fbR+2jJyZlLvuCdq0H9TmROqA1rS/b0seu3LWlfgstXJ4v182XppL6rW4ZX1WreuxYlKlDw0l9Pn5iSuZW4Ry5aPrYiIyZMtu4rmmm9fJZp06W82PZedPwqdZrpVbdUAmgiQc3yIYNJm4bMidIEzLQnf69ac+Ue4W1JHMnBqWnu0t6Ds66x7xpGbrNfcZXB2UitjUvjkiPfd7E4PPuMWXxmX7pcs9v2Z9+vn4sXJZmFmViZ6/sbrjhl2TywY3pMqvvrKYOdJHwhSxJhEWeT6J0gJyU3V/bLJtXFLvNp5TZdZf8tls2Sv/RYlU9L6N3p7+73m/3FmX8/q7kM7dsG5Txi+7hRmyiyVb8F6bKCYPFcem/JV2G7h0TpRPsxRN++3dJ35Eah5uPx2XgK2b5zHu6to0GB6iskeYaZHMHe9zv75GR5HeoxlFlJTohg8l7Nph9IJKMWVpM318R4UHAbINt6bJuuKVfxqM1oHrNhi0yfN49HJEntIqRJrgalksdDRpxi88Pyib3+7u2jshsGxMe7dDeOsR5b1T63Ps33GLqtshvnj/cmz6/odt877R7NOYGqJcuT2cNkVKcmSvto9P7tmTLusHsw3H+2GFec+ugTPqyri4KLCvs/tlkX7P7eXZho1HEGh+nd0fq2fqx+7T7HHSEhVdHpP+2Ltn04ETDhmp+TKk4PlQx5W2j34e+ao7nK65X52Tkdvd5t4+Yv5SPzTHsVvfcLebY1+hCyU1eFyTHu1s2y8AzeUtCn6il7ZnYus7bCRtMmQmtVpsvb4PbY3O09J3ZnR2/N2zok7FGh6HMlOz+qnm9bfPtjJX/BmVtWdQ622COs+7RtaPOacxxP9bGXhm13rI2qNWu9aA+Z0XbRWt92bJzzGBZlrEv3Be253N5+dx8p2mTukcnH/ZtqMbt5tW26scOtU8Xz3lWhTpn6yrVbcvRWvlceM7WyVvCNvQl81nf2Cz9qp4WU3fH1qet0zffPiSTteq+1q2DBNCsjMUa+5Ho+7rbEGZn6Yv8nZxEXDMVon/cNxz8FZ8jg7LFreyN9w27A2QhQ9woAXTN7MRZo8ScDNueR6ahMmB3bPee7lsjlUIQ/qBoT7I2Z4mDnn3T1TueWqbmDS9dYZfDF7KsootFqaDrCrXViFfEEw/miYOhM+VG0dzhvvwzbNKu8HwSxatXaue3DYjRV8dlKCtH/dKrtsfG7HV5FCu2/MTZLOOMezCj1/dm6XswLLM+wuyuS1Al79kku8+4h/VnuUqrnADKt0V1BdzkNarSKYc+yJslfW4gb/RHItlHggZbLPLP1AeQ2GsalksdFZXxojlJ2aK2afP90Uc8Qdl2ba1DFLNNfQKp6/7xSF2ik6kbG5z83yD1UqMyXDzgzwxl9X4am0y5jf2qRZncuSl73aadk+lv179zGZH8pob7mgmzrLXKfGybNvvsJhG7wIEb1LVZGdmaH1PS8m32+fsi9Ye7+GCj6yuR57/WL6OlXi/6mLWcizGNqDohqM9NHbQjTy53394fPaZmvWJv5rrg/LBszp7rks3bx2Xe1MP6OJvu57F1rdp1xfXU5KQ3azfZE9rI82lEjlNZErFL+k9E1rtuv7uIH88KTBvEt1Ns2Zw/0u+WwZflqrK2XGqdrUrCZbnU8mwdiZxY694wFXGu0em4Pm7rtqH63vWcAFrmNsr2v2BZ9G9tElW/QZXPbP+9ZvYx3+4z7acWLvu1x2ofOxYn82S+ic3bYnV5dYxlibHGbUhdDnX917snUuZr9+ZpoXwGdXK39O63bWiVqLXr+Dl3PqiOCdm52gVzjPH1a3efjK1i7/p1kABaxs7VJLIVqE9Ibx+WWbtC1evCKFReDRJAswdU9vOAbQCFDZV6kX9f8WR10z2jMvtW7GrWmAxmBb9L+vYVn9dJrMY7ybJPtBJhl9wwpmToG+5928ciz/uIDE25Zra9//1fH5bhOo2fWBQaLwtHVNJo26gsmO8Z0K9vFkGDY1aGXYMklrnWPTcaRVY2vaQh1CUbv94nQ1lySG0795vqJYB0N10bQ9LrXrN5h+se7CK5GtiwIaoO8pdHpU+Vz1gMPqcSGpXRSgKoWzaVDi6bpNu/PlIZz5tt0TgR1ShW0oipr911iO8xNrEz/4y+w3P5fueTo+aglJ34NGls3BD1UoMy3GVO1jK6J4FZxi7/u6p6FQTJOJecXQ8nfaUTNEN/9t1DhXUfj9Edm7P3XM8E0NJb4zK0bUt24th9a4/07R2XuUgzI+sVGg1VPyUWZfbYoPTetjGrh6OfXXcbxtZzRidBisuRWnh1VAbu9PWUqd9v65XBE+VeKKvC/sasfNvkcrMGc1VEfluQONkig0fi5asyfE+ca7aXy5iMPGP3ZLV82b69KJN7ttQ6pmbLeZPXBfZq82ZVX2/eP7uyBFDTXk6qzfeNIZmKviaPvEex2n9Mey+WQgx6Z2XRlRwrG+1DxZ4U5XZT7Pc7VxbM8a1REkTR2z/SBrnu1PIEZT2jtnFVuG2fJ83CyC+S6npBf26srbZZ+pPe8MW2aTHytuqG2wbcEKGKqHvSvoJtlO1/wfvy37pl31SkjKv9oeL78vKZJz7zkQOmjfXwZORzC1G80N1Oq3XsuDYro/fkifTlR5cMnnKfZdZs42Vy7eKPdQeAisi20+qUz7BONtv8mHlGJ3bM8SRJtKljQnKMMK/pdSObkuTRoXZcaKm2vhJA3ZtKlUgQWfbRNqzKz6cVjmVOqtzwhO7bTaE4k1cI2dX1W7vdZw3KqB6Wsr0nv5Jwj/n7qNsAF4bVgT8t5LPmION34K5vVF2lMqE+s5SRvmBOsl2jJBmuYgpO+h3LCX3yGjnQqQqxfKLl31t1gKxxAKkdejkNU/j9+rPLVavxE4ugQaR7OvjKdl5GtqrXFyIpE3e67bdnRMb0gSa7YpX2/pk/OigDByfSMay6gRgruypb3nMoLZvVCRDbUFtepeu3ZfOKMY+kMagqnbRxqNaZb5gFjWVTWZmTmLlnfG+gbuk/apMMszK23VfutpE2JVOHXBLm67tl8nJ+8PKNwPz3u7KQlc10nyqXS8X27EqeM6HL6NKcWQ7fa8XHJundUdgPVQzcHR6Uur4Rb5C2VdvrkBrb3e0beQOkKgrre93XS2az+/H6ScMov8KS7RfBlS3TyNpjGm+m7GdJwlv7ZDRy4jd/pC/dJt09Zv8w++17kzLcbJt8va/0fNLrzw9PeWZ33pDQyZpz8/nvKMar+Un3liRZWKBPKNdxAkgPySxGbIjm1J5GZVU3MO1xvrpxGXy2PiloFIWTay3sDVlo6Bp6Xw6jSzb7HiSrLE8wd5tjjikzfmiziil1kh09oSmdaJjjQzbEt8Vw63V6nyt/SRK6uG+HyZ/4FWZ1EUBtg5u9Llg6b44t5uTCl/kVJYDq7iu1Qu0n2UWItF02u79HNpl21/CxWVkwyxzUE7ea+v8t3QZpkAQqXEi0a6dhAugbgzJ2bER27+iTHn8e0GC/D+h1UzgeXU+Te9z+kJ3HxPYX2wOrRvvd/fZGbdM0dJ3X/HPTfU+t95VG3fXdyjZyc7Fko0q+2iMDdt9Nzv/y3xqvk1SSLPZ9ekRC1lNan6fUjLpltEVtP3Zcm5fx+/Pjs193eULRn8erOt31KNyUJUF0mfNlyT7m/2/biX772P/rNkExTxC7gLx65XPx3FBSJ+thdVkd54fsqjacnbLGrt/0+Gfqu9IUNu23vhJAD443yMZNmxNQf2VwiwwnB+tFmTtfcXXt8oSM+itvqkLIGr3Zih+UkUYVn93pgpNhG6YAPm8+0xdke7DKJqIuTxqVX9WomCPm0rgM3Ocaq6pA1A9/smSpAu0LpPr9yz/Ral7R1w+9nHYZfIOsV0Yvq0bcckNXOrr3lxqWkn22m9xNJ5uqT4Tyhm/SDVl12ezaNiwjuufG14dk2n1XQjc4vzqQlY91mQBS88f4rv0L5mQnzWDrikj1VrnNNOAX89/oKzl9ErT54anSvrm8BJBZ/9v70gOxif7bVWPHHQyXXjUN3+xgUQjbaC9efV+wQ0571EmEOTm7b1RmiwvabqtSh9TY7nY9BUMiqyLcNxPrul5aMPumezwpC3k9lSRbC1eedDIgOFEvjtNOzMn4wXjvlIBuaLryWClLJG8w26/4ffoYqD5nZijrSpzv60pL2ySP6nqvjVQvwq6tw+nk5gumXPnEuWkIDZ9LX5qalWF/NdXO9ecejdK92uz+Y1erTQbfn9fLvYcjx1tN75e39Mjw+YqNHtt/s4apofex24dkKlkW81uy/fM6zfFwbUqG7Lx3b6W/o/lJXSQKZTlLgqwk/GdmZdoOQzXHj2zfHpbxffmyJvurTbbs13NSLCUnKX5Z8n2auiBxac4sZzrX2sDWfB9ILmTuHJAev8/5k9udffn+45NW9oRX/Zbeve44FMSoDPjhDFVXxff6YfN+P1G9f2w9HuwvZnu4BFbyt+6RFVw175IteyaTZJGme2H7/T0v91tk6PkpGTs4mP/+WDTbZp6uc6/HRaMKuv1aHfYYqspT0EN/LO8V73776vQAWl6btmEEx/8GWtlGVcfSQn3SNCLLmE8hYcKXM33sqht1y2ir2nnsMMe+kbtVe/02UxZt+1ZfBPUXm1V9uPHh9NJmXr51mfNlyT7m/6/L+IAM6/p8Qzi8V1/AyefZXN3yufTWXDIkV5s9Yo51fpicKne+Xp8/NiD9q9zzx1tnCaCRBhvDbGi1spLGq+uWnPTycePkwkn03Kz1+uBciuYJoMmdeUFOwxVKe4L0tV4ZeXVe8knj1e9JCsSCTB2ymeWN0m0aHrqALD4/JAOHC1c1ohMaqm5oG3plqPR8xVALXyBXdKKV/x57Baw4nnj6snqf3flLyz8tU9n69d9lBCel/vHGE8XGonpuHRORHdLTB9CqE6G8wkjnJ5o96CvyjdK7TVc0aWSZ3msL5vN9gzOshKonQbZjXZt1Rwwjn4U/3wbp9s23WfHvWAIoH3KhK1tbPgel345fzV5vnjf719DOMZk1BT4ZfnRhVPq/PiBjF3zDwjS27zMNAtPYmPU9gNRk1flBxZXjwwOuYZt+d7FcxnsDmHV6yv12lWjrvtucYH68KNP7e1WCxzz+NXuVcUxGdvSoxowJm4U/dn2GZ6xOHaIPXuk8aElZ0lejTZmc3Z9ftdm4dUCVOXVSoPbNG6NeKpR5W5+4zxo4Oim7v6HqgX/TL6NZ+UzLaN5zzYY5sdg7JR8WE9D6TiB6WIRPOC/jpC/vgRXuYwmVgN2oJwAvHu+K1PPt7QG0JHNn7OsnzX7uHmpR1uOjMO/U5MNbTN0yUT6xVtuxeoLe1Pyh/Lgd9IrQ8y003C7h1cKeQ3npCoXzwaRR2I7nzQmVOSbYK/L9z+T1vW5E+zJ+PcWONzo5ENYHLnyvZ6twAt5zYNrsA7MyfKd/rEeGz9n9Qp1Q+rn6TEM2+56sXOe9czY+PJonyOy+7Y6byZDT8+Z7k8S+7T1ljqvFXp5BwvwmrwvMMXjooJ+rTR8TWgi77Oq3DB5Uv8s/pi9U2e2m66EkzO86qNoM5jfmvXvS3sPT+/1+sUkGDqRXyv3fxTmZ7Hv1EDfb3vcnqUnCOJszyJTFGdNOOzNmTmRj7YYG0WSbebrO2bCh6qYYq8/3AMp7SuRJmKyNkyTQVVsi+I1Vjxfp8qTLq3q/btdHZDc2KcbFMen/N/4zXPxb81mq53gQeh9soKVtdDq9oUK2Pv3cVntsQqLRFBiFKC2jLp8mknWtz1Ps0Plm7SgXDedqar8VHTtMXe57c3Z9Y7dM2rq6OKogacPr3qV5G2Fih3+dKXPZnEK+LNpy6P9vy54vi2pYrw+fTNbHMXVB3lqV8mnr5EIbuh0XY9rthuoBNB+cMEzmBcc0BvxdGvSJfVZhqffFhoAFq1gf/PyB1mUou27xBVVXhKYg2hPQW/vMSZxtLavfk5ywmBPSg33SYzZkcOVCFcikwdNwddevbIMKuy0nWvl3Dz6vl8M/pt5nC2upMaATbPmyB1nx2DLUjKBRrXv/2Ah+R6hOAig/eQmj6/5RGXMT5dqr2uPZVUk7CeOwDGdXG8vd+JbMicJuOxG1v1vAqfTA03u/+Zwz+Z076kbxDh/p+si3U/Hv5LcGjUl7MEr/v+Huitn5s9cXyn3NbaW3UXUlmH52sVwu2rG0dn910Xv/bhlN9jPlY1MXHAsr24Uz5qBarLxVbDLbcHqFJ7fLshp1SLANVL2g9vcN9/SrRKv+Tivy/humXprMuv0nV9F1vX0473VSL9JeVeGxw4T+Pr1O/UE59liMHqIQq5Mi68HKG7J6HLyi69rIsJNY6AZcVb0X9Pi4dWgFk1Pq8lWzIa6SN37YbBU9V1BVAig+L4ajjhe2V0hpu3jF40oSxX0pbvZAnnwt9/Zon9Ldo8zJQtXFhqaNeBu2IV/o9ZT1nNFJOt9L65LaF8zrki2nyqcu11lS/5YtssX3JCntF2FyLmjYl4Zr3cR1gamv/ZwRm+4ZkemW5+5wYZc9u03+mEzOlE90bDIuqJNjdzebmZSx5DPSi7CVbamtfWrOCxO3xesx3fvXbyPLJoeyZK/ZJ4f2NZo/zIXttXRmVhau5Mcvva4byXut2zDboqIOvT7Udsh6S6rJZpPypY7RQbmserxIlydd56n3Nz32x1QP323pLqjKSrZRtt/7ffPSqPSr9mcWSfu9YqJ0dSew0hyhdl3r48mtu2XK1gnZa1pZlyuzKseOxJLMms9L2pAfm3LpR0SY8BfLg2HV2fmHLnN6ffjHbTn0/7fP+/U3KGOmnb3llk0yeGxM9ezdKBuzOqacYI5bQfkM6uS8DU0CKCqsiKpvAzwms/q15kTKn3TrK27hgdtVWLpB4CuDrHFiCtC1JZl7fkKm7cfEXmuH/piD60Q2RjKvCHUX4rRQq2U0lciE2ujBWMCkoLrXmegyB6WsW1jJcioItfP4SizSqKh/ouV7/dRoDNjCGmkM2KRe2hjwPQIKWfFsGVbQA+ia7m7vIvgdIV1OKg8Q6kQiD7/tzZbeO+Qyyeb/2Z2TfLgrl/ZpzZc7NxFvPmH1gAxn5at+pMueb4N0++blpfh38nrVMB98Jm/Mh8Ml1MEtS5bmY2r7j0zm271J6MZV/QRQgyshSbjefa68zdoeC0fMQcuO678tnxC2YbirPD3b8gPZ7mNhwq5tVqEOCfZZXS/ok5HtI0l3fHsFdWPwXqv8/humXlITuydlOhsika7XqT2bkm7Hg/e490Zjiwzs6ZfN3zCNZ3NiGx47TOjv0+vU1nNVj0XoRmDxjkZJ/XUqnwtNH8vy5EFeVgJqP24lquq9sNedOdm2d1pqiSofpr4bN43Kvq+ldUn3rfHJkXX9sOlrftJoU+/YyfKLr180n+97sEWHgMXu2ujpORgavE7dlajr/iEZyvaXim2iLNkriL4Rqi5SrYZS2TXlsaUGpw/z/nB4lPm9LumiL95kvVRMWfSv9Uk3/f36GJAfV1ViR+9rpk6fPTMqw/eVJ4NOkxzudd5NXBcU62ubHBszz+t1X2wj5L9F7Z/RZY6f4O4+rdpp+ydlwSxD8TWlO4BF21J2v1uqMT+dD1de/ND+0h3DzLqxw6qD92yUvn1jMnUhNlFv/vuD8llJJVdcBL20rjdV7vPekmqb2hugVG7jyONZ4k+HGu4XlD31/mhbzbXPKuQ9wmJR9yQ9ZmXbKNvvfRnR+7WO5Hm9DorPGfqOrz4eHM6HOJvynO7j+nOataPabzWOHdrSW2OmDOXJn+xCgu6VExyD3S3zk8f1+vB1mC2H/v/2eb/+0tcuLqTnhEuny2XM9u6sk9lYSfmMtqEvh3VyOiy3Iu7JLxrF6+X2WfsEkOryaivhUmHMwm5cNdbbhZ2bZfbMRDrm3kjmesm6HrsKq2onTmKTbHI7aXICrF4bNJBNgc03YPq5QSHJGnhqZ7YVQTAcqCu8rfIlc/Ktr7C5DGh5LhzVvXrDgIwFz5lwQ2yq112LUXXAUNF7v58rxsYm6bsnVnGElVp41UY/v7whUDb8MKi5Q+UhWWlFHL8N5pCagC06zj3pbum6ftoJcd1vLGV/lxZk+thQdmKjo/tr5qTl2LTMqyFQeflKr4hnZcosqz7RrxvFxl06MVteXop/J68369+/v2+bT0D5ebW8ioObi56DE3mDMnYnEDVpZTwB5LZ5tj7Sfap+GXb7YPEKSzFu2Shbtg3JqGnIDN/fq7pMx6LR7dHboO11iGrU631M13d+H35vSkYf7Jfh4ERXvV9PTn8j1EvZb0yHZ+Z1vvn71YV0vzWHsNLVrSDCRmr6WtUd2zfkrNg61Y+VJoH3J0DFZHcYyb6h9kfdMMgmpDTlsme7ecyebCWf6URPvOpHZVn/eFKGtm6U7q9skf4jK0iIqmN7fsFGR7GHpOqNGI10eI7aZKasmn0l6B2QRtdXetTdFSPMuvPHoEa3mc7m3rqlT0b1cGfftqiQd2E3n98widoesUZ8bBLP2pEMbVqS2cN9pn5SDd7gpCaf10gnDX1PJ93gHXgueShlTtwnzHFxodCTZNYcM/Td3PLoSq42j746K1N+39U3arjZ6wJVX/uTK73uW0oAVU12bcNf4f84vwnGlgfDu436yIepu7bUuXwOkGy/Oz9utq0+llSF2efOTZttn16oKrf57D45KxNHJmV8TzFh1vj310oAqXmYslDzTF53el4o31vyQj63TJqIrdrGkcd1GY6GrvPU+6PRoH5UJ/5dW3vy77zdlC3fS6TqznzNrHAbZfWoadNOnpuSuRm/Tlz7yu+fSRny66DQlnXlS++DWZh17XvY5r1Om63LmuWzRatz7DBM/T4ezLdpf/NQksBfOm/aBqqNaef2mnfHnIUTqk0czOGkj7+xGEzuXjZ9YkTdiTMSpn5OLvoerkgGtaN8Fm+iEq2TK6hjQKlebrO1TwCpKwM2G+oLYzbDeHYime5kwU5lr/qZwpR0+TMnej373QbNVqCrhFTFVh4CNiC7/RUIe6KjXlvcSPl3m881B6xsaIUpDMN2Dg+zvHNnhlSBcTu4nhDYNGaCnhaua5zfMazlnjD5ymG572saQeHT42DnZfoZ0zj6t/lru7tVI/zf9srQM9Myn70+vAV8eTn9yWuzHbwc/rfrrvZZBJX0MiP77aZM+omPs7GjC+b3j8iguq2xj67btsjmUpLB9pzplf4D9k4wfnk2JxnvbF1Ed/R82Rtfxai/3ooJoMFj5jsKFVUqv/qXJ00qegDZLtXFxl82t0948Mr3ocJB0+2r9cuw27fVxNxJ2F49d/bL7oNjMnVsWAYeLDRabTl+a1ombW+h+3tl823qhKPi1rTt1N46pMZ2t+Xq8nh+BcbVmalYo9hZ7/VSrKGXRXnI1Lw5meu/05TlbEjQgkw9My7Tb4V1k97ngnWiG8d+X9WPlSIt38UEZXInDFXm7DoKjmmNwi1Py5PlV4VvsLVbYf3Y4bJJd+iFvM7RSQR7gjxyd3ps7vqGacxdTJfLXkHME5LudtzO4mmzr6i7LWZxi6mjsnlRivQcDA0mZ84mrPRDTvT+5uqfqMJ+aRqcvXvLk9e2U1om1El0djxR5blWlH/XvLpFdnCb7qzLvr7qnr9fl+t4g7dQ/wR1XNpLbOCg2Uff8+WzYt+8ieuCjB2ud39+/C6v+1hdr35fVl6cRr8nea1tq8eHSOjQx/5wv2u0/9RTXlexsucfa/z7w+WMi/dUCkcgXE957/GNWZ1oy5hftjQpVLWNI483LMM29DZT749GxfbVF5eSk2j1OWa7zOpeIRV35muk5W10JZ07areut+1vyHqUuTkWfe+MpAz5ZXfP+bkXXfmKnpMk69qUxa32tyffbDRbl/XKZ6tW59ih5/ax4W62Yuqn+RO608AG2XS/OV/YWzXdhr44UziulkL1KM2iW3p2jsnY/rQXvH4uOiS7neXTtnPs/MSu/Vy7btcR7LPtt+YJoHyHDU+IN+9wVxSyE0mzIu0KVV3J7J0jZpfyE8DN+9w9QxokgLKGSPYa87nm/+lBWO/w5UZL8aCSdvVyV8cilaef0Txhn7+lS7bsnCjNCm4nzFrITsrydVA3fOWQDp+L3O1BTQrrx23mV5T85LGR92Unzaml96Zl/KB5nW5w2zstHTY72Kk5mT7cH07W97U+GbQNuMthWSpXjGkDKak07ksTDHUju/W/SyRuMsvd7z83qKSXGW7Hy3to5OPObYU5tbfwG8x6GDg8lTbyl8zzptwW706VnrTPZl1AB56zlWT6/2QbFq/oq8Zh/PaT/spis4oxj1ICyP5tGtD+qlGph1Pxim9W4dX/Tn3wyvch12240STQydDMEbNPum2sG5C32OfTR5OrtXZMf2ECPt0Yit5GW0kOgqt1Iqy0tw6psQ1sOS4Mj4xeeXKNlsB6rpdUGS6HWbdnJmTIJmhvTa/+ZY3lbK6EfN4Qf0e5VMU60dvGvz6yvfJI6zQ9AbeNZJ2o99m/azcMXGNoVRJqq0HPC1PoXZefvDTfNy29L2fJ8GR/SB/L7jBm6t5x1VvO19kBPYdNZdLXNtLTuibfX/T+lu6/cUuyZJfF1F/T6q5VNuHQ5DRkhVTZzbbpco9/1b8r7BavEnGqN5Ven7qcFttSdh3NHVMnArZxbetgcxI2fHRCpi6kyfAw1EmK73Vq6/ybuC7ImLK25I6Hlv6cdN2rspv9llh5cfxy6cf9ejaPBcMDvz4o4+fd9ro8K+MPu6v+havker4POxx5IbmJxKzMLS6n57fqqeXafBu/6s8h8rJbPM6Gv393OiXBwf6sPPtjVSV1N0Nblw3uVb3Yi3eAvS5Ub8msLaQTbOn5VPU2jjyuJzfPQg2dC+oGXa9Eev+a0OUxEfQs9r0/y/tYULa6e2Wk6s6MRSvYRvFjqvm9pSGFLpJl1eug+JyRDOc0x6A9u8v1RbAs+nPiUx/kPelWS6Q8VP2+ytDlw/AJ/eLdeBfMObubmH/j/WNpWzY2RPQWc74R7bFuv8f/39atfjlVZw7bIWTHqDlGqLJzxWwxc/7am3T+KCyr1ebyuXQlfLx23a4j2Gfbb20TQB+bFe53WDcnSnXjNh+qFQ9f4RlZg8Bu5GaF2Fae5jVuOXoeHMx21mKjJb9NYr+Mui7dfryhKRaue2/aS6Jn23A687mzYArsXPZaxZ58+0SJK6zleZDU7TqzE6M8wjthqQOdbyQUGhlWtp6zRlCsgWCWe8Y0yHaY7y9eZe3enNzFZdZOYpysO3cS626zXewZk3SLtj0zjpmdyjQE7ORnu7Nu8mkDyaqckb0q/PAquw1vs0NoijtsfAb/se3+uzfIwLHy80ky4NKo9Ga/w2zXr+S9xiaSststm+4ckJFDQzJ02FTS5+aCO17ZA+rcmdG08WmHECRzaeTDGO0wKp8MKiZm6oVfb/m2W+4QsLSM64ZDOOeHve2uf20SNuudVHiqvGS3lVWhTu5146q6Ekwr5Hz/75M+P2eDP3ibA7zvkp9fGbDlrfDdLmpNWJeFnWNs9bW3DlHbQN+K9TbVq8kfQILx1tUHt8w6r5dic43lvUVNWZrxJ/ku8ZB1jXflO/s7nGujcp3oEzy/TmOPFakyayP5nZHfXU0tj/uO6mNki7FqjQy17MUGl67r6ny/XtfJ3BZ62FFh6GZskmIlSAzvj+/12fCS4CRW72+F31NJ945Z7bsGlctK/LGy8glzaPGcvlPTBjUXmZ5LKVyfeTktfOaSvVNkYc48s6+NtFKu7T56E9cFGXsCZdpkfTtHZOIt0+5Qx9kVJYD05PK+98M95lhqL8TeOigj/o6bt2yW3h39+cXBrJ3gmDZIfDJu05a6pverZqHKkp0D5/bh6Lx6zRJAu4OpJPIeNHG6fWQiSXLq4XzFoazXw5QMZedD3dJr79aqEyDufKp6G9erF6rrPPV+1X6vUhzyk9cf6nOyclnoXXbLFtndaDhvYmXbqHRMNW3a3UemZH4plhQz7fb7bHtyIDkHKj3vL0ReGpFee/Ggad2wvHW5OmLloV4ZaXjssEl9tzqyczv7gL2wbEeQ3GqOibYdfG1aRlXbcXDPsIw9P+vKiOfLov0e/3+7vvxymv9fNHX9nT3Sv0N9ViSGngnnE2x/+UzP89JOEBMyZ84LdZ0cnXbEx151g6QG670d1jQBNL0/bwT4hkNxnPbow/ZEcosMmp1x0qzArg2bpP/IaHB3Chv5VTpjuQmgpPJwJ/NH8mxtmAAyJ5p7R2T83IIpOIVJ8K6ZBo2/85MdYqHLwrV5mUjGQca7IepCUX3XE/0bmlUQagItX3hKjQz7e91rskKtD5BqXerKy4Sf1ybvbJHvDPYW1VkV67KtYfd8V0FcGJWRU/Z9/nH/m/TBpl7kjaZFWUxOlmM7bJmu8MPtrOgTiSDS5TXHhoTehknYZNftfTKwZ0TGThUrMfXddnhS8h63XrJya0+mfc+HdMy/7xlh5wXIExvl9Zauj3wdFP+OJ4DSx/y+mJXTIGmgwt4+/ZnJ8Ba+6TtyFQ3b+G3dbaTrQJeJ8RO+y3x6JT8ffqBP+Jrt33Wj2X7VDu2uQ/T+opa/osGhr1yk+2r1vrLu6yXLjVNPJgA/NiVz2QSqtizln5UmC/Or/HY+krwHSpjwDH5T8n1LMnvefGtsnVas55Cp53ZuDpOhwe+eis5RloSd50RP9Bn7DjsEaps5EXveLKm6qpjvR65uWROmAR69emysJAGUbE9d9ou/sXG5zO8SU3Xit5zjULNy32g520397myd6nVRJ8rLOP9M2GVfDyMNhjUl8ySlj+sLHfozF88Nh3d98mH2tZYTQPaDb/K6QN9ly/aE1/V3KQHkbn6w+WtqnoziMuvfUwz72suTMvH8pIwd3C19hUl3bdh2ih2GPX7KLEvSWFT1fxB2/1nO/qbLZ9rmy39r/lz5MfUdZltOqF7o3XebY2GD3iHBFX91DA7ulmi+J5xD8TpQ84wkv0NNw5D35I7VCVbV40VV9ZeuVxrXgcX6I5xqoLiPOYXhoHa9b9k5LnMVp6Ur3Uazh/qSO/EO+mS2W5b4TYnUha+Ku2+OJcOK52Xe1odN64b663L1xMqDXq46ocuHYc6fBuzUF/vHZPo9sz3V/jd1TB03ikOpsvbuRlM/x9q79nv8/+368stZvy7R5ySrUz7zY4xPxpbr5ArLbRutwBoPATMHVNdFesv99sRoTmazrqDTMq96YKQbxTT73nIF4uNpGd2RTuq6cdtweGeIbAUWCqSxcKpw14TiDqd21mAjnc+vEm3cMxoUZjsd4eQedccKfQKnT6ILXWLDRpLqwVSyjApCJS2yW+AGjQxbhNVOYtZrenqnHtMF3Zg60C8DZifOJ9ZbZtw2IMMHB6V/n+sC73au9iaAvIodtqBWAsgs7fj2tOfS4M5hN8/NlMzm2S9jyWz7Htkcm4fChrtardmKwPbw6N1mym/yOvf7s3Jr//brIi3DfnntsuYVSXm9pesjXwfFv5PfqiqY7LcXy4i6BfCWr+eJl023pr8zvCNO49DbKFvvvgu/vlKrfme4DkzoSWSDYRvxO5UE2yNr8BbiNtVTJtJToO3aXofo/cWXBaOqwWEOWsNb7dwobqiiKhfhvrL+6yW9/6Zhvl/X+5fMV/qeHrfYnhf5b7InSFkSoFRHqN/0jUEZ2r5Zuuw+HFunVeu5qPg7g79H1DoshF22Jt+RD6EOb3ebrx83aWykkdqw15sdDtCGIZE64auTl7oXTlY/2Ali7X5pu2hn88ukYq/PJ1pu0AMouxLu6R45tveBezig96tmkZb76f3mGGCW3bZHwiTtGvYAWpiTed0jtuJkxUZ+USGthxP2jmq2/Pv329CN9WDIhTlO+CH4Cb0O0/3RCm8HruZsMGU9GQJm5xc8mPYq6bZzRlxOEztpxIeAURfodZ3W1+WTjSZlurjMajiQ7y3te0qXhr+bSOZr2rNb+k05CsqLCX9x1ya/dFsq6TGdzA+ply1+HCkndHKx58qPqe+w6/LydDps/ONJGd1r6sFiI81ZeE4PezTHLrP9s3qpeBcyOxykIsGwaszy++E0WQSJ2EKdkCk+3qR8JKHXvXp/Vdz+H+SEqReD8mDaL4NH/DmeDTXRenEuySMjpl7Sv61Leg6Fe6jVzm2U1SWuLijXLfVCH4ub1w011mWz9tWKFcrDSo8dlqmD/bbvOzIV7n+l9m5698JE0/au/R7/f7te/HLa/6tybC/E6/a+SninbYil5Li9KuVT9Sr1d+jTdXLtiJaX9ln7SaB1t9i7d6tJuNICrzO7SQPjvWmZPG9r6yWZMhsv2aDqilQiO/hvkd1HR6T/7mGZvmYOXL67qolNt/ouXIUdS+2seifOGy72qmHhYJK8QncL2yT9J+ZkYp8pMGcWZFbfrUCPRdUNVX0XnhJdQRSWt0iNpcwa1sVGh/68rIDFflOopQJso+Lz8srV/ya1DLE7S/nI7vKhfmNG/baK77V0xR5U1nXYq416qJdnHp87l14VG9iWJoWyeali/FVKU7EM7R+WySPXPwFkJ6a2ldnI/b7spu/J5iuwjYnDqjFtft/u200j+mO1rZpEvo3mZWSre9xvm6xshr8z+22mPOuDezLU8FSTs6il2WDOm6phHtn6t1EsK7ZHzv2bXX3RLT1tmMS1/XWI3gaqXmjU4Ah+Q8W+cgPUS+GJpA3z/Vm5dsuS/Y4usy4Xk9tBJ5OxHx7Obh+el01P/yYXNokQW6eN1rNW/J3B3/VP+koTwesT8H9jtpPatvUarhXbzDTA0l4apv7a6btCt0glPbOk5sKUSh735icrwXxjpvwfS3s1BZNA2xN43/sk6yFoGv1bzfHCfnZwxzx9JdzRdyYr7vNN6f0tra+84M6W5neO22GTts2xL99v7bwn2bpchfolKLtf75GebruM6rG7h/LGayFGd/j9Kf9d4Zw/Jnx3fcteINDzMZrfHN7mXl0B1eXM1wPmRGz43HR53160c47kn5t3xbfUb6EucB9o6DZ05dVm1eM0FoX5HtP3h8dkfwOV3Udtz5ONSdndvHVQho6OheXp2KgM2V4Spv2z8bZ+GcuSEVUqjmNK/nvC/c6KPVd+LH4cydd/t2zeM2nOKjx/Bzz3HhtBYiW1aNoQ4Wt6kjvPVbo0Kv3+hNTUrW05y3rL1NfBMtge2j4FospwUC6Lj+ttUBV63Uf2jWLY9ax7Stj6/9X8LnDNw7ze3YzC/h3WBVb7t1F23HRlJByRMiq71bQCWXzFDhfTr7Pznqafl2haN9RYl7H9oq1lSS1DG44dVt7T1j4e2//y9u6me+wE0ZMyfP+wTFw027Vhe1d/nl0vfjnt/9X3lNZ1/nuyun6Vymdwwcr1oNd1cu2Ilpf2WfMEUD4xnj0wqwZBVuBNIdmxUbrMgSQZU5w0IEzD1BTI0f19WaNr4w5VOagT3DQ2yWbVWEk2VLGB4KmdNUsM6DsNJQfYWGE2bGG6u1eGztklybu8dn2lX/rVjOibH87vVpYV8mxOkxhdQRSWt0BPNJgtf9DIMEur7pqRN3oqflOBzbb3bhuQ4SPFnjDWkiycG5Ohba5hayfist3iYskSo3SyX3MZ9PZt2Ghr8Bn6BClbTwV2YuCkS7m9Y9TOfuk1Fa2/I1Yyg7yd/8gO9UquaE3K9FuRie8KbJfSJDmU3YXOh6nUDuky6ddFWqn65bXLmlck5fWWThadZ7qLfye/Va0/2/jLymAS7mq6a1QmSdfs9bqCb7KtimXOUnNtZRVb9rrwd2a/7ZI5+Qu6jjduYC29NS6D+opY6cREsXNR+dcVemrZEwT7uF1/fpuXy9oyrEodoj7DNGAbzgEUoxsmWY8b4waolxZOjcjIsXGZurCQjbnPD7p+WeyVfnMSsnVARnSZyb4ncgconfxKwt69Yix+9T32WIx+XSHsvASxOcqSsL8ruk5SvoymYZZzu1lOVyXn+9HyewBN7lT7j07QtCjsnq+jW3oPhUuQTooee60Jc2KT3Y48oROm5ej6xu5gDq1E5MpcfXp/03WhZZZlZ6G3jAp9Nz2r7fVLQu+PNuyk/cXHmkX4u/zV9U33jOTLrybxTCOSlLdziPnndRLZHgNu99ulog5UvU/tLfTz4bDqt1AXuA80vywbwpYnhvTJRlX7ppH0/eExOUsAJb3t6pSrsCwlN1q4MGVOGkeTW8wn7aDbTP10cELtV/HjSDmhk4s9lz/mb1yxmE80bYfTJa8yVBsgu1gX6/lmy3hQ9+TK9Vt32u51dXFAfV/0LkTLFUxcq6MrubX2gt3fSs8VIimv1Tdgyefz1Otef65qe+i4z/XEsfNl+n2+QfkvhysLNlm+N72DVGaVtlF23Cy2aRemZCQbor8pTyj5num39oX1ita0btDrsjyXYuWxuq1lqVhOVnjssHWnLzfJuqxu746a/T+5+KGOzd33mTpdzelUbu/GwpYX9ZrSus5/T3CsXYXymbeh8h70uk6OzjvrQ3VwaHgsaYO1TQDZLmb+pCgZ1qE3cJ+M+QaHn0jq2oKM+1tyJyeq5u+skKjxgvrELogu6TGVfPKq7DVmI6oNt6DGJvoDp77SmPYmUMt5S7+Mlfa9JVl4Jr/jQVLgk0mDbSN9PLsLmO4en+zAxbtAZaHGajesbPWkZ6ZCOpP27hjbk1d+tuDnBdGsw+ddoTMnzgN+WxQrP2fpjFk+9zk+bAO29/7dMnJwSPq+5pMatnKt7lbrlU72g/VaMWzHhkqelBvNqtJyv2NyT/kzfKPbhm/YZOEOXOUri3nYslE1n439vJ5tA8kY+OLE0NFbQyZh1kGWaNEVWVqp+nVlvzfffpH11iSSMq0TQEfUFXHXaEj3IvOZ97jkSbMEULFrpI3YbeDV3WK27LWTUy8kXTD1Z+dlok+GDoZ3lcvDNsSHk8kuPXuHOjv5eL6fmPDdRy9PpycHupK9ECaKsmFJCZ94cUM2/BXWQpJoOVanDqmx3bMDSDpZ9rC/UnVkWPr1SZw60Nww9dLCtEyYz0m27VtT2ZUYO5xvwl+5e8b9qyK7YvWVfhl2j/krdkvqyo1tUPYdHg96ky0r/DpteNKnf5E6STExdc6U6Qfz+iJ4rT7B1uEmgt2dTcy7JUmYBmW/GIWhXvqKaffdo+E6b9HCqyOmkeXLSzrf3mhVg/nSpIzs6M2HcZpjwZZtQzKu9vecaRaeMMee7LNt/dsjfXsrTsBU3bf8xpXe33Rd6MWWpTe/O2Sm/fVLopSw6JbB0+p42OAq7sh2n0gr/675i/mEmQuvFufwMW2q/SMyrCfdtNtO19uVv0utz8K+bS/Q9dirwnobfjxW3Xvrpq0L9HBdd/HG0CcbDSccLYT/7en7w2PywDNpfTF3btbU6b5cxe5a5IdN5GWpeu4/+1t0AqjiOJIN6S6Xz/y35s/p37/pftMWLdZ5NswJ7m5fTkw5tm2jeVvugvJtY5P0Zz1qYioS0UFPnFTeplx5Yr04n5ZNlg7tVMNqTGzeP9z8JL5hPVhV56l6JWuH1lC601hkWGcWdnhg2Wpuo2xYsa9fluaSSXmz+iwZAqt++4NjQeK/+/YBGbGTF+sFX1YCqP66bGdZavexozxkW5ejXhkpHsvtnZP35vtskshedntXnzeZ6G42BCyiDeXTbJnoMHNdJ/ncQsLNX5fGnEw8rM4Rl91GWZ41TQDNH/azXee3a83H9TcJv4O6bvDdtw+6BqK9K4Wv1NNKcdieaHT3yNCpKRm5Oy0MeQLAFhrdXdmHv3JgCvN536vF72hqstIakd7+27wruINPfnU/24F143S5YdbHb8xOl1X+dv2oYRc+Bk6ongj29pH6Fq4+Gl31vzIv0yfMCcb96fxLwfuS6JYtO0dNQ6xq58g1TADVjPKOrCotV0by76kZ7n36ypoPn9wZO29vNxzryRMJX1atJPFoGzm90p/0HJpKGidJz6Fs++uKLK1U/W9oNgl0/G5X+aR1pQTQ83Z7morcTtZYPBH82JWC7PW6AVB/W/ltlB+wTEP1YH41Mw3z2Zf0tlLzQ9gwB97+u/W6Tq/2zNseaZFtkPUYtPSwj2hsTD4rl6/7oTNzMnu0P9lHwlsEL8/q1CE1tkG2zPpEoRz5FaQbqF6qOJmyE72OL3Ofzw7IfhhSMkTFflv9cl4Kv+7Vcib7Z8Ud8hpvIzXHj+ohkZyAH5ySSdN4ypNxywtftrTkan1lAwcr0/76xVo8qo5XWfnVJyv+8xdl6oQatnNsWE0mm9bDMXOmvRaWMVP2DsyaMqIn+y5Gxa34E2rf0sfIjK2LfEJAJ5tNFNfVzVoX6OFftt6MnGwsJ+znLp4edm2M9G6UpTu6Jj26fLmqlwCaP1SxPLdsNOVjchnrVbdBUrEEkL7YVCu+ujsdQqvnH7Fhex0+VyMta4eeFnoAhpPJWmqbRst7ffYEW+8PXbeZbZ9cMM/nVU2H1aj9PzghVvtTw3pHl3m97tXnZu3QVqjPqbtOVmEblS7M2mWxw5fV9yQ9SpOvKdapxaFohZ5Iq5IAal9Zstp97Jg/MyKDQXvXfFo2JKxZ5L0x4+3dYh3gl9Ouu3p1dGUCqKSF8nlJbW/Vs74yAaR6dhaj4RQibbDmk0DbIUOD24ZkyleUM+FOF41gYihT2NQVKisdu24zh75L/FJ2x6ZigqnrnjGzK5UPtsFEYp7/EKtYCVVE+SDgnFMb3ResyivtNeK+Ufmv5nf7zHjSqC9kdZNluWQK9O3pCfPGhydNpajuLJFEPoN+c0uyeGFKRvf3R0/Cu80BqGr4l9UwARS7tbgPfztSE3USQLEeQA3Dd119ddQN71JJmhh7G1rbtdkOFbu/t5QUCsbrmzJUuWdlJ9p2ffgx+8My+Z45QCV3I/B3BnPhxvsnSU/Xfbc/2tjOb5We3J1AndAHFVGV7PW64q3fGM62kR3eZK+4Jb39dKIh39/yMjEgQ+6uX9lQjmvzMu66/WZDPv1nus+xjQF7xTO8+q8z8oWwDVB7C1X3Sq80/0WhzmlZO+uQYBuohkNFg6Oq91lwF5Qbql5S+7oPt52Wm/TV+8HimQnX0LOqu8Y3jT2uV5naHsm+UPxbCYdf5aG30eK5Eel3Q5p12Vh6a0JG3NwbxfdXR1/hzke4HlalfvF1oZ3LICu/ah9RdUFV79ZouyezaN7neu0Vr5xH97dusXMbVbcmVP1V0biOXxCMDDm7WesC20vUHUN0AnElCSA9X1sQvld20j6KrO9SqPaCPYYkw+V358P1sgtO+jjWnh5AtqzWTorbi8On8/Jkkyu2jAcXkWqyF6SSY53dB/0Ihkx+oXnFJ3aq3dNt5zgtfNfscxOujMT3/+rHi/S20etXb3/V9lg29Tl1T7CNtm+jwqiRpA1ipENg03os78UZX3fJ9AOmDVOaq6iiPZZrZV22sSxZq3XsWHZ715y376w6ZoTnRDl/fmOHyany2koPoJLll88lU5Z8klFvm8oEUOFcKAt7/CrUde229pNAx9heJqf0FQUVZwrd6yrMny/fftuaf97O55KeDO+29+d3n5WeYLs7PZ2arTch45U5mSoun44z4a15S64tJZOMjZ2ubnIt29KsjO4Ydgk127sjTV4EV3Pt5JRmRxpNCpc5lNudav9osszpBNutWfp4ViYO2luWmx1vpxvX2UCemDEn+MkjqoHlkzAx6oS0nPDIkx3J7bXdo9edSgqNVt5FqeD8mCub8bk5rOkDvcnvtrd+Hk2y9C1Q6y+4e06V7PXmYJtdHW6yrdQEdcE2+njc7GN2uW1lnu5vk+fms/0kv+2mWQeLkzK8dyIbMuktvGre464qJGyPiG39MnxsOh0qGjFv3lPcP4vD84psrx07V4GtF+LDT9pgRXWInthTlZnFOZn07zfrNuPKV3J7Xvd8tKfeDVMvLcqsO06kd5RZqHVsWM8WL6bD43REt1GyPociJxlOqStzVdDLZ62sSv1ycbpwMqiOh3qi3+xYk4ed1y86bC6waPbL8nC8YrlNTvAb1K2p5sf7hVN5ey0JUx9MRdfVTVwXmH197vkRGT3TYnugaNG2W+z3pfMaxuuISXf3zXzoXB7D7tiv2wuN6MSabwuG5o/0u+fLn5mXkeKJoREMr4hF7LeZY8/hiiGkdSzNyfT5yLbI2kS9MlKcb6oVpt0zbNu4DdvZS/m8UkEP76rHi3QbQ69fVa80aK8258uRiUZt/pI2b6P3TFvT/Z7dByeDNufSleKXqGX2iV2tuD30ZM2x1+vPqyj/Je0uS9aqHzuMRuf2tr653OoG9VRdUlrX+XqOXyiPabF8mvO/2TOjMqHO/XR9HkwSbo5dU4fU+twzImOmfdyo80S7rM8EEAAAAAAAANqGBBAAAAAAAECHIwEEAAAAAADQ4UgAAQAAAAAAdDgSQAAAAAAAAB2OBBAAAAAAAECHIwEEAAAAAADQ4UgAAQAAAAAAdDgSQAAAAAAAAB2OBBAAAAAAAECHIwEEAAAAAADQ4UgAAQAAAAAAdDgSQAAAAAAAAB2OBBAAAAAAAECHW98JoPNjMnxkXMZPjMvUhQVZuuYeBwAAAAAAQG3rOgE0d7BHNmzYkMZXd8skCSAAAAAAAIBlWxcJoMk9m2Xz18qxqdslf2x0b4q+Jon7RmXefRYAAAAAAABC6yIBNPGgSvS0ErePyJz7LAAAAAAAAITWWQJoQMbeW5CFWjEmAySAAAAAAAAAmlpnCaAt0rdzUAZrRZ9sIQEEAAAAAADQFEPAAAAAAAAAOhxDwAAAAAAAADocQ8AAAAAAAAA6HEPAAAAAAAAAOhxDwAAAAAAAADocQ8AAAAAAAAA6HEPAAAAAAAAAOty6SADNnxuX8RMVcXi39Hxlg2z4+qCMxp4/NiIjx2Zl0X0WAAAAAAAAQmufALo2Kbvv7JfhY9Myf2VeJvf7IV5jMivzMrqty/X06ZKeg7PuTda8TO3vl83dG6Rr26j5CwAAAAAAADFrngBaPNEvXW4oV+/hSRm53Q3r2jAoE/YFH49L/y3+sc0ydG5Ops8siF26qT2b3OMbZeA51Qfo2qyM3r9ZupPnuqVn76QsXHPPAQAAAAAA3GTWOAG0KOP3ux4+t/TL+OJcOQFkX/X8oGzq7pXhVxdELo1Ij3m++/ZBGT83lieHbt0tUy7J4xNDXV/ZbN6XPt9zkFmCAAAAAADAzWltE0AX02SOTdBsfHjSPKATQD0yfCF9mciSLCWLsySz+3vc8xtky/5Z8/eW7O80yTMlu79q/7YJJfPn5VHptc9vG5UF+xEAAAAAAAA3mTVNAE3v3+yGf22R4fPpYxMP+jl/msQtfTJ62bxhcVz6uzdL795xmUsW2SeRemTozJzMHu2Xjeb1XQ/6/kQAAAAAAAA3lzWfA2jprQkZ3j+eT+J8YUR6sjl/qqJbeg/lE0KnvYNyyZAx/fpbemQk600EAAAAAABwc1nzBFDUlXmZPhW55XsSUzL7cfNlWzw/JsPJ3cSGZfytNfwtAAAAAAAAa2x9JoAAAAAAAADQNiSAAAAAAAAAOhwJIAAAAAAAgA5HAggAAAAAAKDDkQACAAAAAADocCSAAAAAAAAAOhwJIAAAAAAAgA5HAggAAAAAAKDDkQACAAAAAADocCSAAAAAAAAAOhwJIAAAAAAAgA5HAggAAAAAAKDDkQACAAAAAADocCSAAAAAAAAAOhwJIAAAAAAAgA5HAggAAAAAAKDDkQACAAAAAADocCSAAAAAAAAAOhwJIAAAAAAAgA5HAggAAAAAAKDDkQACAAAAAADocCSAAAAAAAAAOhwJIAAAAAAAgA5HAggAAAAAAKDDkQACAAAAAADocCSAAAAAAAAAOhwJIAAAAAAAgA5HAggAAAAAAKDDkQACAAAAAADocCSAAAAAAAAAOhwJIAAAAAAAgA5HAggAAAAAAKDDkQACAAAAAADocCSAAAAAAAAAOhwJIAAAAAAAgA5HAggAAAAAAKDDkQACAAAAAADocCSAAAAAAAAAOhwJIAAAAAAAgA5HAggAAAAAAKDDkQACAAAAAADoaCL/P/YGYrVWAEF5AAAAAElFTkSuQmCC;" vertex="1" parent="1">
          <mxGeometry x="-390" y="862" width="868.06" height="214" as="geometry" />
        </mxCell>
        <mxCell id="ixYg1scpjvnWDyzN9siH-5" value="" style="shape=image;verticalLabelPosition=bottom;labelBackgroundColor=default;verticalAlign=top;aspect=fixed;imageAspect=0;image=data:image/jpeg,/9j/4AAQSkZJRgABAQEAYABgAAD/2wBDAAMCAgMCAgMDAwMEAwMEBQgFBQQEBQoHBwYIDAoMDAsKCwsNDhIQDQ4RDgsLEBYQERMUFRUVDA8XGBYUGBIUFRT/2wBDAQMEBAUEBQkFBQkUDQsNFBQUFBQUFBQUFBQUFBQUFBQUFBQUFBQUFBQUFBQUFBQUFBQUFBQUFBQUFBQUFBQUFBT/wAARCAHOAbADASIAAhEBAxEB/8QAHwAAAQUBAQEBAQEAAAAAAAAAAAECAwQFBgcICQoL/8QAtRAAAgEDAwIEAwUFBAQAAAF9AQIDAAQRBRIhMUEGE1FhByJxFDKBkaEII0KxwRVS0fAkM2JyggkKFhcYGRolJicoKSo0NTY3ODk6Q0RFRkdISUpTVFVWV1hZWmNkZWZnaGlqc3R1dnd4eXqDhIWGh4iJipKTlJWWl5iZmqKjpKWmp6ipqrKztLW2t7i5usLDxMXGx8jJytLT1NXW19jZ2uHi4+Tl5ufo6erx8vP09fb3+Pn6/8QAHwEAAwEBAQEBAQEBAQAAAAAAAAECAwQFBgcICQoL/8QAtREAAgECBAQDBAcFBAQAAQJ3AAECAxEEBSExBhJBUQdhcRMiMoEIFEKRobHBCSMzUvAVYnLRChYkNOEl8RcYGRomJygpKjU2Nzg5OkNERUZHSElKU1RVVldYWVpjZGVmZ2hpanN0dXZ3eHl6goOEhYaHiImKkpOUlZaXmJmaoqOkpaanqKmqsrO0tba3uLm6wsPExcbHyMnK0tPU1dbX2Nna4uPk5ebn6Onq8vP09fb3+Pn6/9oADAMBAAIRAxEAPwD9LLG1SxtIoE+7GuM+p7k+5PNZOteNNM8PySpfC+jWLbulj025kiGcY/eLGVPUDg9eOtbteE/FbR4IdalmbQIbSC7cmS5vrvTo2umVgGaNpiXT5dpB3Y4wYvmJoA9gtfFFjd2l5c4vLaC0TzJnvLGe2AXBJI8xF3YAOcZxx6is2P4oeEZJo4x4j01XePzR5lwqADIGGJOFbn7pw3Xjg15UNDl/4V/qN8ujXGjyTgM98kFrAlzbiQbYzFEQY9zYb7rnbx5hBGNbXptUkm17VIBqraZZXFx5s0Us4VBGTvwo1NMgYP3UX2UdKAPTr7xjoemyQrd6taWwmh+0RyTShY2jJADBz8vOeOeecZwaji8baPNZ3d4lzI1laoZHuvs0vkuucfu327ZcngbC2eMda5rSrHXv+E58SmPUbGO48m02Ge1knRIczhUX96hBO0Mck8sfrXLR2et/8Kp0ic6rbQ2cM8cqmIC08rEpw0ssjSBlB6Kse7dsIzjBAPT9Q8ceHtJ1KXT77WrGxvIkSR4rm4WMgNnHLEAn5TwOQCCeozcOv6ct41q95FFcL5eEkOzfv4QqT94E8DbnkEdeK8VfT7Ow12xsYXht2uvL2abHDNDbyyMxKrcwysJbhQTjzFyE2EPGoUrUXjGUWfibVbW90vTlvGInKx21qr3CyBXz5kts5kRWWRS2zJYDJzQB7lpetWOtQrLZXKTqyCTAyGClmUEqeQCUYDI52n0q7Xj3wPu3GqX1q9tFbSG33yG1jto45Cr7QdsVvGwIycZZh8x4r2GgAooooAKKKKACiiigAooooAKKKKACiiigAooooAKKKKACiiigAooooAKKKKACiiigAooooAKKKKACiiigAooooAKKKKACiiigAooooAKKKKACori6hs4vMnlSGPcq75GCjJIAGT3JIA9zUtU9X+xf2Xdf2l5P2Dy28/z8bNmOd2e2KAJ7m6hs7eSe4lSCCMbnkkYKqgdyT0FS15npf2j7dYf279o/4RrzB/ZX2v72/P7v7VnnP/PPd7bvnxXplABUdxbxXUEkE8aTQyKUeORQyspGCCD1BHajzvajzvagCnceH9OutHOktaRpppUJ9mhHloFByAAuMDI7VlXXw18LX3203Og2NxJePI800kIaUs+dxEh+ZTzxgjHbFdD53tR53tQBS1Lw5pOsbvt+l2V9uKlvtNukmSoYKTkHpubHpuPqag0/wboGk3SXNjoem2VymSs1vaRxuuQQcEDI4JH0JrU872o872oAZeWNtqVu1vd28V1AxBMUyB1JBBBIPHBAP1AqrD4d0q3uZriLTLOO4mlE8kqW6B3kGcOxxksNzcnnk+tXfO9qPO9qAIo9NtIb6a9jtYY7yZQstwsYEjgdAzYyQPerNR+d7Ued7UASUVH53tR53tQBJRUfne1Hne1AElFR+d7Ued7UASUVH53tR53tQBJRUfne1Hne1AElFR+d7Ued7UASUVH53tR53tQBJRUfne1Hne1AElFR+d7Ued7UASUVH53tR53tQBJRUfne1Hne1AElFR+d7Ued7UASUVH53tR53tQBJRUfne1Hne1AElFR+d7Ued7UASUVH53tR53tQBJRUfne1Hne1AElFR+d7Ued7UASUVH53tR53tQBJRUfne1Hne1AElRXFrDeReXPEk0e5W2SKGGQQQcHuCAR7il872o872oAS5tYby3kguIkngkG145FDKwPYg9RUtR+d7Ued7UAR0UUUAFFFFABRRRQAUUUUAFFFFABRRRQAUUUUAFFFFABRRRQAUUUUAFFFFABRRRQAUUUUAFFFFABRRRQAUUUUAFFFFABRRRQAUUUUAFFFFABRRRQAUUUUAFFFFABRRRQAUUUUAFFFFABRRRQAUUUUAFFFFABRRRQAUUUUAFFFFABRRRQAUUUUAFFFFABRRRQAUUUUAFFFFABRRRQAUUUUAFFFFABRRRQAUUUUAFFFFABRRRQAUUUUAFFFFABRRRQAUUUUAFFFFABRRRQAUUUUAFFFFABRRRQAUUUUAFFFFABRRRQAUUUUAFFFFABRRRQAUUUUAFFFFABRRRQAUUUUAFFFFABRXl/7U3/ACbF8Xv+xP1j/wBIpq/Pv4qeE/D9v/wuLyfC/hKDyPAcE0P2f4Daxp/kyH+1cyRb5D9gk+Vc3suY22Jgf6M+QD9StV1Wy0LS7zUtSvLfT9Os4XuLm8upVihgiRSzyO7EBVVQSWJwACTVqvn39oKS9vvjF8PtIj0nxp4i06fQdcu5tJ8F+I20aZpY7jSljnlf7baB1RZpVCl2IM2QvUjg9D+Ht7pPiqw0LRvhR8RNN8GQeFb2N9B8S+L2ubWSWC90s2gsZF1G6jtLuCJblrc7rc71XbLGEaSIA+tI9VsptUuNNjvLd9Rt4Y7iazWVTNFFI0ixyMmchWaKUKxGCY3A+6cWq+QfH3jWWz/aJ0+wHxA+KVnAdN1xnex+Hcd1NZsl3p6rb2Up0SR5bQh23yK0qkw2xaTJQvg/tKzRt+0Rq+oy/DC/8Salo3/Cv/7N1yNNMZ7XPiK5dvIea5SSP7QWNuMBcvE3mbItsjAH25RXxb+wDDa6VqkNrp3w+uPCMF58MfCN5dXyx2EUOoXAbUQbthbzM7NcBiVaRQ+IH8wRnyw/2lQAUUUUAFFFFABRRRQAUUUUAFFFFABRRRQAUUUUAFFFFABRRRQAUUUUAFFFFABRRRQAUUUUAFFFFABRRRQAUUUUAFFFFABRRRQAUUUUAFFFFABRRRQAUUUUAFFFFAGD478G2XxD8H6r4Z1OW4j0rVYTaXyWzKrT2zECaAsQSqyx742ZcOFdijI4V15f4qfA/SvilpfiK1bWNW8Nz+I9Nj0XV77RmgM15p6LdAWpFxFMiLm9nO+NVkyR8+ABXo1FAGDpfg2y0vxhr3iYS3Fxqurw2tpI8zLthtrcSGGCNVAG0ST3Mm5tzlp2BbYsaJa8TeGdN8ZaHc6PrFt9t0u62i4tWkZUnQMGMcgUjfG2NrxtlJELI4ZWZTqUUAeN3H7Pes3XifT/ABDL8ZvHjaxYWdzYW1z9l0IbILh4JJk2/wBmbTua1gOSCRs4Iy2bXiz9ne18YW873XjPxNb6zcTaPLPrdsLAXMi6ZIZ7SMo1q0IUXTyXLYjDM8jLu8kLEvrVFAHB/D34N6L8M9cvr/Rrq/8Assuj6XoFpplxIj2+nWNgsy28UJ2CRubiVmaZ5GJbqAAK7yiigAooooAKKKKACiiigAooooAKKKKACiiigAooooAKKKKACiiigAooooAKKKKACiiigAooooAKKKKACiiigAooooAKKKKACiiigAooooAKKKKACiiigAooooAKKKKACiiigAooooAKKKKACiiigAooooAKKKKACiiigAooooAKKKKACiiigAooooAKKKKACiiigAooooAKKKKACiiigAooooAKKKKACiiigAooooAKKKKACiiigAooooAKKKKACiiigAooooAKKKKACiiigAooooAKKKKACiiigAooooAKKKKACiiigAooooAKKKKACiiigAooooAKKKKACiiigAooooAKKKKACiiigAooooAKKKKACiiigAooooAKKKKACivzd8T/ABOEXju2hv8AxzpME7/ELxFY6hDqHxu1fR5hZxS6sIIrmziUpp8KmK2CPGW3FIFwBO2327wz8SNa039jO28Q2Pia/S6fxg2mprWk3b+JbhLGTxWbMi1muIpXvcWzlInaJ2cBCEzgUAfWlFfG/wDwkf8AwrubTZvC3xD+LU02r+MNJ+1ab4k8B/YNLm+2anawXm6R9GgS38xJJXOySPdNIz/NJIxer8evjNo3gv4/W/8AwlHxMuPDXiW3029sdE0nwXqeilra3ea2lmi1BtVgEcE08Udpco8kkaFY5IUG+NZLwA+0qK85+AHidfFHw0sppPH+k/EnUYJpor7WtGu7a5hWVnMq25ktkjjZoopIo94iiMgUSGOPftHo1ABRRRQAVJb273UmxNu7GfmOBUdXdH/4/Djr5Z/mKAD+x7j1j/76P+FH9j3HrH/30f8ACvEF/aa1HWrq70z/AIR5tF1Dw/rmn6N4l8rU0YWV1cX0UcUULSWxFxFJA/nM+IiEkRQVkLeVnWP7ZdxdatqunL4Pjv5ZI0bw7dadd3wstYMl7DaRn7Tdafbx+WXuYHMlu1ymwuQW+QSOPvW5db7fcn+KenfoOS5b36f52/Pft1PoD+x7j1j/AO+j/hR/Y9x6x/8AfR/wrwHXv2uPEXh+TWdPm+Htnc654bh1C68Q2tt4hJgt4rVbOUm1le1U3DPDfRMqukI3Kysyj56TVP2pvEOk+KBpdz4NI162um0uXR7XW4ns5ZpLrS44ZfPe1WTITUkY/dClZF2yfI4IpycUvtarzE/dvfp/X9f8FHv/APY9x6x/99H/AAo/se49Y/8Avo/4V41b/tFeMdQ1u48JWXgLRpPHljNefb7ObxNImmQ29vFayGVLoWRldn+2wKE+zLyJMsAql/Xvhz4tPj74f+GvExtPsB1nTbfUDaiXzfJ82JX2b9q7sbsZwM46ChK8eZbafje35P7hXs7ddfw/r7tdif8Ase49Y/8Avo/4Uf2Pcesf/fR/wrbopDMT+x7j1j/76P8AhR/Y9x6x/wDfR/wrbooAxP7HuPWP/vo/4Uf2Pcesf/fR/wAK26KAMT+x7j1j/wC+j/hR/Y9x6x/99H/CtuigDE/se49Y/wDvo/4Uf2Pcesf/AH0f8K26KAMT+x7j1j/76P8AhR/Y9x6x/wDfR/wrbooAxP7HuPWP/vo/4Uf2Pcesf/fR/wAK26KAMT+x7j1j/wC+j/hR/Y9x6x/99H/CtuigDl2Vo5ZI3ADI204OR0oqS6/4/rr/AK6f0FR0AFFFFABRRRQAUUUUAFFFFABRRRQAUUUUAFFFFABRRRQAUUUUAFFFFAHl+m/BP+y/DHh6CLWd3iLQ9Y1PxLbag9rm0fVL5L8TM9vv3m2D6lOywiYOFWNTMxDM1Xwj8Dr3StH8Madr3iG31iDS9e1PxPew2mnNawahf3N5cXUIMbzShYYJLp5FRi7edDayiRDEVf1qigArxv8A4Zwj0Xxldat4K8W3/wAMtHk0ez0lNC8I6VpkVuPIub24MhFxazKNzXz/ACxqnO4sX3DZ7JRQBwfwp+GN38NpfF0t94ov/F114g1hdWe+1O3t4bhMWVpaiNvs8ccbYFoCGWNOGAIJBdu8oooAKKKKACruj83hH/TM/wAxVKqepWdzeRILTVLvSJlbd59msTMRgjaRIjrjnPTPAoAzoP2e/AFvJYyJoTebaKgEjX9yzTlLsXivcEyZuHFxuk3y72zJLziWQNl2v7LHw1tre5gbRb67hmsm09Fv9cv7oWtuZIpVjtvNnb7MEkgidPJ2eW0alNpFa39j67/0O+uf+A9h/wDItH9j67/0O+uf+A9h/wDItH9ffv8AeNtt3e/+WxHZfs8+ArHSbnT10e4uIbq0vLG5mvdUu7m5uYrpo2uPNnklaWRm8mIb3YsojVVIAxVy++B3gnUfEcmvXGi+Zq0l0l61x9rnGZle1dW2h9vDWNqcYx+66fM26v8A2Prv/Q765/4D2H/yLR/Y+u/9Dvrn/gPYf/ItNNpprdbeXUm267nL/GT9m+P4hf6V4a1K18Ka1PeTXl3qzDUzcu0kEULLHJZ6jZuilIIdyFmjYxISm4Zr1HwX4VtfAvg7QvDdjJLLZaPYwWEEk7BpGSKNUUsQBliFGeOtct/Y+u/9Dvrn/gPYf/ItH9j67/0O+uf+A9h/8i0l7qcVtp+Gi+4b95pvpf8AHVnodFeef2Prv/Q765/4D2H/AMi0f2Prv/Q765/4D2H/AMi0Aeh0V55/Y+u/9Dvrn/gPYf8AyLR/Y+u/9Dvrn/gPYf8AyLQB6HRXnn9j67/0O+uf+A9h/wDItH9j67/0O+uf+A9h/wDItAHodFeef2Prv/Q765/4D2H/AMi0f2Prv/Q765/4D2H/AMi0Aeh0V55/Y+u/9Dvrn/gPYf8AyLR/Y+u/9Dvrn/gPYf8AyLQB6HRXnn9j67/0O+uf+A9h/wDItH9j67/0O+uf+A9h/wDItAHodFeef2Prv/Q765/4D2H/AMi0f2Prv/Q765/4D2H/AMi0Aeh0V55/Y+u/9Dvrn/gPYf8AyLR/Y+u/9Dvrn/gPYf8AyLQBv3X/AB/XX/XT+gqOq2n2stnaiOe9n1CbJZ7m5CCRyTnkIqrx04A4AqzQAUUUUAFFFFABRRRQAUUUUAFFFFABRRRQAUUUUAFFFFABRRRQAUUUUAFFFFABRRRQAUUUUAFFFFABRRSqrO2FVmPooJNACUU/7PL/AM8ZP++D/hR9nl/54yf98H/CgBlFP+zy/wDPGT/vg/4UfZ5f+eMn/fB/woAZRT/s8v8Azxk/74P+FH2eX/njJ/3wf8KAGUU/7PL/AM8ZP++D/hR9nl/54yf98H/CgBlFP+zy/wDPGT/vg/4UfZ5f+eMn/fB/woAZRT/s8v8Azxk/74P+FH2eX/njJ/3wf8KAGUU/7PL/AM8ZP++D/hR9nl/54yf98H/CgBlFP+zy/wDPGT/vg/4UfZ5f+eMn/fB/woAZRT/s8v8Azxk/74P+FH2eX/njJ/3wf8KAGUU/7PL/AM8ZP++D/hR9nl/54yf98H/CgBlFP+zy/wDPGT/vg/4UfZ5f+eMn/fB/woAZRSZ5YYIKnBBGCKWgAooooAKKKKACiiigAooooAKKKKACiiigAooooAKKKKACiiigAooooA+X9Y/aW+J2n/2HPJ4K8B2du259Xgj8ZXWpz2Un76GOxkW0052iuZLqKWFGVZo5JbSa2U+dLCG6jVvjh8R9N0O0uo/APhK/vrnxIPDkFtZ+NpJku3LRRtJAyaezv5D/AG77RG8aPCmnzvh1HHjeuaR4UXxxoL33g74l2v8AZ/iS9065h03R9fX+zLG3i1SOPUINQ063ilvJLuaSOZnnmumX+0rraV82ZzV+MH7OzfFj9nvRl+HHwvuLWePUtXgj8O+I9RurNfs0OjXmj2F68F4ARN5dppckIkjDozD95GHmmIB7J4T+KHxBm8SeB5NS17wzrGga74q1bwrc29r4YuNOuopbGHU98qSNqVwu0zaaQAUyUkBO08D6Cr5L8bfs/wBxZ+LtAvLzw74D1rxZqXiTTNWh1Twr8N5tNu43t9Ws7q9ubjU2urhIs263PyyFHmZiqM7ZRvrSgAooooAKKKKACruj/wDH4f8Armf5iqVXdH/4/D/1zP8AMUAch4c/aR+Gni34ta18MtJ8W2d5450dGe90lUkVk27dwWRlEcjLuG5UZivOQMHFb4e/tRfCr4q3ni228LeNdP1SXwoX/tniSFbVULBpN0iqHjGxv3iFk468iuW8D/sT/Db4f/tE+IfjPpkWpt4r1rzne3nuVaztpJsedLEgQMGf5s7nYDe2AOMZ3wd/YF+E/wAEbr4gy6HZ6ldx+Nreaxv7fUbsPHBaSli9tBsVSqHd1Ys/yr83rHvci78rv/i6L0/rydacz7cyt/h6v17f0zrvCX7XHwh8c/C/xB8RNE8bWd34P8PlhqeoNDNE1qVAOGidFky2Rtwp3k4XJ4pLn9rr4Q2nwZh+K8vjazHgGaYWyaqsE7MZi+zyvICedvyCSmzIALEY5rhfAP8AwTz+FHw7+BvjT4V2X9tXuh+LnD6lfX14jXu5MGEoyxqi+WwDL8h5zu3DikvP+CefwpvP2a7b4Jk63H4at9QGqpqSXcf9o/a8nMxcxmPJQmPHl7dp4APNXPry/wB23/t362+W/SY9ObvK/p9n/g/0n3/jj9rT4R/DjwL4X8Y+IfG9jY+GvExUaRfpHLOLrcu7IWNGZVA+8zABCQGIJxVzx7+058Lvhh4o8KeHvE/jPT9L1bxVtOkRMHkS4VmCq5kRSkaMWADuyqecE4OPN/id/wAE9/hP8VPhT4B+H2ox6xp+ieCcjTJtOvFW4ZGA81JWdHDCRgGbAByPlKjitD4ufsH/AAq+NHjLwD4j12z1K3m8G28NlZWVhdCO3uLaJg0UE4ZWZkU5xsZGO5sk8Yv3faW+zzf+S239b/r84972d/tcvy5r7elv67fRFFFFQWFFFFABRRRQAUUUUAFFFFABRRRQAUUUUAFFFFAHN3X/AB/XX/XT+gqOpLr/AI/rr/rp/QVHQAUUUUAFFFFABRRRQAUUUUAFFFFABRRRQAUUUUAFFFFABRRRQAUUUUAFFFFABRRRQAUUUUAFFFFABVe8vtT09Um0q0tL2fO14ry5a3XaR1DLG5zkDjb681YooAzv+Eq8Yf8AQuaH/wCDyb/5Do/4Srxh/wBC5of/AIPJv/kOtGigDO/4Srxh/wBC5of/AIPJv/kOj/hKvGH/AELmh/8Ag8m/+Q60aKAM7/hKvGH/AELmh/8Ag8m/+Q6P+Eq8Yf8AQuaH/wCDyb/5DrRooAzv+Eq8Yf8AQuaH/wCDyb/5Do/4Srxh/wBC5of/AIPJv/kOtGigDO/4Srxh/wBC5of/AIPJv/kOj/hKvGH/AELmh/8Ag8m/+Q60aKAM7/hKvGH/AELmh/8Ag8m/+Q6P+Eq8Yf8AQuaH/wCDyb/5DrRooAzv+Eq8Yf8AQuaH/wCDyb/5Do/4Srxh/wBC5of/AIPJv/kOtGigDO/4Srxh/wBC5of/AIPJv/kOj/hKvGH/AELmh/8Ag8m/+Q60aKAM7/hKvGH/AELmh/8Ag8m/+Q6P+Eq8Yf8AQuaH/wCDyb/5DrRooAzv+Eq8Yf8AQuaH/wCDyb/5Do/4Srxh/wBC5of/AIPJv/kOtGigDO/4Srxh/wBC5of/AIPJv/kOj/hKvGH/AELmh/8Ag8m/+Q60aKAK9lNe3MJm1CCC2u5GLPDbStLGvOAA7KpPAH8I5zViiigAooooAKKKKACiiigAooooAKKKKACiiigAooooAKKKKACiiigAooooAKK8lb9p/wAFS6Xqd3ZweJr2fTdStNKuNMHhjULe/NxOok2RW08Mck7R25N1IkKu6wIZNpBXd1Gi/FbR/FHhvSNf0S11bVdI1DUn0t5o9MmimspUmkt3a4t5VSdFS4iMTnyyULb3CxK8iAHZUVg2fjKyvvHeseE44rgajpem2WqTSsq+S0V1LdRRqpzksGspdwIAAZME5IHl8X7YXw/vrjw9Hpln401hNcha8tJrHwRrDq1msYc3a5tQZId0lum6IPhrmHICsWAB7dRXkt1+1L8P7LS3v55PE0cEWpLo8yHwdrHnW94y27RwyxfZN8TSC8tvL3qPMMoCbiCAeH/2gjrHiTw7pV74B8TaFBrupXWj2uqXV3pFzareW8NzLLC5tL+Z1ZRZ3CH5PldCrYNAHrVFFFABRRVnTrdLm52SDK7ScZI7igCtRW5/ZNr/AM8z/wB9t/jR/ZNr/wA8z/323+NAGHRW5/ZNr/zzP/fbf40f2Ta/88z/AN9t/jQBh0Vuf2Ta/wDPM/8Afbf40f2Ta/8APM/99t/jQBh0Vuf2Ta/88z/323+NH9k2v/PM/wDfbf40AYdFbn9k2v8AzzP/AH23+NH9k2v/ADzP/fbf40AYdFbn9k2v/PM/99t/jR/ZNr/zzP8A323+NAGHRW5/ZNr/AM8z/wB9t/jR/ZNr/wA8z/323+NAGHRW5/ZNr/zzP/fbf40f2Ta/88z/AN9t/jQBh0Vuf2Ta/wDPM/8Afbf40f2Ta/8APM/99t/jQBh0Vuf2Ta/88z/323+NH9k2v/PM/wDfbf40AYdFbn9k2v8AzzP/AH23+NH9k2v/ADzP/fbf40AYdFOmjEN1cRrnar4GTnHAptABRRRQAUUUUAFFFFABRRRQAUUUUAFFFFABRRRQAUUUUAFFFFABRRRQB+VfxM+JHxH0/wAMfEnTrDxhr0usW3iTUL+9udKt5NJzPEni1JHhlWaCaa2SHSLBlElzciL7KIgJvJ+zH2TwLp2r/Dv4Q67PrFx4t0O68C/Ejw/ptjpNnqeon7Lp0x0ASWgs4dRvhcRtFNIEgMs+POYIqFzGPuaTS7KbVLfUpLO3fUbeGS3hvGiUzRRSNG0kavjIVmiiLKDgmNCfujFXQfCui+Fv7R/sXR7DSP7RvJNRvfsFskH2q6kx5k8u0DfI2Bl2yxwMmgDwf4d+PtS1j49XHii90z+yvDvizzvCNibna1wLvSo/PW3dY5HCyCeXxLHI/MTDT4NjYZHuOD8SeCfEXjTXPDdpJ42sNY0XV/El1o0cmtafc6va3uo2y61PfRmzea2fT7ZX+22myO4uvtFvDawO3kCZZ/rRPCuix6HYaKmj2C6PYfZ/smnrbILe3+zsj2/lx42p5TRxsmANpRSMYFcbqv7Nvwk13VLzUtS+FvgvUNRvJnuLm8uvD1pLNPK7Fnkd2jJZmYklickkk0AfKv7SWu+LfAXwO0HWLP4p3/iaGy8Saq73sfh4y3Darp+kXzbWikEyG2XVtOubgq8LJCJIjC8EdnG9dRrXhnxJ4d1LQNcjtviX4TsdO8eWes2en+IpPDU+mLPq2sra3sKm0M10d0OrX23e+FznduVK+tPDPhXRfBOh22i+HtHsNB0e23eRp+mWyW1vFuYu22NAFXLMzHA5LE96NQ8K6Lq2uaTrV9o9heaxpPnf2dqFxbJJcWXmqEl8mQjdHvUBW2kbgMHNAGpRRRQAVd0f/j8P/XM/zFUqY3iLS/DTrc6vqNrpls+YlmvJliQseQu5iBnCn8qAPmT4S/Df9pPSf24/HniTxV4hnn+Dd0tx/Z9rLqay2skbBfs0cFqGJhkj43uUTdtflt3OL+y38Lf2rfDOqfG5/iL4raYanb3CeF5dR1JL2Fb4mTyrmCMM/wBntxlf3RCdV+T5a+tv+FreCf8AocdA/wDBnB/8VR/wtbwT/wBDjoH/AIM4P/iqjl9xQvtFx+T6+vn/AJFc3vOXeSl93T07r9D4w+Cfwl/a00b9j34q6D4o8S3w+JmoSE+GTqGtpd30CYXzgLwSMEMihljzJ+7b5vk60mqfCX9rST9gWw8MReJL9vjEurLNM0WuImpHTvMJEBv/ADAplDbXLebygKbj90/aH/C1vBP/AEOOgf8Agzg/+Ko/4Wt4J/6HHQP/AAZwf/FVc/fvfry/+S/59fn3ZMfctbo5P/wL/LofGv7Q3wn/AGtNf/Zw+DOkeDfFF0fH+mkf8JVNpesJYzzPsHlO85dBKkY3LIoLb2Iba+M1u/tNfDH9qbxJ8Wvgte/DzxU1voem21uniSWy1FbS0+1rIpuJ7i3JU3ELr92MI+NrfKu7n6t/4Wt4J/6HHQP/AAZwf/FUf8LW8E/9DjoH/gzg/wDiqvm/ee0/vc3zta3p5enZEcq9n7P+7y+dr3v6+f8AmzqqK5X/AIWt4J/6HHQP/BnB/wDFUf8AC1vBP/Q46B/4M4P/AIqoLOqorlf+FreCf+hx0D/wZwf/ABVH/C1vBP8A0OOgf+DOD/4qgDqqK5X/AIWt4J/6HHQP/BnB/wDFUf8AC1vBP/Q46B/4M4P/AIqgDqqK5X/ha3gn/ocdA/8ABnB/8VR/wtbwT/0OOgf+DOD/AOKoA6qiuV/4Wt4J/wChx0D/AMGcH/xVH/C1vBP/AEOOgf8Agzg/+KoA6qiuV/4Wt4J/6HHQP/BnB/8AFUf8LW8E/wDQ46B/4M4P/iqAOqorlf8Aha3gn/ocdA/8GcH/AMVR/wALW8E/9DjoH/gzg/8AiqAOqorlf+FreCf+hx0D/wAGcH/xVH/C1vBP/Q46B/4M4P8A4qgCa6/4/rr/AK6f0FR1DbarZ635t9p91DfWczny7i3cPG+PlJVhwRkEcelTUAFFFFABRRRQAUUUUAFFFFABRRRQAUUUUAFFFFABRRRQAUUUUAFFFFABRRRQAUUUUAFFFFABRRRQAUUUUAFFFFABRRRQAUUUUAFFFFABRRRQAUUUUAFFFFABRRRQAUUUUAFFFFABRRRQAUUUUAFFFFABRRRQAUUUUAFFFFABRRRQAUUUUAFFFFABRRRQAUUUUAFFFFAFWPVbKbVLjTY7y3fUbeGO4ms1lUzRRSNIscjJnIVmilCsRgmNwPunBearZafcWNvdXlvbT30xt7SKaVUa4lEbymOME5dhHHI+0ZO1GPRSa/PH4YfE34oXHi7w74vvtS8eNfa5o/w+/tO8voPDY0+a3vtWuYn3pCvnLbOJ5xB5YE6szGbaojI4Pw3Z6Fo37I/hfSbnwboPiDVNT1jSU1XSWe68nF1aaCPPs7O2s7hjJLYXFrFNelUmguryf7OzNcxRyAH6lWeq2WoXF9b2t5b3M9jMLe7ihlV2t5TGkojkAOUYxyRvtODtdT0YGrVfl/4F+J/ha++KvhTV7fwf8JZdWi8YR6DZDT4LHUJYrV9ZhtY5La4bWRdSeVDFE1tL/ZqrFGqrCkVua/UCgAooooAKKKKACprS2N3N5YbZ8pbOM+n+NQ1d0f8A4/D/ANcz/MUAUr2S3sHCyXDEbthZYuFPvz7dq0U0fzFVluVZWGQypkEevWue163aIGHqyv8Apg81i/Z5P7v6igDvP7Db/nuP++P/AK9H9ht/z3H/AHx/9evO7y1lbZhfXuKgjt7iN1dAUdTkMrYIPqKAPS/7Db/nuP8Avj/69H9ht/z3H/fH/wBevGNR8C3Ov6WdP1DxP4sNkL25vljs/EFzZSq82Dt+0W7xzGONi5SJpCi79u0qkapYuPBL6n4h0rWdT8QeKL+602ztbSKGPxDeWNtK8LuxuJre0lhimkkLgPvVkIRQFUZBen9f1v8A1cOn9d/8tT1/+w2/57j/AL4/+vR/Ybf89x/3x/8AXrzGax1W6uvFcl34p1yaLXoEtktUuEgTS41DgizaFEeN28wkyMzycLhhsXGD/wAK1tG0b+x38ReMn0oXpvkh/wCEu1NZ0YxCPy/tguBdNFkF/LaYruJOMYAnX+v6/r8R/wBf1/X+R7Z/Ybf89x/3x/8AXo/sNv8AnuP++P8A69eQ6z4an8RaJoWkar4n8TXFlpcHlO1nrE2m3F/IFCrNcXFmYZmcAN8qusbFyWRiEKuuNG1VvANx4Us/GfiPTYpHIj1aO6jn1KCAn/ULcTxyMwAyvmvum5z5m7DVVtf6/rz9PPQXb+v6/r1PXP7Db/nuP++P/r0f2G3/AD3H/fH/ANevOdQ0uTVvGll4jvNX1p2sY0S00u31S4tbCNgWLSSQwuguC+VBFx5ijYNiplt1Xwz4a/4RXxZc+ILfXPEV3c3Yn+1Wupa3dXlnIZJA4ZLaWRo4CmCqiBYwFYggjGD1/rsH/A/4P9dT1D+w2/57j/vj/wCvR/Ybf89x/wB8f/XrH/4TKX0h/wC+G/xqK88U6neWN1Bps1laajJC621xdWzzxRy7TsZ41kQuobBKh1JAIDLnIQG7/Ybf89x/3x/9ej+w2/57j/vj/wCvXO+DdX8Vx6prEfiq50S605nR9Mn0m2mt5VT5g8c6PJIGIwhDowzvIKLt3P3FN6CTuZP9ht/z3H/fH/16P7Db/nuP++P/AK9a1FIZk/2G3/Pcf98f/Xo/sNv+e4/74/8Ar1rUUAZP9ht/z3H/AHx/9ej+w2/57j/vj/69a1FAHMSI0U0sbEMUbbkDGeAf61XW+t5L2WzW4ia7ijSWS3DgyIjlgjFeoDFHAPQlGx0NW7r/AI/rr/rp/QV8yeINF8MaR8UtUOteAbDVZXjvNXmWSy0j7TNaRyYNxcGWdYo4A9w5WXCTy7FEuBbs0/o4PCxxTlFys0rrb9Wv68jgxeJlhlFqN03br+iZ9IWd9b6hC0trcRXMSyPEXhcOodHKOuR3VlZSOoKkHkVPXydH4VtL34K3d7B8PrDSp7zVNDuBYTaXZPGdQN+kVzDGFud5jV3ljEFw0TxiWWMuqHZFD4N02XT18JNo32rSLw6/qFtqenaHPJa2wu49etT5MttBM8W9bFro7CX/AHEedzJErL67yem1Jxq7Scdl0jzXbUvk99TzFms04qVLePNu+9tE18/Q+t6pQ65p1xb6dPFf2ssGpY+xSJMpW6zG0g8o5+fKKz/Ln5VJ6Cvm+O61Pwv8SvGOjNY2uh61rtvJfpHbzQW0ur2tvf30jeWbTzJ0me3uYMSeQ0zi3nC7XUSr1ul65fWfhVmtT4dn0e28R6PaR6TC0up21tFPNasv2e4ZIAABdW80QCSLFt2qxUokHLUytwtaV07WfR308+rt20d2nodEMyU942avdddNfLor99VZNanuFZfiHxTovhGyS813V7DRbR5BEtxqFykEbOQSFDOQCcKxx1wD6V8+W+keBdf8V+F9U0X4W6Prum3Vnr8Is9Hs9PeOYW2oWsEd1mVoo2BVWIIJIExAyMmqWta9Y+Hvi14ylg07w74H1Ke8gittW1HUotMF2LOewvLmOV0jfm6W+Ylw7F0jjV4lKMTtTylTmoczbs217qekuV/ae2rvZ7GVTNHGHNyq10k9WtY8y+yt9FufSHh7xTovi6ye80LV7DWrRJDE1xp9yk8auACVLISAcMpx1wR61qV5V8G/ElzrXirxsZ/7Hni1CSz1uC60LVDf2zJJCbMxiQxR5KtprkkDH7zHVTn1WvGxdD6vWdPtbz3Sdrrtc9XDVvb0lU9fLZtdQooorkOoKKKKACiiigAooooAKKKKACiiigDwfw/+xb8PfDWn+HoLK88Wm60X+xxHeXHim/m+0JptwlxaxywPKbdow6sRGIgiea5iEZII7LRPgN4Y8OfCPwt8OtNW4stA8OzaZcWzQCKOaWWyu4btJJdqBWaWaANKwUFzJIRtLZHo1FAHjf8Awyp4P87z/wC1fFvnf8JJ/wAJR5f/AAkt59k+1f2n/aOz7F5n2Xy/O+XHk7tvzbvM/eV7JRRQAUUUUAFFFFABV3R/+Pw/9cz/ADFUqparpMGsQpFPJdRBH3q9ndy2zg4I+/EytjBPGcUAb1t4R0Sxkv5LXSbOzl1C5N7eSWsCxNczlFQyyFQC7lURdzZOEUdhUv8Awjun/wDPv/4+3+NcT/whNj/0ENf/APCgv/8A49R/whNj/wBBDX//AAoL/wD+PUttEO7O1bw3pzdbfP8AwNv8azdT8ILKytZMkIxgxuWx35zz7cVzn/CE2P8A0ENf/wDCgv8A/wCPUf8ACE2P/QQ1/wD8KC//APj1MRsL4PvVH+tg/wC+m/wpf+EQvP8AnrB/303+FY3/AAhNj/0ENf8A/Cgv/wD49R/whNj/ANBDX/8AwoL/AP8Aj1AzUfwXfMxIlt/++m/+Jpv/AAhN9/z1t/8Avpv/AIms3/hCbH/oIa//AOFBf/8Ax6j/AIQmx/6CGv8A/hQX/wD8eoEXz4Hv8/623/76b/4mj/hBr/8A57W//fTf/E1Q/wCEJsf+ghr/AP4UF/8A/HqP+EJsf+ghr/8A4UF//wDHqANf/hD73/nrB/303+FDeDb0gjzYP++m/wAKyP8AhCbH/oIa/wD+FBf/APx6j/hCbH/oIa//AOFBf/8Ax6gDS/4Qm+/562//AH03/wATTV8N32n3kTNGJk5+aHLY4Pbr/wDrrP8A+EJsf+ghr/8A4UF//wDHqP8AhCbH/oIa/wD+FBf/APx6gDfSwuZGCiCQH/aXA/M100Mfkwxx5ztULn6CvOv+EJsf+ghr/wD4UF//APHqT/hCrH/n/wBf/wDCgv8A/wCPUAek0V5r/wAIXZf8/wDr/wD4UF//APHqT/hCrH/oIa//AOFBf/8Ax6gD0qjNeaf8IXY/8/8Ar/8A4UF//wDHqP8AhC7H/n/1/wD8KC//APj1AHpeaM15p/whdj/z/wCv/wDhQX//AMeo/wCELsf+f/X/APwob/8A+PUAdPdH/Trr/rp/QV5NrP7Pmnaxql9er4l1jTVvJLl5rXT7bTooXFxLDJMjj7JmUObeFW80uXVCrFgzBvSNOsYdLtEtoWmaNSTuuJ3mkJJJJZ3JZjk9yas7q6aGJq4ZuVJ2fov1Oeth6eIVqiuvmeXX3wAtdUsriy1DxZrGpWM141+1nfWGk3EC3DDDSJG9iVQtlmO0DLO7H5nYmGx/Z3t9KtdLtbHxv4nsbXS7iW6sre1GnxR28kkpldkVbQAZJdcYwEkkjGI5HVvV91G6ur+0sVbl5lb0j6du2hzf2fhr35dfV+vc8ouf2dbK6v0vT4u12C5W4a7Mlra6XBvmae3uGlcJZAO5ltLdizZJ8sA8Egkn7OtlN4bn8Pv4u119FuLiO5msWtdLMcjxujxhh9i5RfKiUIflCRpGBsUKPV91G6n/AGnitFzbarSO/wBwf2fhtXy7+b/zPNdN+B8mk38F7aePfE8VzD9t8uTy9NbH2udbi44Nnj55UVvbGFwOKgs/gFFp/jG98V23jbxFF4hvY2iuNQEGmeZKhWFdp/0PGALeLAxgEMRgu5b1HdS7qn+0cTq7rVWfux1Td2ttr6+pX1HD6Kz013e60vv20OV8M+AJfD3ia91258Uaxrt3eWcVlKmoJaLHsid3jIENvGQVMsvfBEhyDhcdbmmbqN1cVSrKtLmnv6JfkddOnGlHljt9/wCY+lqPdS5rI0H0UUUAFFFFABRRRQAUUUUAFFFFABRRRQAUUUUAFFFFABRRRQAUUU6KF5n2RrvbGccUANoqx/Z11/zxP/fS/wCNH9nXX/PE/wDfS/40AV6Ksf2ddf8APE/99L/jR/Z11/zxP/fS/wCNAFeirH9nXX/PE/8AfS/40f2ddf8APE/99L/jQBXoqx/Z11/zxP8A30v+NH9nXX/PE/8AfS/40AV6Ksf2ddf88T/30v8AjR/Z11/zxP8A30v+NAFeirH9nXX/ADxP/fS/40f2ddf88T/30v8AjQBXoqx/Z11/zxP/AH0v+NIdPuv+eJ/76X/GgCsWppap2sbkf8sT/wB9L/jUL2d1/wA8T/30v+NAEbNTGkHrRJZ3X/PE/wDfQ/xqBrW4H/LI/wDfS/40ATed70hmHrVf7Pcf88T/AN9D/Gm+Tcf88T+a/wCNAFnzh60ecPWqpjuP+eJ/76X/ABpPKuf+eLf99L/jQBa84etHnj1rMN5tZ0YFWU4IOKPtgoA0vOHrR5w9azftlH2ygDS84etHnD1rN+2Cj7YKANPzvel84etZn2wetH2sUAafnD1pfOHrWb9qFOW5FAGj53vTlkB71mrcCplk9DQBq0UUUAFFFFABRRRQAUUUUAFFFFAHwz8O/wBua98UfFKy1KRvBcmneJtN8J2cPh2z8fNc3VlLe6hdwyGK3+xqJLuNbiI3MIKFEgiJdtwCYOg/G/x/4i/Zt8KeLtY+I/i2017UNYs1s5tJ8MC5vbSa5g0+0Ivora0a3+zB727vILWWPzbuKWwMUySCvUPCP7KfxO0Hw/4Rtr/xt4SvP7Ps/B2m3+n2+hXUX+i6JqAuwIrs3bZkPmTAu0AWTag2Q5LDU0v9i3TY/gL4L8H6xDYeI/EWnXmhXurTatK09jcPayadHdBIfLEZ/wBCsPskTNEHMZZXbM9w7gHl/g39pi2k+LWmwn4o+PLi1vfEi6Lc6Ldr4Zt3uLoXlvp8BawnmOo2kbLCxuI0t42Z5pJ447UZStT4TftJal8VvhV4gsP+Eq17XY9SvLW3ute0a2XVNW8O2V3o1lcPEsWkWqObkXEt/DFcNAkcb28jSMXhS3m3tK/Yy8Z6PdWbW/je3k0q18bJ4hj0i61HXbgtZrrgvwrySai1vJN5QyS9md0ucuXJuKPFv7MvxU1DxhrOt2us2+tvrEK6Tfzax4smguZrO3F29ldxeVphtrW7Se5tp08m3H2Z9PDLJK15cNQB6NZ/ETUvFUvw/j1a38W+F9W1y81PQbTW9LtVsbK4dbKWcTy6fqGZod4tnkiElu7xS2zp5klvLvuuN8G/ESCT4xaXpt/+0Rq0mgatoOgeIPDlnrKaHZTa8b24vVaEIdPildWS3thsjCSqZiMgsu3e034C+NNY+GPh6w167sNC8UaH4k1PxM6+G9ZnMGqTXkF/58K3TWqS2Eck2pTqGjSaWGJV2SNLiRavwH+F/wAXPhXqmiR6loPgu60638K+H/CVzcWvie7Myxac11vukjbTQGZ1uyREXUAxgGT5sqAeX+H/AIlW3xC1ie4uvHPxE+I/hyy8VPYGXRIdRtp7TRzZ30SXyHQYLdLxZ9S06RFmH2iNIdgxDI0or6C/ZU8TJr3w31WxNzr091oniTV7B4/E0d6uoQwNeS3FikpvQJ2/0G4s2Uvk7XUE5BAwfCf7IGn6P428WeINY8ZeJtTTWppZbay0rVbzQ1sFk1LUb5o91lPEZ13aiQPO3srLIysqyCOPvPgr8P8AVfA9h4juda+zw6jrupRX72VtqM+pLaLFYWliiG8nRJblmSyWRpJEVt0rKd23e4B6NVzSGC3jE9BGT+oqnV3R+bwg8jyz/MUne2m4Hz/4N/aa8QePPCPjTXNIFvNqv/CP3mt+FvCcvhPVbe5uUiU+S4uZjGt+HLQ7ltYwEM6qJHyrvk65+0z4p0PwfBdt4r0KS7W4uhqF5J8Odaim04Q28cwgm0g3ZvF3LIZDdEiJEC5U+YrH1bRf2cdN0AzCz8WeJ4orfTp9K0KJbi3UeHreVkZlsyIAWwYogpuDMVWMKMKWDUl/Zktobz+2Lb4geMLTxnJPPJc+LInsPtt1HLHDG0DxNaG1EYW2t8BIFZTFkMCzlh6q0dNPxvp+G/8A7cvdet481+l391l/S/TcxvGvxI+J0XhjwJr/AIe1PwjZ3Hir+zbe28NXmjz6hK9xOoknKXsV/EhijhEsu4Qt8sRPzZArL8P/ALWlt8T/AIvXXg7wN4j8E3ENzpF+2lfaNRFxePf28kK7poI5AyRYeVhEQJHWBm3IK9b8P/BvQPDOseGL2ye8MPhrSG0fSrCaYSQW6MU3zcje0zLGil2Y/KGwBvctZ8YfDS28W6zHq6azq2h6tDpdzpdveaXLGjwLNJBIZV3xuC6tbpjcCpBYMrA1crc90vd97T1TS/Gz8r+RhFPlSvr7uvo9f68utzB+BXj3XvHGn+I4/EFzp99d6Vqf2OO6stJuNIeSMwRSZlsLmaWe3YM7AeYw8xQsirsdGb0+uQ+Hvw5i8Apqs0ut6p4l1jVrhbm/1jWDALidljWOMbIIookVURVASNe5OWJJ6+k+novyGFFFFIYUUUUAFFFFABUbN1pzNxUTHAoAjdqqzTYqSaSs65mxmgCO+1CO1heWWQRxqMlieKyTqt1Mu6DSryVDyG/dpn8HcH9KbIwvPEFjA/MaRyXG3PBZSij8t5P4VvVlKfK7I0jG+rMA32o/9Aa8/wC/kH/xymteal/0Brz/AL+Qf/HK6Gio9oy+RHOfa9T/AOgNef8AfyD/AOOU03Wp/wDQGvP+/kH/AMcrpaKPaMORHA3FtrUlzM40W62s2R++g9B/00pn2PW/+gLdf9/oP/jleg0UvasORHn32PW/+gLdf9/oP/jlJ9j1v/oC3X/f6D/45XoVFL2rDkR599j1v/oC3X/f6D/45R9j1v8A6At1/wB/oP8A45XoNFHtZByI8/8Asmt/9AW6/wC/0H/xynC11r/oC3X/AH+g/wDjld9RR7WQciOC+z61/wBAS6/7+wf/AByni31n/oC3X/f2D/45XdVTXWLCTVpdLW9t21OKBLmSyEqmZIXZlSQpncFZkcBsYJRh2NHtZByI5NYdY76Ldf8Af2D/AOOU+LUGhuFguYJrOdhlUmAG76EEg/ga6ltYsI9Wi0tr23XU5YHuY7IyqJnhRlV5AmdxVWdAWxgF1HcVR8YwrJ4bv5SPntomuY27hkBYY/LH4mqjUbeonBdDSoooroMQooooAKKKKACiiigAooooAKKKKACiiigAooooAKKKKACqt+2qLGjaRd2tnchvma8tWuEZcHI2rIhBzg53dunNWqKAMn7V42/6Degf+CSf/wCS6PtXjb/oN6B/4JJ//kutaigDJ+1eNv8AoN6B/wCCSf8A+S6PtXjb/oN6B/4JJ/8A5LrWooAyftXjb/oN6B/4JJ//AJLo+1eNv+g3oH/gkn/+S61qKAMn7V42/wCg3oH/AIJJ/wD5Lo+1eNv+g3oH/gkn/wDkutaigDJ+1eNv+g3oH/gkn/8Akuj7V42/6Degf+CSf/5LrWooAyftXjb/AKDegf8Agkn/APkug3Xjb/oN6B/4JJ//AJLrWpG6UAY7XXjb/oNaD/4JJ/8A5LqKS68bf9BrQf8AwSz/APyXW01QydTQBgTXXjT/AKDWg/8Aglm/+S6y7q88Z851nQv/AATTf/JddNMeDWTeN1oAoeD59cm8YxjVb7T7qIWM+xbOxeAg+ZDyS0z5HtgV0/jqPw6/g3W28Xw6fceF4rSWbU01aJJbX7Oil5DKrgqUCqScjHFYPhg58XQ/9eM//oyGup8ReG9I8X6LdaPr2lWWt6TdKFuLDUbdLiCYAggPG4KsMgHkdQK5anxG8Nj5/wDBP7MvgBfBPi/xBq3wx8M6XL4lhFwvh59DtUh0+2hR/ssbQiPaJ8MZZGILCSQruKxpjvv2YfBXh7wb8C/BI8P6DpmhDUNFsL28/s2zjt/tM7Wse6WTYo3ucDLHJPrXSeD/AIOeAfh5JeSeFfA/hvwzJeR+Tcvo+k29oZ4/7jmNBuXk8HiofE3w51DVF06Dw/4413wFp1jbrbR6f4dtNMMBVeF4ubOYrtUBQEKqABxUcxVjzf4e+D/A/j/VvFPi3xnp+l6p440fxRe2TahqYU3OjRQXjrp0duzHdaq1t9mmAjKiRp2kOWkavPNB+Kj/AAs8JXWrWnhvTtV1Kz0/XZ4LtokW7BfxE0IiMzuirAGkEjqzKv7sEuuMj6Yvvhb4Q1fxNpviXVfDGi6v4p06NI7XX77TbeS/iCElSk2zcmCzHC4ALHAGavL4I8OLDNCNA0sQzQTWssYso9rwzOXmjYbeUkclmU8MSScmjmCx4bY/FH407fC2i6t4e0jw3r2u+IJdMh1DWLBBC1qunXF0Zha2upXOHWSDbta4G8f3M5FXwD48+IPjr4yeAprnXdJsNNfQ/EMGqaXBp1wYru4sNWtrOaaLN1hCx2NGWWQxK8ikyeYCvtvhf4UeCPA9vBB4c8HaB4fgt7pr2GPS9LgtljuGiMTTKEQYkMZKFhyVJXOOKsy/DzwrPc6XcSeGdHkuNKuZrzT5WsIi9nPMxeaWE7cxu7MzMy4LEkknNK4HQ0UUVJQUUUUAFFFFABXiX7RnkfavDv8AwjXmf8Ld3v8A8I19jxv25Xz/ALX2+wY2+bu/2Nn73y69tqmuj2EerS6otlbrqcsCW0l6IlEzwozMkZfG4qrO5C5wC7Huaa0EePfs5+R9q8Rf8JL5n/C3d6f8JL9sxv25byPsnb7Bjd5W3/b3/vfMr1bxd/yKetf9eU//AKLarbaPYSatFqrWVu2pxQPbR3piUzJC7Kzxh8bgrMiErnBKKewqp4w/5FPW/wDrxn/9FtTvqHQv0UUV3HKFFFFABRRRQAUUUUAFFFFABRRRQAUUUUAFFFFABRRRQAUUUUAFFFFABRRRQAUUUUAFFFFABRRRQAUjUtNagBrVBJ3qZqrzUAU5z8prGvD1rXuDxWLeHk0AS+DIPtXjSNN23FhOemf+WkFekf2T/wBNf/Hf/r1518P2z46X/sHT/wDo2CvVahxUtWUpNbGf/ZP/AE1/8d/+vR/ZP/TX/wAd/wDr1oUUvZx7D5mZ/wDZP/TX/wAd/wDr0f2T/wBNf/Hf/r1oUUezj2DmZn/2T/01/wDHf/r0f2T/ANNf/Hf/AK9aFFHs49g5mZ/9k/8ATX/x3/69H9k/9Nf/AB3/AOvWhRR7OPYOZmf/AGT/ANNf/Hf/AK9H9k/9Nf8Ax3/69aFFHs49g5mZ/wDZP/TX/wAd/wDr0f2T/wBNf/Hf/r1oUUezj2DmZn/2T/01/wDHf/r0f2T/ANNf/Hf/AK9aFFHs49g5mZ/9k/8ATX/x3/69YvjXTPL8G683m522Fwfu/wDTNveuqrD8df8AIk+If+wdcf8AopqPZx7BzMp0UUVoQFFFFABRRRQAUUUUAFFFFABRRRQAUUUUAFFFFABRRRQAUUUUAFFFFABRRRQAUUUUAFFFFABRRRQAU1utOphoAZJ2qvN3qxJ2qtL3oAo3R+WsS8PWtm66GsO8brQBa+HZz48H/YOn/wDRsFes15J8ODnx5/3Dp/8A0bBXrdABRRRQAUUUUAFFFFABRRRQAUUUUAFFFFABRRRQAVheO/8AkR/EP/YOuP8A0U1btYXjz/kR/EX/AGDrj/0U1AFSiiigAooooAKKKKACiiigAooooAKKKKACiiigAooooAKKKKACiiigAooooAKKKKACiiigAooooAKKKKACmU+mUAMkqrLVmSqsv9aAM+7PBrBvjw1bl0eDWBfNw1AFv4aHPj3/ALh0/wD6Ngr1+vHvhj/yPx/7B0//AKNgr2GgDxHx78XviB4M0Xx5eW3gK+11dLMz6bNaQ28IijSIv5lws95Gk0R2hhJbymTDlXhiZPnxPiF+0xf+H/Bnh281OLTPgxqetajFaw3HxGuLG5t2hMDyyyxpa6iu9VIRMvJGQZFJXkCm/GD4G+IPHun+LLaXwF8P/HL67dzzW8/ivUZI/wCyQLWO2tngX+z7jLgK8jYKbWcgE5yH+EfhD4s8MeHdKsdJ+G/w58FJot7/AGtFpvhvWZUt9UuxbPbgzsumReT98MZAkrHylXGDkZPmcG/KLXfzXr331230qVk9P733/Z+V/wDg+fFfCH9tSL4hePPCNjc+P/hy1lrEltYS6LYuBqH2mTS0uWkSU3rDb9qY24jMJO4bd5bitG5/bek8a3lppnw48G6hrWoyX0ljOf7R0K7aAm3uWiL2yavHLGfNhU7Z/KyquuVcrW38OPgf8QPAreEoXj8N3S6Xuvrq+XU7gM10mlHToIEh+y4MWxIXaUyBgWcCM4BOF4u/ZT8f6pY2um2Pizw7LZ2ul2Wnw3E1hdWtykVo5k8ktHcNl7lndZLkFfLTIWF2fcm9SzmlHRdf177W+ael9E1HaVt+n5de97/J3626+x/aH8ZyN4Su7z4f6fb6JrGivrVzPa65LqV9DFE0CTeRa2Fpcpc5NzG0flznemS3lkYrqvgL8e9K+M3hvSisWo2fiJtItNSv7W80G/06Eecv3oGuYlWWPergMjOMDqetcXq3wD8c+IbPQdUn8TjS/FVuk9jFDYag0el+HrOaTc4tYoLeBr9ljjt4lS8PlZjEhQlSj9r8K/A/ibQvFl/f65pmjaLpdro9loWkWWk6tLqBMEDzN5krSWsGxiskY2jeBtPzU1a8r93/AO3W8usV9+uhD0gmt9PzX6XettttVf1SiiioKCiiigAooooAKKKKACsLx5/yI3iL/sHXP/opq3awfHv/ACIviL/sG3P/AKKagCrRRRQAUUUUAFFFFABRRRQAUUUUAFFFFABRRRQAUUUUAFFFFABRRRQAUUUUAFFFFABRRRQAUUUUAFFFFABTKfTKAIpKqTVbk7VTm70AZt2eDWBft8prdvD1rn9QPymgC78Lz/xXx/7Bs/8A6Ngr2OvGvhaf+K+P/YNn/wDRsFey0AFFFFABRRRQAUUUUAFFFFABRRRQAUUUUAFFFFABWD49/wCRF8R/9g25/wDRTVvVg+Pv+RF8R/8AYNuf/RTUAVaKKKACiiigAooooAKKKKACiiigAooooAKKKKAIpWk3wxQhTNM+xN3QcEkn6AGrf9h33/P9b/8AgK3/AMcqvH/yFNM/67N/6KkrpKAMP+w77/n+t/8AwFb/AOOUf2Hff8/1v/4Ct/8AHK3K5Xx98v8Awjkn/FQReXrNt/pWgfP5O7cn+lRc+ZbPu8l/3b+X5yzfuvJ+0QgF7+w77/n+t/8AwFb/AOOUf2Hff8/1v/4Ct/8AHK+U/hr8dobz9oTV9Jtvjb8GL1NTh0W4uJ9HspEbXriWa6t2toE/tmSMXaxW8CGUJJIyzWyurLFEp8r/AGmvjPPoPij4r6jpmv8AxH07W7LxBq2j2v2RNei02C1TwRK6KkaqLVWW/AuRIBvCgXAbyf3lAH6Af2Hff8/1v/4Ct/8AHKP7Dvv+f63/APAVv/jleO/sp+KLDVtW+Lmj6Xc+MLnStJ8TW4sF8Yx6sbiCCXSbBzEJNSHnf677Q/lk5USo20JLGW9+oAw/7Dvv+f63/wDAVv8A45Ve5t7nTpoFnkjnjmYorxoUKsATggk54B5z2rpKyPEX/MO/6+T/AOipKAKlFFFADba3udRmmWCSKCOEhGeRC5LEA4ABHGCOc96sf2Hff8/1v/4Ct/8AHKl8O/8AMR/6+R/6KjrXoAw/7Dvv+f63/wDAVv8A45R/Yd9/z/W//gK3/wAcrcr4X/ag1DVbL9qCPRbS+8YR6Zq//CF/aJtL8VeILK30/wC1a5PZ3OyK0U2qefBFHGfOlt8FS8XmSs1AH2YdDvsf8f1v/wCArf8AxymHQ77H/H9b/wDgK3/xyvmv4J+NviB4juvi3oGs65rHxHTT4WjtLOSe00i9ES69r2mzC3ubSG32ztbabC6FmQecOJYFbcnEfFrx14zj+MF7o+g23iDV/wDhB9Zt2k1i4TVb57i8fw5JA1zCtloF3a2spXVYnaLJiL2u4W0fnu0gB9jSaHff8/1v/wCArf8Axyqc2i3wz/ptv/4DN/8AHKpfBfxND42+DPgHxDb2lxYwatoFhfx2t3fSX00Ky28cgR7iT55mAbBkf5nILHkmunuO9AHH3mjXvP8Aptv/AOAzf/HK5W8d908UoAlhfY23oeAQR9QRXoV53rzzVm/4mWpf9dl/9FJQBofCs/8AFwD/ANg2f/0bBXs9eH/DW7+yeOt+3fnTpxjOP+WsNeuf23/0x/8AH/8A61AGpRWX/bf/AEx/8f8A/rUf23/0x/8AH/8A61AGpRWX/bf/AEx/8f8A/rUf23/0x/8AH/8A61AGpRWX/bf/AEx/8f8A/rUf23/0x/8AH/8A61AGpRWX/bf/AEx/8f8A/rUf23/0x/8AH/8A61AGpRWX/bf/AEx/8f8A/rUf23/0x/8AH/8A61AGpRWX/bf/AEx/8f8A/rUf23/0x/8AH/8A61AGpRWX/bf/AEx/8f8A/rUf23/0x/8AH/8A61AGpWD4+/5ETxH/ANg25/8ARTVa/tv/AKY/+P8A/wBasPx1rHmeCfEKeTjdp1wM7v8Apk3tQBYooooAKKKKACiiigAooooAKKKKACiiigAooooAhkmW1urO5k4hhlLSN/dUoy5+gLCtL/hLtC/6DWn/APgVH/jVOigC5/wl2hf9BrTv/AqP/Guf8a3dh4m0uKHTvGltot5bTC7heO6UwzSorGFLhUkSR4BL5cjxxyxGQR+Wz+W8iPqUUAeL2XhX4h2Pj7WfF0fxi+G51LVdMsdKmibwhceSsVrLdyxso/tnIYtey7iSQQqYAwScr4pfs+2HxOa+hk+JejafY614gv8AWdcjWyWSSaK40dtESC1f7SBAyWDNmR1mDXGJNixjyD77RQBy3w7sLDwbrXj3U9Q8YaNqk/ijxAdZVbZVtltYls7WzigIaaQyMI7NC0mVDMzEIgwK7X/hLtC/6DWnf+BUf+NU6KALn/CXaF/0GtO/8Co/8apajrFlrEtmljdQ3nlSmSRoHDqo2MvJHGcsOPrS0UAFFFFACadrFlo8t4l9dQ2fmyiSNrhwisNirwTxkFTx9Ku/8JdoX/Qa07/wKj/xqnRQBc/4S7Qv+g1p3/gVH/jXi3xc/Z++F/xc1i51m/1sLqt9e6PLqCXOvXVxp19a2F5HcCzm083ItXiZVmUBoyqtcSSbS5O712igDzbR/AtrYjXvtPxQDN4o23XiKTTXhspZ71fJj8y0kVy9pE1rCtoUDPII4oHSaO4WWefnZP2bfg7Je+NdRuNF+G+r6lrE0MmkPrXh+zu4dHih020soLYIWBeBGtfM8tGiGJSo243n2pulMagDnPhbaaF8MPhb4O8G/wDCT6fqX/CPaNZ6R9t82OL7R5ECReZs3tt3bM7dxxnGT1rduPF2h8/8TnT/APwKj/xolqnN3oAp3nizROf+Jxp//gUn+NcbfTLdXF5cRnMM0gaNsfeARVz9Mg1019XO6keDQAeAf+R2/wC3Cb/0ZDXqFeW/D/8A5Hb/ALcJv/RkNepUAFFFFABRXN/ELUrzTPDOdPn+y3d3e2WnJchQxh+03UVuZACCCyiUsAQRkDPFXI/gxoCxqJL7xNNIBhpG8UakpY+pCzhR+AA9q6oUoezVSpKybaVlfa3mu5yzqz9o6dON2km7u29/J9mbFFZH/CmfDv8Az8+JP/Cq1T/5Jo/4Uz4d/wCfnxJ/4VWqf/JNPlw388v/AAFf/JC5sT/JH/wJ/wDyJr0Vkf8ACmfDv/Pz4k/8KrVP/kmj/hTPh3/n58Sf+FVqn/yTRy4b+eX/AICv/kg5sT/JH/wJ/wDyJr0Vkf8ACmfDv/Pz4k/8KrVP/kmj/hTPh3/n58Sf+FVqn/yTRy4b+eX/AICv/kg5sT/JH/wJ/wDyJr0Vkf8ACmfDv/Pz4k/8KrVP/kmj/hTPh3/n58Sf+FVqn/yTRy4b+eX/AICv/kg5sT/JH/wJ/wDyJr0Vkf8ACmfDv/Pz4k/8KrVP/kmsrw7bz+HfG2v+GRfXWoaba2VlqNo19M000Ine4jaIysSzqDbbgWJb5yMkAYHSpyhKVOTfLrqrdUu77iVWpGcY1Ipc2mjv0b7LsdZWL40/5E3Xv+vC4/8ARbVtVi+Nf+RN17/rwuP/AEW1ch2G1RRRQAUUUUAFFFFABRRRQAUUUUAFFFFABRRRQAUUUUAFFFFABRRRQAUUUUAFFFFABRRRQAUUUUAFFFFACN0pjU9qY1AEEtU5+hq5LVOfvQBj3tc7qXeuhvO9c7qXQ0AHw/8A+R2/7h83/oyGvUq8t+H/APyO3/bhN/6Mhr1KgAooooA5P4mf8gHTf+xg0X/06WtenV5j8TP+Rf03/sP6Kf8Ayp2tenV1y/3aH+KX5ROSP+8z/wAMfzkFFFFch1nF/GnxRb+CfhT4p1651e/0KLT7GS4+3aVHDJdoyjKrCs0ckbOxwoDIwJYcV8GeIv2lPjBY+IPD9tban4t/tDT0jtrszRRzfa2E1y13HdQafod5AsmdPnijaKUMkZRsOBM9fol4t8N23jLwrrOgXsk0VnqtnNYzSW7BZFSRCjFSQQGwxwSDz2rwjXv2B/hLr2n3EUulzSX8l010msaktvq99FuidGiEt/Fcboy8skxDhv3rb88ADN8yblHfS3yv+d9b6Nb7a37rik/O/wByt+JwHxR+JXiea3v/ABNqmsfFjw94ajj07W0j8KXnhC2srC3kWLyy73cn2p4mmWTc0wRGAdSmxTn139lnx7dfEXw5rmqHxPrXirTFvFhtbvWrnw/cyRkRgyRrLosrwsMkHDhXG7uMGn6x+yvpWoW0i2Xjbxjol3ILWGS6sr23k3W1tsNtb+RPBJAEjZAwYRCTJfLkO4b0XwP4R1XwnDdpqnjbXfGjTMrRya5DYRtAADkJ9ktYAQc87gx4GCOa6PdTko7dP66u1k/nq9DD3mouW/X7v87tfLzOmooorM0CvOW/5LP4k/7F/Sf/AEp1KvRq85Y/8Xo8Sf8AYA0n/wBKNRrro/w6v+H/ANuiclb+JS/xf+2yOkrF8bf8ibr3/Xhcf+i2rarF8bf8ibr3/Xhcf+i2rkOs2qKZDIJokkAwGUN+dPoAKKKKACiiigAooooAKKKKACiiigAooooAKKKKACiiigAooooAKKKKACiiigAooooAKKKKACiiigBGpjU9qY1AEE3SqU/Q1dk6VSm6UAY953rntSHWuivBwa5/UV+U0AM+H/8AyO3/AHD5v/RkNepV5D4c1D+yfF2nTbSyzk2bAHkBypB/76VfwzXr1ABRRRQBQ1zQ7LxJpNzpuoQ+fZ3C7XTcVPXIIYcqwIBDA5BAI5FYK+D/ABDGoSP4leKEjXhVMGmOQPTc1kWP1JJ9TXW0VvCtOmuVbeaT/O5hOjCpLme/k2vyscn/AMIn4k/6KZ4n/wDAXSv/AJBo/wCET8Sf9FM8T/8AgLpX/wAg11lFX9Zn2X/gMf8AIj6tDu//AAKX+Zyf/CJ+JP8Aopnif/wF0r/5Bo/4RPxJ/wBFM8T/APgLpX/yDXWUUfWZ9l/4DH/IPq0O7/8AApf5nJ/8In4k/wCimeJ//AXSv/kGj/hE/En/AEUzxP8A+Aulf/INdZRR9Zn2X/gMf8g+rQ7v/wACl/mcn/wifiT/AKKZ4n/8BdK/+QaP+ET8Sf8ARTPE/wD4C6V/8g11lFH1mfZf+Ax/yD6tDu//AAKX+Zyf/CJ+JP8Aopnif/wF0r/5BrS8N+FofDv2yZry81XUb1xJdajqDq08xAwoO1VVVUcBUVVGScZJJ2qKmVecouOiT7JL8kio4eEZKWra7tv82wrF8a/8ibr3/Xhcf+i2rarl/iRqP2HwrcwhSWviLMHsN4IYn/gIb8cVznQf/9k=;" vertex="1" parent="1">
          <mxGeometry x="-184.9" y="400" width="432" height="462" as="geometry" />
        </mxCell>
      </root>
    </mxGraphModel>
  </diagram>
</mxfile>
